BasicallyAMono-Medium.ufo
<glyph name="exclam" format="2">
  <advance width="1020"/>
  <unicode hex="0021"/>
  <outline>
    <contour>
      <point x="434.32836" y="349.25373" type="line"/>
      <point x="585.67164" y="349.25373" type="line"/>
      <point x="585.67164" y="1170.0" type="line"/>
      <point x="434.32836" y="1170.0" type="line"/>
    </contour>
    <contour>
      <point x="643.8806" y="133.8806" type="curve" smooth="yes"/>
      <point x="643.8806" y="207.77131"/>
      <point x="583.89071" y="267.76119"/>
      <point x="510.0" y="267.76119" type="curve" smooth="yes"/>
      <point x="436.10929" y="267.76119"/>
      <point x="376.1194" y="207.77131"/>
      <point x="376.1194" y="133.8806" type="curve" smooth="yes"/>
      <point x="376.1194" y="59.98988"/>
      <point x="436.10929" y="0.0"/>
      <point x="510.0" y="0.0" type="curve" smooth="yes"/>
      <point x="583.89071" y="0.0"/>
      <point x="643.8806" y="59.98988"/>
    </contour>
  </outline>
</glyph>
<glyph name="quotedbl" format="2">
  <advance width="1020"/>
  <unicode hex="0022"/>
  <outline>
    <contour>
      <point x="587.61194" y="902.23881" type="line"/>
      <point x="738.95522" y="902.23881" type="line"/>
      <point x="738.95522" y="1286.41791" type="line"/>
      <point x="587.61194" y="1286.41791" type="line"/>
    </contour>
    <contour>
      <point x="281.04478" y="902.23881" type="line"/>
      <point x="432.38806" y="902.23881" type="line"/>
      <point x="432.38806" y="1286.41791" type="line"/>
      <point x="281.04478" y="1286.41791" type="line"/>
    </contour>
  </outline>
</glyph>
<glyph name="numbersign" format="2">
  <advance width="980"/>
  <unicode hex="0023"/>
  <outline>
    <contour>
      <point x="136.9680633544922" y="-15" type="line"/>
      <point x="289.7755661010742" y="-15" type="line"/>
      <point x="352.9491653442383" y="310" type="line"/>
      <point x="520.1416625976562" y="310" type="line"/>
      <point x="456.9680633544922" y="-15" type="line"/>
      <point x="609.7755661010742" y="-15" type="line"/>
      <point x="672.9491653442383" y="310" type="line"/>
      <point x="855" y="310" type="line"/>
      <point x="855" y="460" type="line"/>
      <point x="702.1062164306641" y="460" type="line"/>
      <point x="750.701286315918" y="710" type="line"/>
      <point x="935" y="710" type="line"/>
      <point x="935" y="860" type="line"/>
      <point x="779.8583374023438" y="860" type="line"/>
      <point x="843.0319366455078" y="1185" type="line"/>
      <point x="690.2244338989258" y="1185" type="line"/>
      <point x="627.0508346557617" y="860" type="line"/>
      <point x="459.85833740234375" y="860" type="line"/>
      <point x="523.0319366455078" y="1185" type="line"/>
      <point x="370.2244338989258" y="1185" type="line"/>
      <point x="307.0508346557617" y="860" type="line"/>
      <point x="125" y="860" type="line"/>
      <point x="125" y="710" type="line"/>
      <point x="277.89378356933594" y="710" type="line"/>
      <point x="229.29871368408203" y="460" type="line"/>
      <point x="45" y="460" type="line"/>
      <point x="45" y="310" type="line"/>
      <point x="200.14166259765625" y="310" type="line"/>
    </contour>
    <contour>
      <point x="382.10621643066406" y="460" type="line"/>
      <point x="430.70128631591797" y="710" type="line"/>
      <point x="597.8937835693359" y="710" type="line"/>
      <point x="549.298713684082" y="460" type="line"/>
    </contour>
  </outline>
</glyph>
<glyph name="dollar" format="2">
  <advance width="1020"/>
  <unicode hex="0024"/>
  <outline>
    <contour>
      <point x="280.64516129032256" y="855.9677419354841" type="curve"/>
      <point x="280.64516129032256" y="936.6830174659636"/>
      <point x="352.2857362246104" y="1004.7202585833867"/>
      <point x="449.61289978027344" y="1024.972770690918" type="curve"/>
      <point x="449.61289978027344" y="687.2134170532227" type="line"/>
      <point x="352.66423646177395" y="709.4341224993708"/>
      <point x="280.64516129032256" y="775.263867674017"/>
    </contour>
    <contour>
      <point x="100.6451644897461" y="325.6451644897461" type="line"/>
      <point x="100.64516129032256" y="154.70922032643782"/>
      <point x="252.27274472315634" y="13.010975245639202"/>
      <point x="449.61289978027344" y="-11.307472229003906" type="curve"/>
      <point x="449.61289978027344" y="-116.12903594970703" type="line"/>
      <point x="570.3871002197266" y="-116.12903594970703" type="line"/>
      <point x="570.3871002197266" y="-11.309028625488281" type="line"/>
      <point x="767.7272552768435" y="13.010975245639115"/>
      <point x="919.3548387096774" y="154.7092203264377"/>
      <point x="919.3548387096773" y="325.64516129032256" type="curve"/>
      <point x="919.3548387096774" y="489.33361343358973"/>
      <point x="779.7612110545024" y="623.2293932567696"/>
      <point x="595.2333438011908" y="658.8795126638105" type="curve"/>
      <point x="570.3871002197266" y="663.6797180175781" type="line"/>
      <point x="570.3871002197266" y="1024.9796524047852" type="line"/>
      <point x="667.7142637753896" y="1004.7202585833867"/>
      <point x="739.3548387096774" y="936.6830174659635"/>
      <point x="739.3548387096774" y="855.9677419354838" type="curve"/>
      <point x="890.3225784301758" y="855.9677429199219" type="line"/>
      <point x="890.3225806451613" y="1018.3429527030834"/>
      <point x="751.6378640833482" y="1153.1613758808096"/>
      <point x="570.3871002197266" y="1177.9911270141602" type="curve"/>
      <point x="570.3871002197266" y="1283.2258071899414" type="line"/>
      <point x="449.61289978027344" y="1283.2258071899414" type="line"/>
      <point x="449.61289978027344" y="1177.9934921264648" type="line"/>
      <point x="268.3621359166518" y="1153.1613758808094"/>
      <point x="129.67741935483875" y="1018.3429527030834"/>
      <point x="129.67741935483872" y="855.9677419354837" type="curve"/>
      <point x="129.6774193548387" y="698.573366958274"/>
      <point x="260.4922177229737" y="569.8215900839333"/>
      <point x="433.0565274146295" y="536.5368996897051" type="curve"/>
      <point x="449.61289978027344" y="533.3434600830078" type="line"/>
      <point x="449.61289978027344" y="141.19601440429688" type="line"/>
      <point x="336.0935948622892" y="161.16871570139145"/>
      <point x="251.61290322580646" y="236.22180386722118"/>
      <point x="251.6129032258064" y="325.64516129032256" type="curve"/>
    </contour>
    <contour>
      <point x="768.3870967741935" y="325.64516129032256" type="curve"/>
      <point x="768.3870967741935" y="236.22180386722113"/>
      <point x="683.9064051377106" y="161.16871570139136"/>
      <point x="570.3871002197266" y="141.1852798461914" type="curve"/>
      <point x="570.3871002197266" y="510.02831268310547" type="line"/>
      <point x="682.3141657732036" y="488.4593839161014"/>
      <point x="768.3870967741935" y="415.65580614509287"/>
    </contour>
  </outline>
</glyph>
<glyph name="percent" format="2">
  <advance width="980"/>
  <unicode hex="0025"/>
  <outline>
    <contour>
      <point x="587.5" y="937.5" type="curve" smooth="yes"/>
      <point x="587.5" y="1074.09896745"/>
      <point x="476.59896745000003" y="1185.0"/>
      <point x="340.0" y="1185.0" type="curve" smooth="yes"/>
      <point x="203.40103255000002" y="1185.0"/>
      <point x="92.5" y="1074.0989674500001"/>
      <point x="92.5" y="937.5" type="curve" smooth="yes"/>
      <point x="92.49999999999997" y="800.9010325500001"/>
      <point x="203.40103254999997" y="690.0"/>
      <point x="340.0" y="690.0" type="curve" smooth="yes"/>
      <point x="476.5989674499999" y="690.0"/>
      <point x="587.5" y="800.90103255"/>
    </contour>
    <contour>
      <point x="442.0" y="937.5" type="curve" smooth="yes"/>
      <point x="442.0" y="881.2046679599999"/>
      <point x="396.29533204" y="835.5"/>
      <point x="340.0" y="835.5" type="curve" smooth="yes"/>
      <point x="283.70466796" y="835.5"/>
      <point x="238.0" y="881.20466796"/>
      <point x="238.0" y="937.5" type="curve" smooth="yes"/>
      <point x="238.0" y="993.7953320400001"/>
      <point x="283.70466796" y="1039.5"/>
      <point x="340.0" y="1039.5" type="curve" smooth="yes"/>
      <point x="396.29533204" y="1039.5"/>
      <point x="442.0" y="993.79533204"/>
    </contour>
    <contour>
      <point x="92.50000000000003" y="329.9999999999625" type="line"/>
      <point x="887.5" y="735.7481531570107" type="line"/>
      <point x="887.5" y="840.0" type="line"/>
      <point x="92.50000000000003" y="434.2518468429518" type="line"/>
    </contour>
    <contour>
      <point x="887.5" y="232.5" type="curve" smooth="yes"/>
      <point x="887.5" y="369.09896745000003"/>
      <point x="776.59896745" y="480.0"/>
      <point x="640.0" y="480.0" type="curve" smooth="yes"/>
      <point x="503.40103255" y="480.0"/>
      <point x="392.5" y="369.09896745000003"/>
      <point x="392.5" y="232.50000000000003" type="curve" smooth="yes"/>
      <point x="392.5" y="95.90103255000002"/>
      <point x="503.40103254999997" y="-14.999999999999972"/>
      <point x="640.0" y="-15.0" type="curve" smooth="yes"/>
      <point x="776.5989674499999" y="-15.000000000000028"/>
      <point x="887.5" y="95.90103254999994"/>
    </contour>
    <contour>
      <point x="742.0" y="232.5" type="curve" smooth="yes"/>
      <point x="742.0" y="176.20466795999997"/>
      <point x="696.29533204" y="130.5"/>
      <point x="640.0" y="130.5" type="curve" smooth="yes"/>
      <point x="583.70466796" y="130.5"/>
      <point x="538.0" y="176.20466796"/>
      <point x="538.0" y="232.5" type="curve" smooth="yes"/>
      <point x="538.0" y="288.79533204"/>
      <point x="583.70466796" y="334.5"/>
      <point x="640.0" y="334.5" type="curve" smooth="yes"/>
      <point x="696.29533204" y="334.5"/>
      <point x="742.0" y="288.79533204"/>
    </contour>
  </outline>
</glyph>
<glyph name="ampersand" format="2">
  <advance width="1020"/>
  <unicode hex="0026"/>
  <outline>
    <contour>
      <point x="356.49817657470703" y="838.2780838012695" type="line"/>
      <point x="338.91962" y="860.15704"/>
      <point x="329.33759" y="887.38186"/>
      <point x="329.33759" y="915.44776" type="curve"/>
      <point x="329.33759" y="983.44863"/>
      <point x="384.54567" y="1038.65672"/>
      <point x="452.54654" y="1038.65672" type="curve" smooth="yes"/>
      <point x="520.54742" y="1038.65672"/>
      <point x="575.7555" y="983.44863"/>
      <point x="575.7555" y="915.44776" type="curve"/>
      <point x="575.7555" y="870.49321"/>
      <point x="551.27145" y="829.10686"/>
      <point x="511.8711" y="807.46145" type="curve"/>
      <point x="421.2548065185547" y="757.6794815063477" type="line"/>
    </contour>
    <contour>
      <point x="297.97554" y="517.27555" type="curve"/>
      <point x="382.8177185058594" y="563.885383605957" type="line"/>
      <point x="657.9097290039062" y="221.49525451660156" type="line"/>
      <point x="600.6103350903289" y="164.99677558869155"/>
      <point x="525.2996417730699" y="131.34327999999996"/>
      <point x="435.81146999999993" y="131.34327999999994" type="curve"/>
      <point x="300.74621" y="131.34328"/>
      <point x="191.33386" y="221.45386"/>
      <point x="191.33386" y="337.01493" type="curve"/>
      <point x="191.33386" y="412.05716"/>
      <point x="232.20487" y="481.14305"/>
    </contour>
    <contour>
      <point x="452.54654" y="1190.0" type="curve" smooth="yes"/>
      <point x="301.01704" y="1190.0"/>
      <point x="177.9943" y="1066.97727"/>
      <point x="177.9943" y="915.44776" type="curve"/>
      <point x="177.9943" y="852.90721"/>
      <point x="199.34639" y="792.24089"/>
      <point x="238.51752" y="743.48698" type="curve"/>
      <point x="286.5652313232422" y="683.6849365234375" type="line"/>
      <point x="225.10443115234375" y="649.9201507568359" type="line"/>
      <point x="110.93649" y="587.19959"/>
      <point x="39.99057" y="467.27692"/>
      <point x="39.99057" y="337.01493" type="curve"/>
      <point x="39.99057" y="137.92838"/>
      <point x="217.24435" y="-20.0"/>
      <point x="435.81147" y="-20.0" type="curve"/>
      <point x="561.18974597836" y="-20.0"/>
      <point x="669.3899475310529" y="26.2081185509104"/>
      <point x="752.5777740478516" y="103.66775512695312" type="curve"/>
      <point x="835.8692321777344" y="0" type="line"/>
      <point x="1030.0094299316406" y="0" type="line"/>
      <point x="848.7953186035156" y="225.5460662841797" type="line"/>
      <point x="903.2283225608818" y="319.86422341548007"/>
      <point x="933.4980400000001" y="434.96570118247996"/>
      <point x="933.4980400000001" y="559.1790999999998" type="curve"/>
      <point x="782.1547470092773" y="559.1791000366211" type="line"/>
      <point x="782.15475" y="485.26403323208"/>
      <point x="769.1512188730143" y="415.71630665429586"/>
      <point x="744.739990234375" y="355.0573501586914" type="curve"/>
      <point x="517.5072937011719" y="637.8799285888672" type="line"/>
      <point x="584.7422027587891" y="674.8168411254883" type="line"/>
      <point x="672.53983" y="723.05031"/>
      <point x="727.09878" y="815.27345"/>
      <point x="727.09878" y="915.44776" type="curve"/>
      <point x="727.09878" y="1066.97727"/>
      <point x="604.07605" y="1190.0"/>
    </contour>
  </outline>
</glyph>
<glyph name="quotesingle" format="2">
  <advance width="1020"/>
  <unicode hex="0027"/>
  <outline>
    <contour>
      <point x="434.51612903225805" y="900.0" type="line"/>
      <point x="585.483870967742" y="900.0" type="line"/>
      <point x="585.483870967742" y="1283.225806451613" type="line"/>
      <point x="434.51612903225805" y="1283.225806451613" type="line"/>
    </contour>
  </outline>
</glyph>
<glyph name="parenleft" format="2">
  <advance width="1020"/>
  <unicode hex="0028"/>
  <outline>
    <contour>
      <point x="724.12065" y="-75.67164" type="line"/>
      <point x="511.67739" y="339.15893"/>
      <point x="511.67739" y="830.84107"/>
      <point x="724.12065" y="1245.67164" type="curve"/>
      <point x="556.14163" y="1245.67164" type="line"/>
      <point x="365.87987" y="825.8863"/>
      <point x="365.87935" y="344.11725"/>
      <point x="556.14006" y="-75.67164" type="curve"/>
    </contour>
  </outline>
</glyph>
<glyph name="parenright" format="2">
  <advance width="1020"/>
  <unicode hex="0029"/>
  <outline>
    <contour>
      <point x="295.87935" y="-75.67164" type="curve"/>
      <point x="463.85994" y="-75.67164" type="line"/>
      <point x="654.12065" y="344.11725"/>
      <point x="654.12013" y="825.8863"/>
      <point x="463.85837" y="1245.67164" type="curve"/>
      <point x="295.87935" y="1245.67164" type="line"/>
      <point x="508.32261" y="830.84107"/>
      <point x="508.32261" y="339.15893"/>
    </contour>
  </outline>
</glyph>
<glyph name="asterisk" format="2">
  <advance width="980"/>
  <unicode hex="002A"/>
  <outline>
    <contour>
      <point x="101.75971221923828" y="352.451904296875" type="line"/>
      <point x="176.75971221923828" y="222.548095703125" type="line"/>
      <point x="415" y="360.09619140625" type="line"/>
      <point x="415" y="85" type="line"/>
      <point x="565" y="85" type="line"/>
      <point x="565" y="360.09619140625" type="line"/>
      <point x="803.2402877807617" y="222.548095703125" type="line"/>
      <point x="878.2402877807617" y="352.451904296875" type="line"/>
      <point x="640" y="490" type="line"/>
      <point x="878.2402877807617" y="627.548095703125" type="line"/>
      <point x="803.2402877807617" y="757.451904296875" type="line"/>
      <point x="565" y="619.90380859375" type="line"/>
      <point x="565" y="895" type="line"/>
      <point x="415" y="895" type="line"/>
      <point x="415" y="619.90380859375" type="line"/>
      <point x="176.75971221923828" y="757.451904296875" type="line"/>
      <point x="101.75971221923828" y="627.548095703125" type="line"/>
      <point x="340" y="490" type="line"/>
    </contour>
  </outline>
</glyph>
<glyph name="plus" format="2">
  <advance width="1020"/>
  <unicode hex="002B"/>
  <outline>
    <contour>
      <point x="99.62686920166016" y="417.16417694091797" type="line"/>
      <point x="434.32836151123047" y="417.16417694091797" type="line"/>
      <point x="434.32836151123047" y="82.46269226074219" type="line"/>
      <point x="585.6716384887695" y="82.46269226074219" type="line"/>
      <point x="585.6716384887695" y="417.16417694091797" type="line"/>
      <point x="920.3731307983398" y="417.16417694091797" type="line"/>
      <point x="920.3731307983398" y="568.5074615478516" type="line"/>
      <point x="585.6716384887695" y="568.5074615478516" type="line"/>
      <point x="585.6716384887695" y="903.2089614868164" type="line"/>
      <point x="434.32836151123047" y="903.2089614868164" type="line"/>
      <point x="434.32836151123047" y="568.5074615478516" type="line"/>
      <point x="99.62686920166016" y="568.5074615478516" type="line"/>
    </contour>
  </outline>
</glyph>
<glyph name="comma" format="2">
  <advance width="1020"/>
  <unicode hex="002C"/>
  <outline>
    <contour>
      <point x="490.26473236083984" y="-352.16417694091797" type="line"/>
      <point x="594.8206017982299" y="-171.06809431750324"/>
      <point x="600.2238811438983" y="-13.907854611219072"/>
      <point x="600.2238793219105" y="100.95895999999999" type="curve"/>
      <point x="600.223876953125" y="250.2985076904297" type="line"/>
      <point x="419.776123046875" y="250.2985076904297" type="line"/>
      <point x="419.776123046875" y="100.9589614868164" type="line"/>
      <point x="419.776123046875" y="9.339948173264261"/>
      <point x="418.287775361624" y="-115.93640977036716"/>
      <point x="333.99239" y="-261.9403" type="curve"/>
    </contour>
  </outline>
</glyph>
<glyph name="hyphen" format="2">
  <advance width="1020"/>
  <unicode hex="002D"/>
  <outline>
    <contour>
      <point x="105.62687" y="417.16418" type="line"/>
      <point x="926.37313" y="417.16418" type="line"/>
      <point x="926.37313" y="568.50746" type="line"/>
      <point x="105.62687" y="568.50746" type="line"/>
    </contour>
  </outline>
</glyph>
<glyph name="period" format="2">
  <advance width="1020"/>
  <unicode hex="002E"/>
  <outline>
    <contour>
      <point x="643.8805970149253" y="133.88059701492537" type="curve" smooth="yes"/>
      <point x="643.8805970149253" y="207.77130939402988"/>
      <point x="583.8907123791046" y="267.76119402985074"/>
      <point x="510.0" y="267.76119402985074" type="curve" smooth="yes"/>
      <point x="436.10928762089554" y="267.76119402985074"/>
      <point x="376.11940298507466" y="207.77130939402988"/>
      <point x="376.11940298507466" y="133.88059701492537" type="curve" smooth="yes"/>
      <point x="376.11940298507466" y="59.98988463582091"/>
      <point x="436.10928762089554" y="0.0"/>
      <point x="510.0" y="0.0" type="curve" smooth="yes"/>
      <point x="583.8907123791045" y="0.0"/>
      <point x="643.8805970149253" y="59.989884635820864"/>
    </contour>
  </outline>
</glyph>
<glyph name="slash" format="2">
  <advance width="980"/>
  <unicode hex="002F"/>
  <outline>
    <contour>
      <point x="179.50675893461994" y="-15.0" type="line"/>
      <point x="339.13342480600676" y="-15.0" type="line"/>
      <point x="830.4932410653801" y="1335.0" type="line"/>
      <point x="670.8665751939933" y="1335.0" type="line"/>
    </contour>
  </outline>
</glyph>
<glyph name="zero" format="2">
  <advance width="1020"/>
  <unicode hex="0030"/>
  <outline>
    <contour>
      <point x="510.0" y="1038.65672" type="curve" smooth="yes"/>
      <point x="610.5179324032799" y="1038.65672"/>
      <point x="696.9829196391172" y="978.0103668095396"/>
      <point x="734.7693634033203" y="891.3335037231445" type="curve"/>
      <point x="264.9253692626953" y="459.40904998779297" type="line"/>
      <point x="264.9253692626953" y="750.8320922851562" type="line"/>
      <point x="264.9253692626953" y="991.7814458351245"/>
      <point x="421.08534582967957" y="1038.65672"/>
    </contour>
    <contour>
      <point x="755.0746307373047" y="419.16790771484375" type="line"/>
      <point x="755.0746307373047" y="178.2185541648755"/>
      <point x="598.9146541703204" y="131.34328"/>
      <point x="510.0" y="131.34328" type="curve" smooth="yes"/>
      <point x="409.48206759672007" y="131.34328"/>
      <point x="323.01708036088274" y="191.98963319046032"/>
      <point x="285.2306365966797" y="278.66649627685547" type="curve"/>
      <point x="755.0746307373047" y="710.590950012207" type="line"/>
    </contour>
    <contour>
      <point x="113.58209205097883" y="419.16790771484375" type="line"/>
      <point x="113.58209386784795" y="87.49136794733641"/>
      <point x="344.98873426293324" y="-19.99999999999998"/>
      <point x="510.0" y="-20.0" type="curve" smooth="yes"/>
      <point x="675.0112657370668" y="-20.0"/>
      <point x="906.4179115826917" y="87.49137011823484"/>
      <point x="906.4179097658226" y="419.16791" type="curve"/>
      <point x="906.4179079490211" y="750.8320922851562" type="line"/>
      <point x="906.417906132152" y="1082.5086320526636"/>
      <point x="675.0112657370668" y="1190.0"/>
      <point x="510.0" y="1190.0" type="curve" smooth="yes"/>
      <point x="344.98873426293324" y="1190.0"/>
      <point x="113.58208841730827" y="1082.508629881765"/>
      <point x="113.58209023417741" y="750.83209" type="curve"/>
    </contour>
  </outline>
</glyph>
<glyph name="one" format="2">
  <advance width="1020"/>
  <unicode hex="0031"/>
  <outline>
    <contour>
      <point x="168.28357696533203" y="0" type="line"/>
      <point x="901.716423034668" y="0" type="line"/>
      <point x="901.716423034668" y="151.34327697753906" type="line"/>
      <point x="630.0746307373047" y="151.34327697753906" type="line"/>
      <point x="630.0746307373047" y="1170" type="line"/>
      <point x="478.73133850097656" y="1170" type="line"/>
      <point x="168.28357696533203" y="990.7629013061523" type="line"/>
      <point x="168.28357696533203" y="818.6280670166016" type="line"/>
      <point x="478.73133850097656" y="997.8651733398438" type="line"/>
      <point x="478.73133850097656" y="151.34327697753906" type="line"/>
      <point x="168.28357696533203" y="151.34327697753906" type="line"/>
    </contour>
  </outline>
</glyph>
<glyph name="two" format="2">
  <advance width="980"/>
  <unicode hex="0032"/>
  <outline>
    <contour>
      <point x="95" y="-15" type="line"/>
      <point x="865" y="-15" type="line"/>
      <point x="865" y="135" type="line"/>
      <point x="318.63675689697266" y="135" type="line"/>
      <point x="738.2312545776367" y="514.445068359375" type="line"/>
      <point x="818.9456522386088" y="587.4362068937245"/>
      <point x="865.0000000000446" y="691.1766508916709"/>
      <point x="865.0000000000446" y="800.0" type="curve"/>
      <point x="865.0000000000446" y="1012.4872826999999"/>
      <point x="692.4872827000445" y="1185.0"/>
      <point x="480.0000000000445" y="1185.0" type="curve" smooth="yes"/>
      <point x="267.5127173000445" y="1185.0"/>
      <point x="95.00000000004451" y="1012.4872826999999"/>
      <point x="95.00000000004451" y="800.0" type="curve"/>
      <point x="245" y="800" type="line"/>
      <point x="245.0000000000445" y="929.7000297000001"/>
      <point x="350.2999703000445" y="1035.0"/>
      <point x="480.0000000000445" y="1035.0" type="curve" smooth="yes"/>
      <point x="609.7000297000445" y="1035.0"/>
      <point x="715.0000000000446" y="929.7000297"/>
      <point x="715.0000000000446" y="800.0" type="curve"/>
      <point x="715.0000000000446" y="733.5753583364744"/>
      <point x="686.8889046131942" y="670.2532691429227"/>
      <point x="637.6216728500026" y="625.7002345154167" type="curve"/>
      <point x="95" y="135" type="line"/>
    </contour>
  </outline>
</glyph>
<glyph name="three" format="2">
  <advance width="980"/>
  <unicode hex="0033"/>
  <outline>
    <contour>
      <point x="105" y="332.5" type="line"/>
      <point x="105.0" y="140.70953055000004"/>
      <point x="277.51271729999996" y="-15.0"/>
      <point x="489.99999999999994" y="-15.0" type="curve" smooth="yes"/>
      <point x="702.4872826999999" y="-15.0"/>
      <point x="875.0" y="140.7095305499999"/>
      <point x="875.0" y="332.49999999999994" type="curve"/>
      <point x="875.0" y="444.2643617482319"/>
      <point x="816.4167102022037" y="543.7760610096775"/>
      <point x="725.4783706665039" y="607.3536911010742" type="curve"/>
      <point x="804.6777341973665" y="667.4383521957623"/>
      <point x="855.0000000000001" y="757.2378563409793"/>
      <point x="855.0" y="857.5" type="curve"/>
      <point x="855.0" y="1038.25216905"/>
      <point x="691.4489823" y="1185.0"/>
      <point x="490.0" y="1185.0" type="curve" smooth="yes"/>
      <point x="288.5510177" y="1185.0"/>
      <point x="125.0" y="1038.25216905"/>
      <point x="125.0" y="857.5" type="curve"/>
      <point x="275" y="857.5" type="line"/>
      <point x="275.0" y="955.46491605"/>
      <point x="371.3382707" y="1035.0"/>
      <point x="490.0" y="1035.0" type="curve" smooth="yes"/>
      <point x="608.6617292999999" y="1035.0"/>
      <point x="705.0" y="955.46491605"/>
      <point x="705.0" y="857.5" type="curve"/>
      <point x="705.0" y="759.5350839500001"/>
      <point x="608.6617292999999" y="680.0"/>
      <point x="490.0" y="680.0" type="curve"/>
      <point x="400" y="680" type="line"/>
      <point x="400" y="530" type="line"/>
      <point x="490" y="530" type="line"/>
      <point x="619.7000297" y="530.0"/>
      <point x="725.0" y="441.50321645"/>
      <point x="725.0" y="332.5" type="curve"/>
      <point x="725.0" y="223.49678354999992"/>
      <point x="619.7000297" y="134.99999999999997"/>
      <point x="490.0" y="135.0" type="curve" smooth="yes"/>
      <point x="360.2999702999999" y="135.00000000000003"/>
      <point x="255.0" y="223.49678355"/>
      <point x="255.0" y="332.50000000000006" type="curve"/>
    </contour>
  </outline>
</glyph>
<glyph name="four" format="2">
  <advance width="1020"/>
  <unicode hex="0034"/>
  <outline>
    <contour>
      <point x="276.55210876464844" y="440.73561096191406" type="line"/>
      <point x="637.0646820068359" y="921.5135192871094" type="line"/>
      <point x="637.0646820068359" y="440.73561096191406" type="line"/>
    </contour>
    <contour>
      <point x="90.223876953125" y="289.39231872558594" type="line"/>
      <point x="637.0646820068359" y="289.39231872558594" type="line"/>
      <point x="637.0646820068359" y="0" type="line"/>
      <point x="788.407958984375" y="0" type="line"/>
      <point x="788.407958984375" y="289.39231872558594" type="line"/>
      <point x="949.776123046875" y="289.39231872558594" type="line"/>
      <point x="949.776123046875" y="440.73561096191406" type="line"/>
      <point x="788.407958984375" y="440.73561096191406" type="line"/>
      <point x="788.407958984375" y="1170" type="line"/>
      <point x="637.0646820068359" y="1170" type="line"/>
      <point x="90.223876953125" y="440.73561096191406" type="line"/>
    </contour>
  </outline>
</glyph>
<glyph name="five" format="2">
  <advance width="1020"/>
  <unicode hex="0035"/>
  <outline>
    <contour>
      <point x="899.3821174867692" y="379.83870967741933" type="curve" smooth="yes"/>
      <point x="899.3821174867692" y="597.7561240258063"/>
      <point x="722.460822157737" y="774.6774193548388"/>
      <point x="504.5434078093499" y="774.6774193548388" type="curve" smooth="yes"/>
      <point x="431.7149471747681" y="774.6774193548388"/>
      <point x="363.4653862527593" y="754.9168935365852"/>
      <point x="304.8683776855469" y="720.4635543823242" type="curve"/>
      <point x="335.94407653808594" y="1016.129035949707" type="line"/>
      <point x="857.5832290649414" y="1016.129035949707" type="line"/>
      <point x="857.5832290649414" y="1167.0967712402344" type="line"/>
      <point x="200.0121078491211" y="1167.0967712402344" type="line"/>
      <point x="130.61788177490234" y="506.8548355102539" type="line"/>
      <point x="296.3756790161133" y="506.8548355102539" type="line"/>
      <point x="339.24389071940675" y="576.923724389663"/>
      <point x="416.4730397914709" y="623.7096774193549"/>
      <point x="504.5434078093498" y="623.709677419355" type="curve" smooth="yes"/>
      <point x="639.1394578480595" y="623.7096774193549"/>
      <point x="748.4143755512853" y="514.434759716129"/>
      <point x="748.4143755512853" y="379.83870967741933" type="curve" smooth="yes"/>
      <point x="748.4143755512853" y="245.24265963870963"/>
      <point x="639.1394578480594" y="135.96774193548384"/>
      <point x="504.54340780934973" y="135.96774193548387" type="curve" smooth="yes"/>
      <point x="416.4720976191205" y="135.9677419354839"/>
      <point x="339.24223833357263" y="182.7546959980568"/>
      <point x="296.3743222144342" y="252.8225806451613" type="curve"/>
      <point x="130.62107849121094" y="252.82257843017578" type="line"/>
      <point x="183.56133023670395" y="97.12551417745738"/>
      <point x="331.0615334207422" y="-15.000000000000014"/>
      <point x="504.54340780934973" y="-15.0" type="curve" smooth="yes"/>
      <point x="722.4608221577367" y="-15.0"/>
      <point x="899.3821174867692" y="161.92129532903215"/>
    </contour>
  </outline>
</glyph>
<glyph name="six" format="2">
  <advance width="980"/>
  <unicode hex="0036"/>
  <outline>
    <contour>
      <point x="875.0" y="370.0" type="curve" smooth="yes"/>
      <point x="875.0" y="582.4872827"/>
      <point x="702.4872827" y="755.0"/>
      <point x="490.0" y="755.0" type="curve" smooth="yes"/>
      <point x="472.705660061047" y="755.0"/>
      <point x="455.6761249188568" y="753.8572184691313"/>
      <point x="438.98260498046875" y="751.6352767944336" type="curve"/>
      <point x="689.1858444213867" y="1185" type="line"/>
      <point x="515.9807586669922" y="1185" type="line"/>
      <point x="156.5802230834961" y="562.5" type="line"/>
      <point x="156.58272552490234" y="562.4985580444336" type="line"/>
      <point x="123.78128395055995" y="505.86964252808116"/>
      <point x="105.0" y="440.11081638871315"/>
      <point x="105.0" y="370.00000000000006" type="curve" smooth="yes"/>
      <point x="105.0" y="157.51271730000005"/>
      <point x="277.51271729999996" y="-15.0"/>
      <point x="489.99999999999994" y="-15.0" type="curve" smooth="yes"/>
      <point x="702.4872826999999" y="-15.000000000000057"/>
      <point x="875.0" y="157.51271729999993"/>
    </contour>
    <contour>
      <point x="286.4840316772461" y="487.5" type="line"/>
      <point x="286.7088317871094" y="487.88936614990234" type="line"/>
      <point x="327.4220112529992" y="557.8967744643852"/>
      <point x="403.2536370359569" y="605.0"/>
      <point x="490.0" y="604.9999999999999" type="curve" smooth="yes"/>
      <point x="619.7000297" y="605.0"/>
      <point x="725.0" y="499.70002969999996"/>
      <point x="725.0" y="370.0" type="curve" smooth="yes"/>
      <point x="725.0" y="240.29997029999993"/>
      <point x="619.7000297" y="134.99999999999997"/>
      <point x="489.99999999999994" y="135.0" type="curve" smooth="yes"/>
      <point x="360.2999702999999" y="135.00000000000003"/>
      <point x="254.99999999999997" y="240.2999703"/>
      <point x="255.0" y="370.0" type="curve" smooth="yes"/>
      <point x="255.0" y="412.793227799218"/>
      <point x="266.462997265926" y="452.930255284288"/>
      <point x="286.4832458496094" y="487.5004577636719" type="curve"/>
    </contour>
  </outline>
</glyph>
<glyph name="seven" format="2">
  <advance width="1020"/>
  <unicode hex="0037"/>
  <outline>
    <contour>
      <point x="280.69124603271484" y="0" type="line"/>
      <point x="446.87904357910156" y="0" type="line"/>
      <point x="914.5161285400391" y="1016.129035949707" type="line"/>
      <point x="914.5161285400391" y="1167.0967712402344" type="line"/>
      <point x="105.48387145996094" y="1167.0967712402344" type="line"/>
      <point x="105.48387145996094" y="1016.129035949707" type="line"/>
      <point x="748.3283309936523" y="1016.129035949707" type="line"/>
    </contour>
  </outline>
</glyph>
<glyph name="eight" format="2">
  <advance width="1020"/>
  <unicode hex="0038"/>
  <outline>
    <contour>
      <point x="909.6774193548388" y="328.00541738488056" type="curve" smooth="yes"/>
      <point x="909.6774193548388" y="437.20368825922355"/>
      <point x="850.0899232110137" y="534.5522104824677"/>
      <point x="757.3220748901367" y="597.3776779174805" type="curve"/>
      <point x="841.566201464873" y="658.1206663054926"/>
      <point x="895.1612903225808" y="749.2585332963782"/>
      <point x="895.1612903225808" y="851.0699335139128" type="curve" smooth="yes"/>
      <point x="895.1612903225807" y="1033.7686189081508"/>
      <point x="722.5763012516129" y="1182.0967741935485"/>
      <point x="510.0" y="1182.0967741935485" type="curve" smooth="yes"/>
      <point x="297.4236987483871" y="1182.0967741935485"/>
      <point x="124.83870967741935" y="1033.7686189081508"/>
      <point x="124.83870967741935" y="851.0699335139128" type="curve" smooth="yes"/>
      <point x="124.83870967741935" y="749.2568890082097"/>
      <point x="178.4355297063309" y="658.1177224942031"/>
      <point x="262.68190002441406" y="597.380744934082" type="curve"/>
      <point x="169.91172964705498" y="534.5549107476111"/>
      <point x="110.32258064516128" y="437.2052027379579"/>
      <point x="110.32258064516131" y="328.0054173848805" type="curve" smooth="yes"/>
      <point x="110.32258064516128" y="138.6955755887959"/>
      <point x="289.41202910322573" y="-15.0"/>
      <point x="509.99999999999994" y="-15.0" type="curve" smooth="yes"/>
      <point x="730.5879708967741" y="-15.000000000000055"/>
      <point x="909.6774193548388" y="138.69557558879575"/>
    </contour>
    <contour>
      <point x="744.1935483870968" y="851.0699335139128" type="curve" smooth="yes"/>
      <point x="744.1935483870968" y="751.6926124293524"/>
      <point x="639.2549369419353" y="671.0108347697611"/>
      <point x="509.99999999999994" y="671.0108347697611" type="curve" smooth="yes"/>
      <point x="380.7450630580645" y="671.0108347697611"/>
      <point x="275.8064516129032" y="751.6926124293525"/>
      <point x="275.80645161290323" y="851.0699335139128" type="curve" smooth="yes"/>
      <point x="275.80645161290323" y="950.4472545984734"/>
      <point x="380.7450630580645" y="1031.1290322580646"/>
      <point x="510.0" y="1031.1290322580646" type="curve" smooth="yes"/>
      <point x="639.2549369419355" y="1031.1290322580646"/>
      <point x="744.1935483870968" y="950.4472545984733"/>
    </contour>
    <contour>
      <point x="758.7096774193549" y="328.00541738488056" type="curve" smooth="yes"/>
      <point x="758.7096774193549" y="222.01693989847325"/>
      <point x="647.2666065870967" y="135.96774193548387"/>
      <point x="509.99999999999994" y="135.96774193548387" type="curve" smooth="yes"/>
      <point x="372.7333934129032" y="135.96774193548387"/>
      <point x="261.2903225806451" y="222.0169398984733"/>
      <point x="261.2903225806451" y="328.00541738488056" type="curve" smooth="yes"/>
      <point x="261.2903225806451" y="433.99389487128786"/>
      <point x="372.73339341290324" y="520.0430928342773"/>
      <point x="510.0" y="520.0430928342773" type="curve" smooth="yes"/>
      <point x="647.2666065870967" y="520.0430928342773"/>
      <point x="758.7096774193549" y="433.99389487128786"/>
    </contour>
  </outline>
</glyph>
<glyph name="nine" format="2">
  <advance width="1020"/>
  <unicode hex="0039"/>
  <outline>
    <contour>
      <point x="916.1194" y="783.8806000000001" type="curve" smooth="yes"/>
      <point x="916.1194" y="1008.0240000000001"/>
      <point x="734.1434000000002" y="1190.0"/>
      <point x="510.0" y="1190.0" type="curve" smooth="yes"/>
      <point x="285.8566" y="1190.0"/>
      <point x="103.8806" y="1008.024"/>
      <point x="103.8806" y="783.8806" type="curve" smooth="yes"/>
      <point x="103.8806" y="559.7372"/>
      <point x="285.8566" y="377.76119"/>
      <point x="510.0" y="377.76119" type="curve" smooth="yes"/>
      <point x="530.9253553938" y="377.76119"/>
      <point x="551.4831995711123" y="379.3472072741665"/>
      <point x="571.5598220825195" y="382.4119186401367" type="curve"/>
      <point x="349.59793853759766" y="0" type="line"/>
      <point x="524.5873336791992" y="0" type="line"/>
      <point x="839.7793511146317" y="543.0387031938162" type="line"/>
      <point x="890.0696968712658" y="629.6830426192133"/>
      <point x="916.1194000000003" y="695.9719500976556"/>
    </contour>
    <contour>
      <point x="730.3185539245605" y="655.9300537109375" type="curve"/>
      <point x="686.0421825814631" y="580.0367109738148"/>
      <point x="603.9220888590299" y="529.10448"/>
      <point x="509.99999999999994" y="529.1044800000001" type="curve" smooth="yes"/>
      <point x="369.38523" y="529.10448"/>
      <point x="255.22388" y="643.26583"/>
      <point x="255.22388" y="783.8806" type="curve" smooth="yes"/>
      <point x="255.22388" y="924.49536"/>
      <point x="369.38523" y="1038.65672"/>
      <point x="510.0" y="1038.65672" type="curve" smooth="yes"/>
      <point x="650.61477" y="1038.65672"/>
      <point x="764.77612" y="924.49536"/>
      <point x="764.77612" y="783.8806" type="curve" smooth="yes"/>
      <point x="764.77612" y="737.27819354137"/>
      <point x="752.2368024434289" y="693.5813924722817"/>
    </contour>
  </outline>
</glyph>
<glyph name="colon" format="2">
  <advance width="1020"/>
  <unicode hex="003A"/>
  <outline>
    <contour>
      <point x="643.8806" y="686.86567" type="curve" smooth="yes"/>
      <point x="643.8806" y="760.75638"/>
      <point x="583.89071" y="820.74627"/>
      <point x="510.0" y="820.74627" type="curve" smooth="yes"/>
      <point x="436.10929" y="820.74627"/>
      <point x="376.1194" y="760.75638"/>
      <point x="376.1194" y="686.86567" type="curve" smooth="yes"/>
      <point x="376.1194" y="612.97496"/>
      <point x="436.10929" y="552.98507"/>
      <point x="510.0" y="552.98507" type="curve" smooth="yes"/>
      <point x="583.89071" y="552.98507"/>
      <point x="643.8806" y="612.97496"/>
    </contour>
    <contour>
      <point x="643.8806" y="133.8806" type="curve" smooth="yes"/>
      <point x="643.8806" y="207.77131"/>
      <point x="583.89071" y="267.76119"/>
      <point x="510.0" y="267.76119" type="curve" smooth="yes"/>
      <point x="436.10929" y="267.76119"/>
      <point x="376.1194" y="207.77131"/>
      <point x="376.1194" y="133.8806" type="curve" smooth="yes"/>
      <point x="376.1194" y="59.98988"/>
      <point x="436.10929" y="0.0"/>
      <point x="510.0" y="0.0" type="curve" smooth="yes"/>
      <point x="583.89071" y="0.0"/>
      <point x="643.8806" y="59.98988"/>
    </contour>
  </outline>
</glyph>
<glyph name="semicolon" format="2">
  <advance width="1020"/>
  <unicode hex="003B"/>
  <outline>
    <contour>
      <point x="643.8806" y="686.86567" type="curve" smooth="yes"/>
      <point x="643.8806" y="760.75638"/>
      <point x="583.89071" y="820.74627"/>
      <point x="510.0" y="820.74627" type="curve" smooth="yes"/>
      <point x="436.10929" y="820.74627"/>
      <point x="376.1194" y="760.75638"/>
      <point x="376.1194" y="686.86567" type="curve" smooth="yes"/>
      <point x="376.1194" y="612.97496"/>
      <point x="436.10929" y="552.98507"/>
      <point x="510.0" y="552.98507" type="curve" smooth="yes"/>
      <point x="583.89071" y="552.98507"/>
      <point x="643.8806" y="612.97496"/>
    </contour>
    <contour>
      <point x="490.26473236083984" y="-352.16417694091797" type="line"/>
      <point x="594.8206017982299" y="-171.06809431750324"/>
      <point x="600.2238811438983" y="-13.907854611219072"/>
      <point x="600.2238793219105" y="100.95895999999999" type="curve"/>
      <point x="600.223876953125" y="250.2985076904297" type="line"/>
      <point x="419.776123046875" y="250.2985076904297" type="line"/>
      <point x="419.776123046875" y="100.9589614868164" type="line"/>
      <point x="419.776123046875" y="9.339948173264261"/>
      <point x="418.287775361624" y="-115.93640977036716"/>
      <point x="333.99239" y="-261.9403" type="curve"/>
    </contour>
  </outline>
</glyph>
<glyph name="less" format="2">
  <advance width="1020"/>
  <unicode hex="003C"/>
  <outline>
    <contour>
      <point x="97.12686920166016" y="574.6482467651367" type="line"/>
      <point x="97.12686920166016" y="411.0233917236328" type="line"/>
      <point x="917.8731307983398" y="73.73133850097656" type="line"/>
      <point x="917.8731307983398" y="237.356201171875" type="line"/>
      <point x="296.20433044433594" y="492.83582305908203" type="line"/>
      <point x="917.8731307983398" y="748.3154373168945" type="line"/>
      <point x="917.8731307983398" y="911.940299987793" type="line"/>
    </contour>
  </outline>
</glyph>
<glyph name="equal" format="2">
  <advance width="1020"/>
  <unicode hex="003D"/>
  <outline>
    <contour>
      <point x="100.64516129032256" y="578.7096774193549" type="line"/>
      <point x="919.3548387096774" y="578.7096774193549" type="line"/>
      <point x="919.3548387096774" y="729.6774193548388" type="line"/>
      <point x="100.64516129032256" y="729.6774193548388" type="line"/>
    </contour>
    <contour>
      <point x="100.64516129032256" y="253.5483870967742" type="line"/>
      <point x="919.3548387096774" y="253.5483870967742" type="line"/>
      <point x="919.3548387096774" y="404.51612903225805" type="line"/>
      <point x="100.64516129032256" y="404.51612903225805" type="line"/>
    </contour>
  </outline>
</glyph>
<glyph name="greater" format="2">
  <advance width="1020"/>
  <unicode hex="003E"/>
  <outline>
    <contour>
      <point x="922.8731307983398" y="574.6482467651367" type="line"/>
      <point x="102.12686920166016" y="911.940299987793" type="line"/>
      <point x="102.12686920166016" y="748.3154373168945" type="line"/>
      <point x="723.7956695556641" y="492.83582305908203" type="line"/>
      <point x="102.12686920166016" y="237.356201171875" type="line"/>
      <point x="102.12686920166016" y="73.73133850097656" type="line"/>
      <point x="922.8731307983398" y="411.0233917236328" type="line"/>
    </contour>
  </outline>
</glyph>
<glyph name="question" format="2">
  <advance width="1020"/>
  <unicode hex="003F"/>
  <outline>
    <contour>
      <point x="429.32836151123047" y="349.2537307739258" type="line"/>
      <point x="580.6716384887695" y="349.2537307739258" type="line"/>
      <point x="580.6716384887695" y="469.2102279663086" type="line"/>
      <point x="744.1168987081938" y="504.0380229952134"/>
      <point x="866.8656716417911" y="649.3645318228531"/>
      <point x="866.865671641791" y="823.1343283582091" type="curve"/>
      <point x="866.8656716417911" y="1022.8534277597017"/>
      <point x="704.7190994014925" y="1185.0000000000002"/>
      <point x="505.0" y="1185.0000000000002" type="curve" smooth="yes"/>
      <point x="305.2809005985075" y="1185.0000000000002"/>
      <point x="143.13432835820896" y="1022.8534277597017"/>
      <point x="143.13432835820896" y="823.1343283582091" type="curve"/>
      <point x="294.4776153564453" y="823.1343307495117" type="line"/>
      <point x="294.4776119402985" y="939.324796374627"/>
      <point x="388.80953198358213" y="1033.6567164179105"/>
      <point x="505.0" y="1033.6567164179105" type="curve" smooth="yes"/>
      <point x="621.190468016418" y="1033.6567164179105"/>
      <point x="715.5223880597016" y="939.324796374627"/>
      <point x="715.5223880597016" y="823.1343283582091" type="curve"/>
      <point x="715.5223880597016" y="706.9438603417912"/>
      <point x="621.190468016418" y="612.6119402985075"/>
      <point x="505.0" y="612.6119402985075" type="curve"/>
      <point x="429.32836151123047" y="612.6119384765625" type="line"/>
    </contour>
    <contour>
      <point x="638.8805970149253" y="133.88059701492537" type="curve" smooth="yes"/>
      <point x="638.8805970149253" y="207.77130939402988"/>
      <point x="578.8907123791046" y="267.76119402985074"/>
      <point x="505.0" y="267.76119402985074" type="curve" smooth="yes"/>
      <point x="431.10928762089554" y="267.76119402985074"/>
      <point x="371.11940298507466" y="207.77130939402988"/>
      <point x="371.11940298507466" y="133.88059701492537" type="curve" smooth="yes"/>
      <point x="371.11940298507466" y="59.98988463582091"/>
      <point x="431.10928762089554" y="0.0"/>
      <point x="505.0" y="0.0" type="curve" smooth="yes"/>
      <point x="578.8907123791045" y="0.0"/>
      <point x="638.8805970149253" y="59.989884635820864"/>
    </contour>
  </outline>
</glyph>
<glyph name="at" format="2">
  <advance width="980"/>
  <unicode hex="0040"/>
  <outline>
    <contour>
      <point x="85" y="390" type="line"/>
      <point x="85.0" y="166.47441690000005"/>
      <point x="266.47441689999994" y="-15.0"/>
      <point x="489.99999999999994" y="-15.0" type="curve" smooth="yes"/>
      <point x="660.5352672168153" y="-15.0"/>
      <point x="806.593884100223" y="90.63050322538611"/>
      <point x="866.2609100341797" y="240.0" type="curve"/>
      <point x="696.1772003173828" y="240" type="line"/>
      <point x="649.7903020837359" y="176.37395054330332"/>
      <point x="574.6887271843545" y="135.0"/>
      <point x="489.99999999999994" y="135.0" type="curve" smooth="yes"/>
      <point x="349.26166989999996" y="135.00000000000003"/>
      <point x="234.99999999999997" y="249.26166990000002"/>
      <point x="235.0" y="390.00000000000006" type="curve"/>
      <point x="235" y="780" type="line"/>
      <point x="235.0" y="920.7383301"/>
      <point x="349.2616699" y="1035.0"/>
      <point x="490.0" y="1035.0" type="curve" smooth="yes"/>
      <point x="630.7383301" y="1035.0"/>
      <point x="745.0" y="920.7383301"/>
      <point x="745.0" y="780.0" type="curve"/>
      <point x="745" y="610" type="line"/>
      <point x="745.0" y="560.3276482"/>
      <point x="704.6723518" y="520.0"/>
      <point x="655.0" y="520.0" type="curve"/>
      <point x="595" y="520" type="line"/>
      <point x="595" y="695" type="line"/>
      <point x="595.0" y="752.9510771"/>
      <point x="547.9510771" y="800.0"/>
      <point x="490.0" y="800.0" type="curve" smooth="yes"/>
      <point x="432.0489229" y="800.0"/>
      <point x="385.0" y="752.9510771"/>
      <point x="385.0" y="695.0" type="curve" smooth="yes"/>
      <point x="385" y="475" type="line"/>
      <point x="385.0" y="417.0489229"/>
      <point x="432.0489229" y="370.0"/>
      <point x="490.0" y="370.0" type="curve" smooth="yes"/>
      <point x="655" y="370" type="line"/>
      <point x="787.4596048000001" y="370.0"/>
      <point x="895.0" y="477.54039520000003"/>
      <point x="895.0" y="610.0" type="curve"/>
      <point x="895" y="780" type="line"/>
      <point x="895.0" y="1003.5255831"/>
      <point x="713.5255831" y="1185.0"/>
      <point x="490.0" y="1185.0" type="curve" smooth="yes"/>
      <point x="266.47441690000005" y="1185.0"/>
      <point x="85.0" y="1003.5255831000001"/>
      <point x="85.0" y="780.0" type="curve"/>
    </contour>
  </outline>
</glyph>
<glyph name="A" format="2">
  <advance width="1020"/>
  <unicode hex="0041"/>
  <outline>
    <contour>
      <point x="57.096771240234375" y="0" type="line"/>
      <point x="215.61258697509766" y="0" type="line"/>
      <point x="309.6214294433594" y="293.6405563354492" type="line"/>
      <point x="710.3785705566406" y="293.6405563354492" type="line"/>
      <point x="804.3874130249023" y="0" type="line"/>
      <point x="962.9032287597656" y="0" type="line"/>
      <point x="589.2579040527344" y="1167.0967712402344" type="line"/>
      <point x="430.7420959472656" y="1167.0967712402344" type="line"/>
    </contour>
    <contour>
      <point x="357.9536590576172" y="444.60829162597656" type="line"/>
      <point x="510" y="919.5313949584961" type="line"/>
      <point x="662.0463409423828" y="444.60829162597656" type="line"/>
    </contour>
  </outline>
</glyph>
<glyph name="B" format="2">
  <advance width="980"/>
  <unicode hex="0042"/>
  <outline>
    <contour>
      <point x="105" y="-15" type="line"/>
      <point x="577.5" y="-15" type="line"/>
      <point x="763.77131925" y="-15.0"/>
      <point x="915.0" y="136.22868075000002"/>
      <point x="915.0" y="322.5" type="curve" smooth="yes"/>
      <point x="915.0" y="439.3796646897975"/>
      <point x="855.4584553991573" y="542.4623907775306"/>
      <point x="765.0786743164062" y="603.0347442626953" type="curve"/>
      <point x="829.6982404628357" y="664.5202733331392"/>
      <point x="870.0" y="751.3407843209341"/>
      <point x="870.0" y="847.5000000000001" type="curve" smooth="yes"/>
      <point x="870.0" y="1033.77131925"/>
      <point x="718.77131925" y="1185.0"/>
      <point x="532.5" y="1185.0" type="curve"/>
      <point x="105" y="1185" type="line"/>
    </contour>
    <contour>
      <point x="532.5" y="1035" type="line"/>
      <point x="635.9840662500001" y="1035.0"/>
      <point x="720.0" y="950.9840662500001"/>
      <point x="720.0" y="847.5" type="curve" smooth="yes"/>
      <point x="720.0" y="744.01593375"/>
      <point x="635.9840662500001" y="660.0"/>
      <point x="532.5" y="660.0" type="curve"/>
      <point x="255" y="660" type="line"/>
      <point x="255" y="1035" type="line"/>
    </contour>
    <contour>
      <point x="577.5" y="510" type="line"/>
      <point x="680.9840662500001" y="510.0"/>
      <point x="765.0" y="425.98406625"/>
      <point x="765.0" y="322.5" type="curve" smooth="yes"/>
      <point x="765.0" y="219.01593375"/>
      <point x="680.9840662500001" y="135.0"/>
      <point x="577.5" y="135.0" type="curve"/>
      <point x="255" y="135" type="line"/>
      <point x="255" y="510" type="line"/>
    </contour>
  </outline>
</glyph>
<glyph name="D" format="2">
  <advance width="1020"/>
  <unicode hex="0044"/>
  <outline>
    <contour>
      <point x="109.40298461914062" y="0" type="line"/>
      <point x="505.223876953125" y="0" type="line"/>
      <point x="731.7149772373134" y="0.0"/>
      <point x="915.5970149253731" y="183.8820376880597"/>
      <point x="915.5970149253731" y="410.3731343283582" type="curve"/>
      <point x="915.5970153808594" y="759.6268692016602" type="line"/>
      <point x="915.5970149253731" y="986.1179623119403"/>
      <point x="731.7149772373134" y="1170.0"/>
      <point x="505.22388059701495" y="1170.0" type="curve"/>
      <point x="109.40298461914062" y="1170" type="line"/>
    </contour>
    <contour>
      <point x="764.2537307739258" y="410.37313079833984" type="line"/>
      <point x="764.2537313432836" y="267.41066907313433"/>
      <point x="648.1863458522389" y="151.34328358208955"/>
      <point x="505.22388059701495" y="151.34328358208955" type="curve"/>
      <point x="260.7462692260742" y="151.3432846069336" type="line"/>
      <point x="260.7462692260742" y="1018.6567153930664" type="line"/>
      <point x="505.223876953125" y="1018.6567153930664" type="line"/>
      <point x="648.1863458522389" y="1018.6567164179105"/>
      <point x="764.2537313432836" y="902.5893309268657"/>
      <point x="764.2537313432836" y="759.6268656716418" type="curve"/>
    </contour>
  </outline>
</glyph>
<glyph name="E" format="2">
  <advance width="1020"/>
  <unicode hex="0045"/>
  <outline>
    <contour>
      <point x="131.2313461303711" y="0" type="line"/>
      <point x="893.7686538696289" y="0" type="line"/>
      <point x="893.7686538696289" y="151.3432846069336" type="line"/>
      <point x="282.57462310791016" y="151.3432846069336" type="line"/>
      <point x="282.57462310791016" y="509.32836151123047" type="line"/>
      <point x="835.559700012207" y="509.32836151123047" type="line"/>
      <point x="835.559700012207" y="660.6716384887695" type="line"/>
      <point x="282.57462310791016" y="660.6716384887695" type="line"/>
      <point x="282.57462310791016" y="1018.6567153930664" type="line"/>
      <point x="893.7686538696289" y="1018.6567153930664" type="line"/>
      <point x="893.7686538696289" y="1170" type="line"/>
      <point x="131.2313461303711" y="1170" type="line"/>
    </contour>
  </outline>
</glyph>
<glyph name="F" format="2">
  <advance width="1020"/>
  <unicode hex="0046"/>
  <outline>
    <contour>
      <point x="134.67742156982422" y="0" type="line"/>
      <point x="285.6451644897461" y="0" type="line"/>
      <point x="285.6451644897461" y="508.06451416015625" type="line"/>
      <point x="837.2580642700195" y="508.06451416015625" type="line"/>
      <point x="837.2580642700195" y="659.0322570800781" type="line"/>
      <point x="285.6451644897461" y="659.0322570800781" type="line"/>
      <point x="285.6451644897461" y="1016.129035949707" type="line"/>
      <point x="895.3225784301758" y="1016.129035949707" type="line"/>
      <point x="895.3225784301758" y="1167.0967712402344" type="line"/>
      <point x="134.67742156982422" y="1167.0967712402344" type="line"/>
    </contour>
  </outline>
</glyph>
<glyph name="H" format="2">
  <advance width="980"/>
  <unicode hex="0048"/>
  <outline>
    <contour>
      <point x="85" y="-15" type="line"/>
      <point x="235" y="-15" type="line"/>
      <point x="235" y="510" type="line"/>
      <point x="745" y="510" type="line"/>
      <point x="745" y="-15" type="line"/>
      <point x="895" y="-15" type="line"/>
      <point x="895" y="1185" type="line"/>
      <point x="745" y="1185" type="line"/>
      <point x="745" y="660" type="line"/>
      <point x="235" y="660" type="line"/>
      <point x="235" y="1185" type="line"/>
      <point x="85" y="1185" type="line"/>
    </contour>
  </outline>
</glyph>
<glyph name="I" format="2">
  <advance width="980"/>
  <unicode hex="0049"/>
  <outline>
    <contour>
      <point x="115" y="-15" type="line"/>
      <point x="865" y="-15" type="line"/>
      <point x="865" y="135" type="line"/>
      <point x="565" y="135" type="line"/>
      <point x="565" y="1035" type="line"/>
      <point x="865" y="1035" type="line"/>
      <point x="865" y="1185" type="line"/>
      <point x="115" y="1185" type="line"/>
      <point x="115" y="1035" type="line"/>
      <point x="415" y="1035" type="line"/>
      <point x="415" y="135" type="line"/>
      <point x="115" y="135" type="line"/>
    </contour>
  </outline>
</glyph>
<glyph name="J" format="2">
  <advance width="980"/>
  <unicode hex="004A"/>
  <outline>
    <contour>
      <point x="80" y="390" type="line"/>
      <point x="80.0" y="166.47441690000005"/>
      <point x="261.47441689999994" y="-15.0"/>
      <point x="484.99999999999994" y="-15.0" type="curve" smooth="yes"/>
      <point x="708.5255831" y="-15.0"/>
      <point x="890.0" y="166.4744168999999"/>
      <point x="890.0" y="389.99999999999994" type="curve"/>
      <point x="890" y="1185" type="line"/>
      <point x="740" y="1185" type="line"/>
      <point x="740" y="390" type="line"/>
      <point x="740.0" y="249.2616698999999"/>
      <point x="625.7383301" y="134.99999999999997"/>
      <point x="484.99999999999994" y="135.0" type="curve" smooth="yes"/>
      <point x="344.26166989999996" y="135.00000000000003"/>
      <point x="229.99999999999997" y="249.26166990000002"/>
      <point x="230.0" y="390.00000000000006" type="curve"/>
    </contour>
  </outline>
</glyph>
<glyph name="K" format="2">
  <advance width="1020"/>
  <unicode hex="004B"/>
  <outline>
    <contour>
      <point x="142.4193572998047" y="0" type="line"/>
      <point x="293.38710021972656" y="0" type="line"/>
      <point x="293.38710021972656" y="508.06451416015625" type="line"/>
      <point x="795.3567581176758" y="0" type="line"/>
      <point x="1007.5806427001953" y="0" type="line"/>
      <point x="431.0326385498047" y="583.5483856201172" type="line"/>
      <point x="1007.5806427001953" y="1167.0967712402344" type="line"/>
      <point x="795.3567581176758" y="1167.0967712402344" type="line"/>
      <point x="293.38710021972656" y="659.0322570800781" type="line"/>
      <point x="293.38710021972656" y="1167.0967712402344" type="line"/>
      <point x="142.4193572998047" y="1167.0967712402344" type="line"/>
    </contour>
  </outline>
</glyph>
<glyph name="L" format="2">
  <advance width="1020"/>
  <unicode hex="004C"/>
  <outline>
    <contour>
      <point x="153.28358459472656" y="0" type="line"/>
      <point x="886.7164154052734" y="0" type="line"/>
      <point x="886.7164154052734" y="151.3432846069336" type="line"/>
      <point x="304.62686920166016" y="151.3432846069336" type="line"/>
      <point x="304.62686920166016" y="1170" type="line"/>
      <point x="153.28358459472656" y="1170" type="line"/>
    </contour>
  </outline>
</glyph>
<glyph name="M" format="2">
  <advance width="1020"/>
  <unicode hex="004D"/>
  <outline>
    <contour>
      <point x="85.07462310791016" y="0" type="line"/>
      <point x="236.41790771484375" y="0" type="line"/>
      <point x="236.41790771484375" y="833.2611999511719" type="line"/>
      <point x="434.32836151123047" y="392.9104461669922" type="line"/>
      <point x="585.6716384887695" y="392.9104461669922" type="line"/>
      <point x="783.5820922851562" y="833.2611999511719" type="line"/>
      <point x="783.5820922851562" y="0" type="line"/>
      <point x="934.9253768920898" y="0" type="line"/>
      <point x="934.9253768920898" y="1170" type="line"/>
      <point x="768.9993743896484" y="1170" type="line"/>
      <point x="510" y="593.7263870239258" type="line"/>
      <point x="251.00062561035156" y="1170" type="line"/>
      <point x="85.07462310791016" y="1170" type="line"/>
    </contour>
  </outline>
</glyph>
<glyph name="N" format="2">
  <advance width="1020"/>
  <unicode hex="004E"/>
  <outline>
    <contour>
      <point x="114.1791000366211" y="0" type="line"/>
      <point x="265.5223922729492" y="0" type="line"/>
      <point x="265.5223922729492" y="864.4422836303711" type="line"/>
      <point x="754.4776077270508" y="0" type="line"/>
      <point x="905.8208999633789" y="0" type="line"/>
      <point x="905.8208999633789" y="1170" type="line"/>
      <point x="754.4776077270508" y="1170" type="line"/>
      <point x="754.4776077270508" y="305.5577163696289" type="line"/>
      <point x="265.5223922729492" y="1170" type="line"/>
      <point x="114.1791000366211" y="1170" type="line"/>
    </contour>
  </outline>
</glyph>
<glyph name="P" format="2">
  <advance width="980"/>
  <unicode hex="0050"/>
  <outline>
    <contour>
      <point x="105" y="-15" type="line"/>
      <point x="255" y="-15" type="line"/>
      <point x="255" y="375" type="line"/>
      <point x="510" y="375" type="line"/>
      <point x="733.5255831000001" y="375.0"/>
      <point x="915.0" y="556.4744169"/>
      <point x="915.0" y="780.0" type="curve" smooth="yes"/>
      <point x="915.0" y="1003.5255831"/>
      <point x="733.5255831" y="1185.0"/>
      <point x="510.0" y="1185.0" type="curve"/>
      <point x="105" y="1185" type="line"/>
    </contour>
    <contour>
      <point x="510" y="1035" type="line"/>
      <point x="650.7383301" y="1035.0"/>
      <point x="765.0" y="920.7383301"/>
      <point x="765.0" y="780.0" type="curve" smooth="yes"/>
      <point x="765.0" y="639.2616699"/>
      <point x="650.7383301" y="525.0"/>
      <point x="510.0" y="525.0" type="curve"/>
      <point x="255" y="525" type="line"/>
      <point x="255" y="1035" type="line"/>
    </contour>
  </outline>
</glyph>
<glyph name="Q" format="2">
  <advance width="1020"/>
  <unicode hex="0051"/>
  <outline>
    <contour>
      <point x="789.0298461914062" y="410.37313079833984" type="line"/>
      <point x="789.02985" y="356.7123351818"/>
      <point x="773.8495795301388" y="306.5691043300273"/>
      <point x="747.5529556274414" y="264.02307891845703" type="curve"/>
      <point x="615.8976364135742" y="483.1343307495117" type="line"/>
      <point x="446.39798736572266" y="483.1343307495117" type="line"/>
      <point x="638.8384704589844" y="162.8595962524414" type="line"/>
      <point x="600.2881397456414" y="142.7240908780822"/>
      <point x="556.4626483120801" y="131.34328"/>
      <point x="510.00000000000006" y="131.34328000000002" type="curve" smooth="yes"/>
      <point x="355.99923" y="131.34328"/>
      <point x="230.97015" y="256.37237"/>
      <point x="230.97015" y="410.37313" type="curve"/>
      <point x="230.97015380859375" y="759.6268692016602" type="line"/>
      <point x="230.97015" y="913.62763"/>
      <point x="355.99923" y="1038.65672"/>
      <point x="510.0" y="1038.65672" type="curve" smooth="yes"/>
      <point x="664.00077" y="1038.65672"/>
      <point x="789.02985" y="913.62763"/>
      <point x="789.02985" y="759.62687" type="curve"/>
    </contour>
    <contour>
      <point x="79.62686920166016" y="410.37313079833984" type="line"/>
      <point x="79.62687" y="172.84374"/>
      <point x="272.4706" y="-20.0"/>
      <point x="510.0" y="-20.0" type="curve" smooth="yes"/>
      <point x="584.9640411106" y="-20.0"/>
      <point x="655.477267550899" y="-0.7922372638094437"/>
      <point x="716.8826370239258" y="32.9722900390625" type="curve"/>
      <point x="736.6943893432617" y="0" type="line"/>
      <point x="906.1940307617188" y="0" type="line"/>
      <point x="831.4706344604492" y="124.3606185913086" type="line"/>
      <point x="899.2002098846915" y="200.40566270683587"/>
      <point x="940.3731300000001" y="300.61911240965"/>
      <point x="940.37313" y="410.37313" type="curve"/>
      <point x="940.3731307983398" y="759.6268692016602" type="line"/>
      <point x="940.37313" y="997.15626"/>
      <point x="747.5294" y="1190.0"/>
      <point x="510.0" y="1190.0" type="curve" smooth="yes"/>
      <point x="272.4706" y="1190.0"/>
      <point x="79.62687" y="997.15626"/>
      <point x="79.62687" y="759.62687" type="curve"/>
    </contour>
  </outline>
</glyph>
<glyph name="R" format="2">
  <advance width="1020"/>
  <unicode hex="0052"/>
  <outline>
    <contour>
      <point x="127.76119232177734" y="0" type="line"/>
      <point x="279.10447692871094" y="0" type="line"/>
      <point x="279.10447692871094" y="407.4626922607422" type="line"/>
      <point x="517.1364288330078" y="407.4626922607422" type="line"/>
      <point x="777.6138763427734" y="0" type="line"/>
      <point x="957.2388076782227" y="0" type="line"/>
      <point x="679.4422912597656" y="434.5547637939453" type="line"/>
      <point x="819.9974506265252" y="490.73758779710226"/>
      <point x="919.40299" y="628.2173587358"/>
      <point x="919.40299" y="788.7313399999999" type="curve" smooth="yes"/>
      <point x="919.40299" y="999.15924"/>
      <point x="748.56223" y="1170.0"/>
      <point x="538.13433" y="1170.0" type="curve"/>
      <point x="127.76119232177734" y="1170" type="line"/>
    </contour>
    <contour>
      <point x="538.1343307495117" y="1018.6567230224609" type="line"/>
      <point x="665.0336" y="1018.65672"/>
      <point x="768.0597" y="915.63061"/>
      <point x="768.0597" y="788.73134" type="curve" smooth="yes"/>
      <point x="768.0597" y="661.83208"/>
      <point x="665.0336" y="558.80597"/>
      <point x="538.13433" y="558.80597" type="curve"/>
      <point x="279.10447692871094" y="558.8059692382812" type="line"/>
      <point x="279.10447692871094" y="1018.6567230224609" type="line"/>
    </contour>
  </outline>
</glyph>
<glyph name="T" format="2">
  <advance width="1020"/>
  <unicode hex="0054"/>
  <outline>
    <contour>
      <point x="434.32836151123047" y="0" type="line"/>
      <point x="585.6716384887695" y="0" type="line"/>
      <point x="585.6716384887695" y="1018.6567153930664" type="line"/>
      <point x="927.6492538452148" y="1018.6567153930664" type="line"/>
      <point x="927.6492538452148" y="1170" type="line"/>
      <point x="92.35074615478516" y="1170" type="line"/>
      <point x="92.35074615478516" y="1018.6567153930664" type="line"/>
      <point x="434.32836151123047" y="1018.6567153930664" type="line"/>
    </contour>
  </outline>
</glyph>
<glyph name="U" format="2">
  <advance width="1020"/>
  <unicode hex="0055"/>
  <outline>
    <contour>
      <point x="104.47760772705078" y="385.5223922729492" type="line"/>
      <point x="104.47761" y="161.70849"/>
      <point x="286.1861" y="-20.0"/>
      <point x="510.0" y="-20.0" type="curve" smooth="yes"/>
      <point x="733.8139" y="-20.0"/>
      <point x="915.52239" y="161.70849"/>
      <point x="915.52239" y="385.52239" type="curve"/>
      <point x="915.5223922729492" y="1170" type="line"/>
      <point x="764.1791000366211" y="1170" type="line"/>
      <point x="764.1791000366211" y="385.5223922729492" type="line"/>
      <point x="764.1791" y="245.23712"/>
      <point x="650.28527" y="131.34328"/>
      <point x="510.0" y="131.34328" type="curve" smooth="yes"/>
      <point x="369.71473" y="131.34328"/>
      <point x="255.8209" y="245.23712"/>
      <point x="255.8209" y="385.52239" type="curve"/>
      <point x="255.8208999633789" y="1170" type="line"/>
      <point x="104.47760772705078" y="1170" type="line"/>
    </contour>
  </outline>
</glyph>
<glyph name="V" format="2">
  <advance width="1020"/>
  <unicode hex="0056"/>
  <outline>
    <contour>
      <point x="430.3743667602539" y="0" type="line"/>
      <point x="589.6256332397461" y="0" type="line"/>
      <point x="972.7611923217773" y="1170" type="line"/>
      <point x="813.5099258422852" y="1170" type="line"/>
      <point x="510" y="243.15673065185547" type="line"/>
      <point x="206.49007415771484" y="1170" type="line"/>
      <point x="47.238807678222656" y="1170" type="line"/>
    </contour>
  </outline>
</glyph>
<glyph name="W" format="2">
  <advance width="1020"/>
  <unicode hex="0057"/>
  <outline>
    <contour>
      <point x="233.6446304321289" y="0" type="line"/>
      <point x="386.8080520629883" y="0" type="line"/>
      <point x="510" y="719.6991119384766" type="line"/>
      <point x="633.1919479370117" y="0" type="line"/>
      <point x="786.3553695678711" y="0" type="line"/>
      <point x="986.129035949707" y="1167.0967712402344" type="line"/>
      <point x="832.9656066894531" y="1167.0967712402344" type="line"/>
      <point x="709.7736587524414" y="447.3976593017578" type="line"/>
      <point x="586.5817108154297" y="1167.0967712402344" type="line"/>
      <point x="433.4182891845703" y="1167.0967712402344" type="line"/>
      <point x="310.2263412475586" y="447.3976593017578" type="line"/>
      <point x="187.03439331054688" y="1167.0967712402344" type="line"/>
      <point x="33.87096405029297" y="1167.0967712402344" type="line"/>
    </contour>
  </outline>
</glyph>
<glyph name="X" format="2">
  <advance width="1020"/>
  <unicode hex="0058"/>
  <outline>
    <contour>
      <point x="77.41935729980469" y="0" type="line"/>
      <point x="252.78408813476562" y="0" type="line"/>
      <point x="510" y="435.1947784423828" type="line"/>
      <point x="767.2159118652344" y="0" type="line"/>
      <point x="942.5806427001953" y="0" type="line"/>
      <point x="597.6823654174805" y="583.5483856201172" type="line"/>
      <point x="942.5806427001953" y="1167.0967712402344" type="line"/>
      <point x="767.2159118652344" y="1167.0967712402344" type="line"/>
      <point x="510" y="731.9019927978516" type="line"/>
      <point x="252.78408813476562" y="1167.0967712402344" type="line"/>
      <point x="77.41935729980469" y="1167.0967712402344" type="line"/>
      <point x="422.31763458251953" y="583.5483856201172" type="line"/>
    </contour>
  </outline>
</glyph>
<glyph name="Y" format="2">
  <advance width="1020"/>
  <unicode hex="0059"/>
  <outline>
    <contour>
      <point x="434.32836151123047" y="0" type="line"/>
      <point x="585.6716384887695" y="0" type="line"/>
      <point x="585.6716384887695" y="465.67163848876953" type="line"/>
      <point x="958.2089538574219" y="1170" type="line"/>
      <point x="786.9994735717773" y="1170" type="line"/>
      <point x="510" y="646.2978668212891" type="line"/>
      <point x="233.00052642822266" y="1170" type="line"/>
      <point x="61.791046142578125" y="1170" type="line"/>
      <point x="434.32836151123047" y="465.67163848876953" type="line"/>
    </contour>
  </outline>
</glyph>
<glyph name="Z" format="2">
  <advance width="980"/>
  <unicode hex="005A"/>
  <outline>
    <contour>
      <point x="85" y="-15" type="line"/>
      <point x="895" y="-15" type="line"/>
      <point x="895" y="135" type="line"/>
      <point x="267.82840728759766" y="135" type="line"/>
      <point x="895" y="1035" type="line"/>
      <point x="895" y="1185" type="line"/>
      <point x="85" y="1185" type="line"/>
      <point x="85" y="1035" type="line"/>
      <point x="712.1715927124023" y="1035" type="line"/>
      <point x="85" y="135" type="line"/>
    </contour>
  </outline>
</glyph>
<glyph name="bracketleft" format="2">
  <advance width="1020"/>
  <unicode hex="005B"/>
  <outline>
    <contour>
      <point x="295.3225784301758" y="-150.96774291992188" type="line"/>
      <point x="794.6774215698242" y="-150.96774291992188" type="line"/>
      <point x="794.6774215698242" y="0" type="line"/>
      <point x="446.29032135009766" y="0" type="line"/>
      <point x="446.29032135009766" y="1167.0967712402344" type="line"/>
      <point x="794.6774215698242" y="1167.0967712402344" type="line"/>
      <point x="794.6774215698242" y="1318.0645141601562" type="line"/>
      <point x="295.3225784301758" y="1318.0645141601562" type="line"/>
    </contour>
  </outline>
</glyph>
<glyph name="backslash" format="2">
  <advance width="1020"/>
  <unicode hex="005C"/>
  <outline>
    <contour>
      <point x="815.9928914365123" y="0.0" type="line"/>
      <point x="335.06326696506596" y="1321.3432835820895" type="line"/>
      <point x="174.00710856348763" y="1321.3432835820895" type="line"/>
      <point x="654.9367330349339" y="0.0" type="line"/>
    </contour>
  </outline>
</glyph>
<glyph name="bracketright" format="2">
  <advance width="1020"/>
  <unicode hex="005D"/>
  <outline>
    <contour>
      <point x="724.6774215698242" y="-150.96774291992188" type="line"/>
      <point x="724.6774215698242" y="1318.0645141601562" type="line"/>
      <point x="225.32257843017578" y="1318.0645141601562" type="line"/>
      <point x="225.32257843017578" y="1167.0967712402344" type="line"/>
      <point x="573.7096786499023" y="1167.0967712402344" type="line"/>
      <point x="573.7096786499023" y="0" type="line"/>
      <point x="225.32257843017578" y="0" type="line"/>
      <point x="225.32257843017578" y="-150.96774291992188" type="line"/>
    </contour>
  </outline>
</glyph>
<glyph name="asciicircum" format="2">
  <advance width="1020"/>
  <unicode hex="005E"/>
  <outline>
    <contour>
      <point x="224.776123046875" y="669.4029922485352" type="line"/>
      <point x="388.15071868896484" y="669.4029922485352" type="line"/>
      <point x="510" y="969.0905685424805" type="line"/>
      <point x="631.8492813110352" y="669.4029922485352" type="line"/>
      <point x="795.223876953125" y="669.4029922485352" type="line"/>
      <point x="591.6873016357422" y="1170" type="line"/>
      <point x="428.3126983642578" y="1170" type="line"/>
    </contour>
  </outline>
</glyph>
<glyph name="underscore" format="2">
  <advance width="1020"/>
  <unicode hex="005F"/>
  <outline>
    <contour>
      <point x="99.62686567164178" y="-192.08955223880596" type="line"/>
      <point x="920.3731343283582" y="-192.08955223880596" type="line"/>
      <point x="920.3731343283582" y="-40.74626865671642" type="line"/>
      <point x="99.62686567164178" y="-40.74626865671642" type="line"/>
    </contour>
  </outline>
</glyph>
<glyph name="grave" format="2">
  <advance width="1020"/>
  <unicode hex="0060"/>
  <outline>
    <contour>
      <point x="642.2152715338946" y="1034.1791044776119" type="line"/>
      <point x="499.5054215133973" y="1286.4179104477612" type="line"/>
      <point x="377.78472846610543" y="1286.4179104477612" type="line"/>
      <point x="520.4945784866027" y="1034.1791044776119" type="line"/>
    </contour>
  </outline>
</glyph>
<glyph name="b" format="2">
  <advance width="980"/>
  <unicode hex="0062"/>
  <outline>
    <contour>
      <point x="95" y="-15" type="line"/>
      <point x="245" y="-15" type="line"/>
      <point x="245" y="75.44212341308594" type="line"/>
      <point x="314.6411537420601" y="18.898220154722317"/>
      <point x="403.3931370865123" y="-15.000000000000021"/>
      <point x="499.9999999999999" y="-15.000000000000028" type="curve" smooth="yes"/>
      <point x="723.5255831" y="-15.000000000000057"/>
      <point x="905.0" y="166.4744168999999"/>
      <point x="905.0" y="390.0" type="curve" smooth="yes"/>
      <point x="905.0" y="613.5255831"/>
      <point x="723.5255831" y="795.0"/>
      <point x="500.0" y="795.0" type="curve" smooth="yes"/>
      <point x="403.3931370865124" y="795.0"/>
      <point x="314.64115374206017" y="761.1017798452777"/>
      <point x="245" y="704.5551605224609" type="curve"/>
      <point x="245" y="1185" type="line"/>
      <point x="95" y="1185" type="line"/>
    </contour>
    <contour>
      <point x="755.0" y="390.0" type="curve" smooth="yes"/>
      <point x="755.0" y="249.2616698999999"/>
      <point x="640.7383301" y="134.99999999999997"/>
      <point x="499.99999999999994" y="135.0" type="curve" smooth="yes"/>
      <point x="359.26166989999996" y="135.00000000000003"/>
      <point x="244.99999999999997" y="249.26166990000002"/>
      <point x="245.0" y="390.0" type="curve" smooth="yes"/>
      <point x="245.0" y="530.7383301"/>
      <point x="359.2616699" y="645.0"/>
      <point x="500.0" y="645.0" type="curve" smooth="yes"/>
      <point x="640.7383301" y="645.0"/>
      <point x="755.0" y="530.7383301"/>
    </contour>
  </outline>
</glyph>
<glyph name="c" format="2">
  <advance width="1020"/>
  <unicode hex="0063"/>
  <outline>
    <contour>
      <point x="524.9848778568098" y="136.34328358208955" type="curve" smooth="yes"/>
      <point x="373.74368730158585" y="136.34328358208955"/>
      <point x="250.9550271105411" y="259.13194377313437"/>
      <point x="250.9550271105411" y="410.3731343283582" type="curve" smooth="yes"/>
      <point x="250.9550271105411" y="561.6143248835821"/>
      <point x="373.7436873015859" y="684.4029850746268"/>
      <point x="524.9848778568098" y="684.4029850746268" type="curve" smooth="yes"/>
      <point x="629.5658925078887" y="684.4029850746268"/>
      <point x="720.5422869378754" y="625.6914023797178"/>
      <point x="766.7232587444248" y="539.4451670860177" type="curve"/>
      <point x="930.3864874768615" y="539.4451670860177" type="line"/>
      <point x="875.6775389071772" y="711.2003991354057"/>
      <point x="714.7610634222499" y="835.7462686567164"/>
      <point x="524.9848778568096" y="835.7462686567164" type="curve" smooth="yes"/>
      <point x="290.21505591651123" y="835.7462686567164"/>
      <point x="99.61174352845154" y="645.1429562686568"/>
      <point x="99.61174352845154" y="410.3731343283582" type="curve" smooth="yes"/>
      <point x="99.61174352845148" y="175.60331238805975"/>
      <point x="290.2150559165112" y="-14.999999999999936"/>
      <point x="524.9848778568097" y="-14.999999999999991" type="curve" smooth="yes"/>
      <point x="714.7631763506474" y="-15.000000000000037"/>
      <point x="875.6811221244309" y="109.54864287212571"/>
      <point x="930.3882564715486" y="281.30110157069873" type="curve"/>
      <point x="766.722126291759" y="281.30110157069873" type="line"/>
      <point x="720.5407081365399" y="195.05384740321864"/>
      <point x="629.5649850607454" y="136.3432835820895"/>
    </contour>
  </outline>
</glyph>
<glyph name="e" format="2">
  <advance width="980"/>
  <unicode hex="0065"/>
  <outline>
    <contour>
      <point x="895.0" y="390.0" type="curve" smooth="yes"/>
      <point x="895.0" y="613.5255831"/>
      <point x="713.5255831" y="795.0"/>
      <point x="490.0" y="795.0" type="curve" smooth="yes"/>
      <point x="266.47441690000005" y="795.0"/>
      <point x="85.0" y="613.5255831000001"/>
      <point x="85.0" y="390.0" type="curve" smooth="yes"/>
      <point x="85.0" y="166.47441690000005"/>
      <point x="266.47441689999994" y="-15.0"/>
      <point x="489.99999999999994" y="-15.0" type="curve" smooth="yes"/>
      <point x="654.7692012751677" y="-15.000000000000043"/>
      <point x="796.6889581440062" y="83.60819508324529"/>
      <point x="859.9146041870117" y="225.0" type="curve"/>
      <point x="684.3518753051758" y="225" type="line"/>
      <point x="637.5628184293737" y="169.94376350778563"/>
      <point x="567.8299854052611" y="134.99999999999997"/>
      <point x="489.99999999999994" y="135.0" type="curve" smooth="yes"/>
      <point x="372.6276104165224" y="135.00000000000003"/>
      <point x="273.67016079670543" y="214.4708160116097"/>
      <point x="244.04679107666016" y="322.5" type="curve"/>
      <point x="889.3808059692383" y="322.5" type="line"/>
      <point x="893.0761956005506" y="344.4169479239882"/>
      <point x="894.9999999999999" y="366.9855824384409"/>
    </contour>
    <contour>
      <point x="490.0" y="645.0" type="curve" smooth="yes"/>
      <point x="603.7219187773438" y="645.0"/>
      <point x="700.156553352893" y="570.3956523967873"/>
      <point x="732.9894943237305" y="467.5" type="curve"/>
      <point x="247.02467346191406" y="467.5" type="line"/>
      <point x="279.87137354826166" y="570.4172555311254"/>
      <point x="376.2945476072779" y="645.0"/>
    </contour>
  </outline>
</glyph>
<glyph name="f" format="2">
  <advance width="980"/>
  <unicode hex="0066"/>
  <outline>
    <contour>
      <point x="335" y="-15" type="line"/>
      <point x="485" y="-15" type="line"/>
      <point x="485" y="645" type="line"/>
      <point x="895" y="645" type="line"/>
      <point x="895" y="795" type="line"/>
      <point x="485" y="795" type="line"/>
      <point x="485" y="840" type="line"/>
      <point x="485.0" y="947.6234289"/>
      <point x="572.3765711" y="1035.0"/>
      <point x="680.0" y="1035.0" type="curve"/>
      <point x="895" y="1035" type="line"/>
      <point x="895" y="1185" type="line"/>
      <point x="680" y="1185" type="line"/>
      <point x="489.5893181" y="1185.0"/>
      <point x="335.0" y="1030.4106819"/>
      <point x="335.0" y="840.0" type="curve"/>
      <point x="335" y="795" type="line"/>
      <point x="85" y="795" type="line"/>
      <point x="85" y="645" type="line"/>
      <point x="335" y="645" type="line"/>
    </contour>
  </outline>
</glyph>
<glyph name="g" format="2">
  <advance width="1020"/>
  <unicode hex="0067"/>
  <outline>
    <contour>
      <point x="84.32836151123047" y="-59.47761535644531" type="line"/>
      <point x="84.32835820895522" y="-291.57023415671637"/>
      <point x="272.7581240522388" y="-479.99999999999994"/>
      <point x="504.85074626865674" y="-480.0" type="curve" smooth="yes"/>
      <point x="736.9433684850746" y="-480.00000000000006"/>
      <point x="925.3731343283582" y="-291.57023415671654"/>
      <point x="925.3731343283582" y="-59.477611940298594" type="curve"/>
      <point x="925.3731307983398" y="820.7462692260742" type="line"/>
      <point x="774.0298538208008" y="820.7462692260742" type="line"/>
      <point x="774.0298538208008" y="735.6234817504883" type="line"/>
      <point x="699.9878141829412" y="798.0852935117142"/>
      <point x="604.3572987808602" y="835.7462686567164"/>
      <point x="500.0000000000002" y="835.7462686567164" type="curve" smooth="yes"/>
      <point x="265.23017805970153" y="835.7462686567164"/>
      <point x="74.62686567164184" y="645.1429562686568"/>
      <point x="74.62686567164184" y="410.3731343283582" type="curve" smooth="yes"/>
      <point x="74.62686567164178" y="175.60331238805975"/>
      <point x="265.2301780597015" y="-14.999999999999936"/>
      <point x="500.0" y="-14.999999999999991" type="curve" smooth="yes"/>
      <point x="604.3572987808601" y="-15.000000000000016"/>
      <point x="699.9878141829411" y="22.660975145002176"/>
      <point x="774.0298538208008" y="85.12190246582031" type="curve"/>
      <point x="774.0298538208008" y="-59.47761535644531" type="line"/>
      <point x="774.0298507462687" y="-208.04160277164186"/>
      <point x="653.4147371000001" y="-328.65671641791045"/>
      <point x="504.85074626865674" y="-328.65671641791045" type="curve" smooth="yes"/>
      <point x="356.28675543731345" y="-328.65671641791045"/>
      <point x="235.67164179104483" y="-208.04160277164178"/>
      <point x="235.67164179104483" y="-59.47761194029849" type="curve"/>
    </contour>
    <contour>
      <point x="774.0298507462687" y="410.3731343283582" type="curve" smooth="yes"/>
      <point x="774.0298507462687" y="259.13194377313425"/>
      <point x="651.241190555224" y="136.3432835820895"/>
      <point x="500.0" y="136.34328358208955" type="curve" smooth="yes"/>
      <point x="348.75880944477615" y="136.34328358208955"/>
      <point x="225.9701492537314" y="259.13194377313437"/>
      <point x="225.9701492537314" y="410.3731343283582" type="curve" smooth="yes"/>
      <point x="225.9701492537314" y="561.6143248835821"/>
      <point x="348.7588094447762" y="684.4029850746268"/>
      <point x="500.00000000000006" y="684.4029850746268" type="curve" smooth="yes"/>
      <point x="651.241190555224" y="684.4029850746268"/>
      <point x="774.0298507462687" y="561.6143248835821"/>
    </contour>
  </outline>
</glyph>
<glyph name="h" format="2">
  <advance width="1020"/>
  <unicode hex="0068"/>
  <outline>
    <contour>
      <point x="122.00746154785156" y="0" type="line"/>
      <point x="273.3507537841797" y="0" type="line"/>
      <point x="273.3507537841797" y="404.0037307739258" type="line"/>
      <point x="273.3507537841797" y="643.4905882243673"/>
      <point x="428.3008208041551" y="689.40299"/>
      <point x="516.0" y="689.40299" type="curve" smooth="yes"/>
      <point x="603.6991791958449" y="689.40299"/>
      <point x="758.6492516664385" y="643.4905874891377"/>
      <point x="758.6492496378908" y="404.00373" type="curve"/>
      <point x="758.6492462158203" y="0" type="line"/>
      <point x="909.9925384521484" y="0" type="line"/>
      <point x="909.9925384521484" y="404.0037307739258" type="line"/>
      <point x="909.9925384521484" y="734.2130015549246"/>
      <point x="679.8115194867573" y="840.74627"/>
      <point x="516.0" y="840.74627" type="curve" smooth="yes"/>
      <point x="424.5070918487999" y="840.74627"/>
      <point x="340.25629924956684" y="809.492469968625"/>
      <point x="273.3507537841797" y="757.0846710205078" type="curve"/>
      <point x="273.3507537841797" y="1170" type="line"/>
      <point x="122.00746154785156" y="1170" type="line"/>
    </contour>
  </outline>
</glyph>
<glyph name="i" format="2">
  <advance width="1020"/>
  <unicode hex="0069"/>
  <outline>
    <contour>
      <point x="650.5970149253731" y="1047.7611940298507" type="curve" smooth="yes"/>
      <point x="650.5970149253731" y="1108.8013477343284"/>
      <point x="601.0401537044777" y="1158.358208955224"/>
      <point x="540.0" y="1158.358208955224" type="curve" smooth="yes"/>
      <point x="478.95984629552237" y="1158.358208955224"/>
      <point x="429.4029850746269" y="1108.8013477343284"/>
      <point x="429.4029850746269" y="1047.7611940298507" type="curve" smooth="yes"/>
      <point x="429.4029850746269" y="986.7210403253731"/>
      <point x="478.95984629552237" y="937.1641791044776"/>
      <point x="540.0" y="937.1641791044776" type="curve" smooth="yes"/>
      <point x="601.0401537044777" y="937.1641791044776"/>
      <point x="650.5970149253731" y="986.7210403253731"/>
    </contour>
    <contour>
      <point x="173.28358459472656" y="0" type="line"/>
      <point x="906.7164154052734" y="0" type="line"/>
      <point x="906.7164154052734" y="151.3432846069336" type="line"/>
      <point x="644.776123046875" y="151.3432846069336" type="line"/>
      <point x="644.776123046875" y="820.7462692260742" type="line"/>
      <point x="202.3880615234375" y="820.7462692260742" type="line"/>
      <point x="202.3880615234375" y="669.4029846191406" type="line"/>
      <point x="493.4328384399414" y="669.4029846191406" type="line"/>
      <point x="493.4328384399414" y="151.3432846069336" type="line"/>
      <point x="173.28358459472656" y="151.3432846069336" type="line"/>
    </contour>
  </outline>
</glyph>
<glyph name="j" format="2">
  <advance width="980"/>
  <unicode hex="006A"/>
  <outline>
    <contour>
      <point x="733.0" y="1026.0" type="curve" smooth="yes"/>
      <point x="733.0" y="1087.26256722"/>
      <point x="683.26256722" y="1137.0"/>
      <point x="622.0" y="1137.0" type="curve" smooth="yes"/>
      <point x="560.7374327800001" y="1137.0"/>
      <point x="511.0" y="1087.26256722"/>
      <point x="511.0" y="1026.0" type="curve" smooth="yes"/>
      <point x="511.0" y="964.7374327800001"/>
      <point x="560.7374327800001" y="915.0"/>
      <point x="622.0" y="915.0" type="curve" smooth="yes"/>
      <point x="683.2625672199999" y="915.0"/>
      <point x="733.0" y="964.73743278"/>
    </contour>
    <contour>
      <point x="137" y="-340" type="line"/>
      <point x="372" y="-340" type="line"/>
      <point x="551.3723815000001" y="-340.0"/>
      <point x="697.0" y="-194.3723815"/>
      <point x="697.0" y="-14.99999999999998" type="curve"/>
      <point x="697" y="795" type="line"/>
      <point x="257" y="795" type="line"/>
      <point x="257" y="645" type="line"/>
      <point x="547" y="645" type="line"/>
      <point x="547" y="-15" type="line"/>
      <point x="547.0" y="-111.5851285"/>
      <point x="468.5851285" y="-190.0"/>
      <point x="372.0" y="-190.0" type="curve"/>
      <point x="137" y="-190" type="line"/>
    </contour>
  </outline>
</glyph>
<glyph name="k" format="2">
  <advance width="980"/>
  <unicode hex="006B"/>
  <outline>
    <contour>
      <point x="150" y="-15" type="line"/>
      <point x="300" y="-15" type="line"/>
      <point x="300" y="315" type="line"/>
      <point x="695.772087097168" y="-15" type="line"/>
      <point x="930" y="-15" type="line"/>
      <point x="444.2797088623047" y="390" type="line"/>
      <point x="930" y="795" type="line"/>
      <point x="695.772087097168" y="795" type="line"/>
      <point x="300" y="465" type="line"/>
      <point x="300" y="1185" type="line"/>
      <point x="150" y="1185" type="line"/>
    </contour>
  </outline>
</glyph>
<glyph name="l" format="2">
  <advance width="1020"/>
  <unicode hex="006C"/>
  <outline>
    <contour>
      <point x="153.28358459472656" y="0" type="line"/>
      <point x="886.7164154052734" y="0" type="line"/>
      <point x="886.7164154052734" y="151.3432846069336" type="line"/>
      <point x="624.776123046875" y="151.3432846069336" type="line"/>
      <point x="624.776123046875" y="1170" type="line"/>
      <point x="182.3880615234375" y="1170" type="line"/>
      <point x="182.3880615234375" y="1018.6567153930664" type="line"/>
      <point x="473.4328384399414" y="1018.6567153930664" type="line"/>
      <point x="473.4328384399414" y="151.3432846069336" type="line"/>
      <point x="153.28358459472656" y="151.3432846069336" type="line"/>
    </contour>
  </outline>
</glyph>
<glyph name="m" format="2">
  <advance width="1020"/>
  <unicode hex="006D"/>
  <outline>
    <contour>
      <point x="75.52238464355469" y="0" type="line"/>
      <point x="226.86566925048828" y="0" type="line"/>
      <point x="226.86566925048828" y="578.1716384887695" type="line"/>
      <point x="226.86567164179104" y="636.8023157440299"/>
      <point x="274.4663409723881" y="684.4029850746268"/>
      <point x="333.0970149253731" y="684.4029850746268" type="curve" smooth="yes"/>
      <point x="391.7276888783582" y="684.4029850746268"/>
      <point x="439.32835820895525" y="636.8023157440299"/>
      <point x="439.32835820895525" y="578.1716417910447" type="curve"/>
      <point x="439.32836151123047" y="0" type="line"/>
      <point x="590.6716384887695" y="0" type="line"/>
      <point x="590.6716384887695" y="578.1716384887695" type="line"/>
      <point x="590.6716417910447" y="636.8023157440299"/>
      <point x="638.2723111216418" y="684.4029850746268"/>
      <point x="696.9029850746268" y="684.4029850746268" type="curve" smooth="yes"/>
      <point x="755.533659027612" y="684.4029850746268"/>
      <point x="803.134328358209" y="636.8023157440299"/>
      <point x="803.134328358209" y="578.1716417910447" type="curve"/>
      <point x="803.1343307495117" y="0" type="line"/>
      <point x="954.4776153564453" y="0" type="line"/>
      <point x="954.4776153564453" y="578.1716384887695" type="line"/>
      <point x="954.4776119402985" y="720.3309471291045"/>
      <point x="839.0622904126866" y="835.7462686567164"/>
      <point x="696.9029850746268" y="835.7462686567164" type="curve" smooth="yes"/>
      <point x="625.9204272111429" y="835.7462686567164"/>
      <point x="561.6056116351026" y="806.9712130994388"/>
      <point x="514.997200012207" y="760.4543533325195" type="curve"/>
      <point x="468.38923613101684" y="806.9735182065567"/>
      <point x="404.07672960275033" y="835.7462686567164"/>
      <point x="333.0970149253731" y="835.7462686567164" type="curve" smooth="yes"/>
      <point x="295.23046724039017" y="835.7462686567164"/>
      <point x="259.2614420783948" y="827.5573924724981"/>
      <point x="226.86566925048828" y="812.842658996582" type="curve"/>
      <point x="226.86566925048828" y="820.7462692260742" type="line"/>
      <point x="75.52238464355469" y="820.7462692260742" type="line"/>
    </contour>
  </outline>
</glyph>
<glyph name="n" format="2">
  <advance width="980"/>
  <unicode hex="006E"/>
  <outline>
    <contour>
      <point x="90" y="-15" type="line"/>
      <point x="240" y="-15" type="line"/>
      <point x="240" y="390" type="line"/>
      <point x="240.0" y="530.7383301"/>
      <point x="354.2616699" y="645.0"/>
      <point x="495.0" y="645.0" type="curve" smooth="yes"/>
      <point x="635.7383301" y="645.0"/>
      <point x="750.0" y="530.7383301"/>
      <point x="750.0" y="390.0" type="curve"/>
      <point x="750" y="-15" type="line"/>
      <point x="900" y="-15" type="line"/>
      <point x="900" y="390" type="line"/>
      <point x="900.0" y="613.5255831"/>
      <point x="718.5255831" y="795.0"/>
      <point x="495.0" y="795.0" type="curve" smooth="yes"/>
      <point x="398.3931370865124" y="795.0"/>
      <point x="309.64115374206017" y="761.1017798452777"/>
      <point x="240" y="704.5551605224609" type="curve"/>
      <point x="240" y="795" type="line"/>
      <point x="90" y="795" type="line"/>
    </contour>
  </outline>
</glyph>
<glyph name="o" format="2">
  <advance width="980"/>
  <unicode hex="006F"/>
  <outline>
    <contour>
      <point x="895.0" y="390.0" type="curve" smooth="yes"/>
      <point x="895.0" y="613.5255831"/>
      <point x="713.5255831" y="795.0"/>
      <point x="490.0" y="795.0" type="curve" smooth="yes"/>
      <point x="266.47441690000005" y="795.0"/>
      <point x="85.0" y="613.5255831000001"/>
      <point x="85.0" y="390.0" type="curve" smooth="yes"/>
      <point x="85.0" y="166.47441690000005"/>
      <point x="266.47441689999994" y="-15.0"/>
      <point x="489.99999999999994" y="-15.0" type="curve" smooth="yes"/>
      <point x="713.5255831" y="-15.000000000000057"/>
      <point x="895.0" y="166.4744168999999"/>
    </contour>
    <contour>
      <point x="745.0" y="390.0" type="curve" smooth="yes"/>
      <point x="745.0" y="249.2616698999999"/>
      <point x="630.7383301" y="134.99999999999997"/>
      <point x="489.99999999999994" y="135.0" type="curve" smooth="yes"/>
      <point x="349.26166989999996" y="135.00000000000003"/>
      <point x="234.99999999999997" y="249.26166990000002"/>
      <point x="235.0" y="390.0" type="curve" smooth="yes"/>
      <point x="235.0" y="530.7383301"/>
      <point x="349.2616699" y="645.0"/>
      <point x="490.0" y="645.0" type="curve" smooth="yes"/>
      <point x="630.7383301" y="645.0"/>
      <point x="745.0" y="530.7383301"/>
    </contour>
  </outline>
</glyph>
<glyph name="p" format="2">
  <advance width="1020"/>
  <unicode hex="0070"/>
  <outline>
    <contour>
      <point x="95.6451644897461" y="-480" type="line"/>
      <point x="246.61289978027344" y="-480" type="line"/>
      <point x="246.61289978027344" y="84.89959716796875" type="line"/>
      <point x="320.4797738999008" y="22.57521426654656"/>
      <point x="415.88643149569253" y="-14.999999999999972"/>
      <point x="520.0" y="-15.0" type="curve" smooth="yes"/>
      <point x="754.2078092935485" y="-15.000000000000055"/>
      <point x="944.3548387096776" y="175.14702941612893"/>
      <point x="944.3548387096776" y="409.35483870967744" type="curve" smooth="yes"/>
      <point x="944.3548387096776" y="643.5626480032258"/>
      <point x="754.2078092935485" y="833.7096774193549"/>
      <point x="520.0" y="833.7096774193549" type="curve" smooth="yes"/>
      <point x="415.8864314956925" y="833.7096774193549"/>
      <point x="320.47977389990075" y="796.1344631528084"/>
      <point x="246.61289978027344" y="733.811767578125" type="curve"/>
      <point x="246.61289978027344" y="818.7096786499023" type="line"/>
      <point x="95.6451644897461" y="818.7096786499023" type="line"/>
    </contour>
    <contour>
      <point x="793.3870967741937" y="409.35483870967744" type="curve" smooth="yes"/>
      <point x="793.3870967741937" y="258.4683937258064"/>
      <point x="670.8864449838709" y="135.96774193548382"/>
      <point x="520.0" y="135.96774193548387" type="curve" smooth="yes"/>
      <point x="369.113555016129" y="135.96774193548387"/>
      <point x="246.6129032258065" y="258.4683937258065"/>
      <point x="246.6129032258065" y="409.35483870967744" type="curve" smooth="yes"/>
      <point x="246.6129032258065" y="560.2412836935484"/>
      <point x="369.1135550161291" y="682.741935483871"/>
      <point x="520.0" y="682.741935483871" type="curve" smooth="yes"/>
      <point x="670.8864449838711" y="682.741935483871"/>
      <point x="793.3870967741937" y="560.2412836935484"/>
    </contour>
  </outline>
</glyph>
<glyph name="q" format="2">
  <advance width="1020"/>
  <unicode hex="0071"/>
  <outline>
    <contour>
      <point x="774.0298538208008" y="-480" type="line"/>
      <point x="925.3731307983398" y="-480" type="line"/>
      <point x="925.3731307983398" y="820.7462692260742" type="line"/>
      <point x="774.0298538208008" y="820.7462692260742" type="line"/>
      <point x="774.0298538208008" y="735.6234817504883" type="line"/>
      <point x="699.9878141829412" y="798.0852935117142"/>
      <point x="604.3572987808602" y="835.7462686567164"/>
      <point x="500.0000000000002" y="835.7462686567164" type="curve" smooth="yes"/>
      <point x="265.23017805970153" y="835.7462686567164"/>
      <point x="74.62686567164184" y="645.1429562686568"/>
      <point x="74.62686567164184" y="410.3731343283582" type="curve" smooth="yes"/>
      <point x="74.62686567164178" y="175.60331238805975"/>
      <point x="265.2301780597015" y="-14.999999999999936"/>
      <point x="500.0" y="-14.999999999999991" type="curve" smooth="yes"/>
      <point x="604.3572987808601" y="-15.000000000000016"/>
      <point x="699.9878141829411" y="22.660975145002176"/>
      <point x="774.0298538208008" y="85.12190246582031" type="curve"/>
    </contour>
    <contour>
      <point x="774.0298507462687" y="410.3731343283582" type="curve" smooth="yes"/>
      <point x="774.0298507462687" y="259.13194377313425"/>
      <point x="651.241190555224" y="136.3432835820895"/>
      <point x="500.0" y="136.34328358208955" type="curve" smooth="yes"/>
      <point x="348.75880944477615" y="136.34328358208955"/>
      <point x="225.9701492537314" y="259.13194377313437"/>
      <point x="225.9701492537314" y="410.3731343283582" type="curve" smooth="yes"/>
      <point x="225.9701492537314" y="561.6143248835821"/>
      <point x="348.7588094447762" y="684.4029850746268"/>
      <point x="500.00000000000006" y="684.4029850746268" type="curve" smooth="yes"/>
      <point x="651.241190555224" y="684.4029850746268"/>
      <point x="774.0298507462687" y="561.6143248835821"/>
    </contour>
  </outline>
</glyph>
<glyph name="r" format="2">
  <advance width="1020"/>
  <unicode hex="0072"/>
  <outline>
    <contour>
      <point x="148.87096405029297" y="0" type="line"/>
      <point x="613.3871002197266" y="0" type="line"/>
      <point x="613.3871002197266" y="150.96774291992188" type="line"/>
      <point x="413.06451416015625" y="150.96774291992188" type="line"/>
      <point x="413.06451416015625" y="298.6175079345703" type="line"/>
      <point x="413.06451612903226" y="502.34282535483874"/>
      <point x="578.4636262580646" y="667.741935483871"/>
      <point x="782.1889400921659" y="667.741935483871" type="curve"/>
      <point x="921.129035949707" y="667.7419357299805" type="line"/>
      <point x="921.129035949707" y="818.7096786499023" type="line"/>
      <point x="782.1889419555664" y="818.7096786499023" type="line"/>
      <point x="637.9344931310443" y="818.7096774193549"/>
      <point x="507.3182351160866" y="759.8532268085481"/>
      <point x="413.06451416015625" y="664.8560104370117" type="curve"/>
      <point x="413.06451416015625" y="818.7096786499023" type="line"/>
      <point x="148.87096405029297" y="818.7096786499023" type="line"/>
      <point x="148.87096405029297" y="667.7419357299805" type="line"/>
      <point x="262.0967712402344" y="667.7419357299805" type="line"/>
      <point x="262.0967712402344" y="150.96774291992188" type="line"/>
      <point x="148.87096405029297" y="150.96774291992188" type="line"/>
    </contour>
  </outline>
</glyph>
<glyph name="s" format="2">
  <advance width="980"/>
  <unicode hex="0073"/>
  <outline>
    <contour>
      <point x="100" y="227.5" type="line"/>
      <point x="100.0" y="93.66060765000003"/>
      <point x="272.51271729999996" y="-15.0"/>
      <point x="484.99999999999994" y="-15.000000000000028" type="curve" smooth="yes"/>
      <point x="697.4872826999999" y="-15.000000000000057"/>
      <point x="870.0" y="93.66060764999992"/>
      <point x="870.0" y="227.49999999999994" type="curve"/>
      <point x="870.0" y="344.5772130126937"/>
      <point x="737.8248347176452" y="441.12452411073554"/>
      <point x="562.6951065063477" y="465.0431671142578" type="curve"/>
      <point x="429.38468170166016" y="483.2502670288086" type="line"/>
      <point x="346.2064278342954" y="494.6104797135988"/>
      <point x="285.0" y="524.926450551355"/>
      <point x="285.0" y="562.5" type="curve"/>
      <point x="285.0" y="608.03298915"/>
      <point x="374.61699600000003" y="645.0"/>
      <point x="485.0" y="645.0" type="curve" smooth="yes"/>
      <point x="595.383004" y="645.0"/>
      <point x="685.0" y="608.03298915"/>
      <point x="685.0" y="562.5" type="curve"/>
      <point x="855" y="562.5" type="line"/>
      <point x="855.0" y="690.82024215"/>
      <point x="689.2085574" y="795.0"/>
      <point x="485.0" y="795.0" type="curve" smooth="yes"/>
      <point x="280.7914426" y="795.0"/>
      <point x="115.0" y="690.82024215"/>
      <point x="115.0" y="562.5" type="curve"/>
      <point x="115.0" y="450.2886960887846"/>
      <point x="241.94413279873382" y="357.78350754859775"/>
      <point x="410.16111755371094" y="334.7677459716797" type="curve"/>
      <point x="543.4673843383789" y="316.5285339355469" type="line"/>
      <point x="633.5781081091807" y="304.1994166537622"/>
      <point x="700.0" y="269.8343739303153"/>
      <point x="700.0" y="227.49999999999994" type="curve"/>
      <point x="700.0" y="176.44786064999997"/>
      <point x="603.6617292999999" y="135.0"/>
      <point x="485.0" y="135.0" type="curve" smooth="yes"/>
      <point x="366.33827069999995" y="135.0"/>
      <point x="270.0" y="176.44786065000002"/>
      <point x="270.0" y="227.50000000000003" type="curve"/>
    </contour>
  </outline>
</glyph>
<glyph name="t" format="2">
  <advance width="1020"/>
  <unicode hex="0074"/>
  <outline>
    <contour>
      <point x="318.28357696533203" y="360.9589614868164" type="line"/>
      <point x="318.28357696533203" y="18.074643911319868"/>
      <point x="574.9406452050875" y="7.537933094204411e-15"/>
      <point x="679.24254" y="-5.235365066354935e-15" type="curve"/>
      <point x="869.8134307861328" y="0" type="line"/>
      <point x="869.8134307861328" y="151.34327697753906" type="line"/>
      <point x="679.2425384521484" y="151.34327697753906" type="line"/>
      <point x="481.4810655296509" y="151.3432769775391"/>
      <point x="469.6268701258534" y="262.845367574659"/>
      <point x="469.62686990282003" y="360.95896" type="curve"/>
      <point x="469.62686920166016" y="669.4029922485352" type="line"/>
      <point x="869.8134307861328" y="669.4029922485352" type="line"/>
      <point x="869.8134307861328" y="820.7462692260742" type="line"/>
      <point x="469.62686920166016" y="820.7462692260742" type="line"/>
      <point x="469.62686920166016" y="1036.9509582519531" type="line"/>
      <point x="318.28357696533203" y="1036.9509582519531" type="line"/>
      <point x="318.28357696533203" y="820.7462692260742" type="line"/>
      <point x="110.18656921386719" y="820.7462692260742" type="line"/>
      <point x="110.18656921386719" y="669.4029922485352" type="line"/>
      <point x="318.28357696533203" y="669.4029922485352" type="line"/>
    </contour>
  </outline>
</glyph>
<glyph name="v" format="2">
  <advance width="1020"/>
  <unicode hex="0076"/>
  <outline>
    <contour>
      <point x="427.50707244873047" y="0" type="line"/>
      <point x="592.4929275512695" y="0" type="line"/>
      <point x="948.75" y="820.7462692260742" type="line"/>
      <point x="783.7641372680664" y="820.7462692260742" type="line"/>
      <point x="510" y="190.04749298095703" type="line"/>
      <point x="236.2358627319336" y="820.7462692260742" type="line"/>
      <point x="71.25" y="820.7462692260742" type="line"/>
    </contour>
  </outline>
</glyph>
<glyph name="w" format="2">
  <advance width="980"/>
  <unicode hex="0077"/>
  <outline>
    <contour>
      <point x="226.51863861083984" y="-15" type="line"/>
      <point x="380.444091796875" y="-15" type="line"/>
      <point x="490" y="460.7716751098633" type="line"/>
      <point x="599.555908203125" y="-15" type="line"/>
      <point x="753.4813613891602" y="-15" type="line"/>
      <point x="940" y="795" type="line"/>
      <point x="786.0745468139648" y="795" type="line"/>
      <point x="676.5186386108398" y="319.22830963134766" type="line"/>
      <point x="566.9627304077148" y="795" type="line"/>
      <point x="413.03726959228516" y="795" type="line"/>
      <point x="303.48136138916016" y="319.22830963134766" type="line"/>
      <point x="193.92545318603516" y="795" type="line"/>
      <point x="40" y="795" type="line"/>
    </contour>
  </outline>
</glyph>
<glyph name="x" format="2">
  <advance width="980"/>
  <unicode hex="0078"/>
  <outline>
    <contour>
      <point x="85" y="-15" type="line"/>
      <point x="274.00951385498047" y="-15" type="line"/>
      <point x="490" y="266.73104095458984" type="line"/>
      <point x="705.9904861450195" y="-15" type="line"/>
      <point x="895" y="-15" type="line"/>
      <point x="584.5047607421875" y="390" type="line"/>
      <point x="895" y="795" type="line"/>
      <point x="705.9904861450195" y="795" type="line"/>
      <point x="490" y="513.2689590454102" type="line"/>
      <point x="274.00951385498047" y="795" type="line"/>
      <point x="85" y="795" type="line"/>
      <point x="395.49524688720703" y="390" type="line"/>
    </contour>
  </outline>
</glyph>
<glyph name="y" format="2">
  <advance width="1020"/>
  <unicode hex="0079"/>
  <outline>
    <contour>
      <point x="218.05209350585938" y="-480" type="line"/>
      <point x="382.7831268310547" y="-480" type="line"/>
      <point x="949.8387069702148" y="818.7096786499023" type="line"/>
      <point x="785.107666015625" y="818.7096786499023" type="line"/>
      <point x="510" y="188.63917541503906" type="line"/>
      <point x="234.892333984375" y="818.7096786499023" type="line"/>
      <point x="70.16129302978516" y="818.7096786499023" type="line"/>
      <point x="427.63448333740234" y="0" type="line"/>
    </contour>
  </outline>
</glyph>
<glyph name="z" format="2">
  <advance width="1020"/>
  <unicode hex="007A"/>
  <outline>
    <contour>
      <point x="133.50746154785156" y="0" type="line"/>
      <point x="881.4925384521484" y="0" type="line"/>
      <point x="881.4925384521484" y="151.3432846069336" type="line"/>
      <point x="350.27437591552734" y="151.3432846069336" type="line"/>
      <point x="881.4925384521484" y="669.4029846191406" type="line"/>
      <point x="881.4925384521484" y="820.7462692260742" type="line"/>
      <point x="133.50746154785156" y="820.7462692260742" type="line"/>
      <point x="133.50746154785156" y="669.4029846191406" type="line"/>
      <point x="664.7256240844727" y="669.4029846191406" type="line"/>
      <point x="133.50746154785156" y="151.3432846069336" type="line"/>
    </contour>
  </outline>
</glyph>
<glyph name="braceleft" format="2">
  <advance width="1020"/>
  <unicode hex="007B"/>
  <outline>
    <contour>
      <point x="434.32836151123047" y="104.776123046875" type="line"/>
      <point x="434.32835820895525" y="-36.58002601791042"/>
      <point x="549.0916157731342" y="-151.34328358208955"/>
      <point x="690.4477611940298" y="-151.34328358208955" type="curve"/>
      <point x="818.5074615478516" y="-151.3432846069336" type="line"/>
      <point x="818.5074615478516" y="0" type="line"/>
      <point x="690.4477615356445" y="0" type="line"/>
      <point x="632.6202471582089" y="1.3786650096837765e-14"/>
      <point x="585.6716417910447" y="46.948605367164184"/>
      <point x="585.6716417910447" y="104.77611940298509" type="curve"/>
      <point x="585.6716384887695" y="404.55223846435547" type="line"/>
      <point x="585.6716417910447" y="474.9204588456553"/>
      <point x="557.2318370387359" y="538.6986207561338"/>
      <point x="511.2291564941406" y="584.995849609375" type="curve"/>
      <point x="557.2318370387359" y="631.3013792438663"/>
      <point x="585.6716417910447" y="695.0795411543448"/>
      <point x="585.6716417910447" y="765.4477611940299" type="curve"/>
      <point x="585.6716384887695" y="1065.223876953125" type="line"/>
      <point x="585.6716417910447" y="1123.051394632836"/>
      <point x="632.6202471582089" y="1170.0"/>
      <point x="690.4477611940299" y="1170.0" type="curve"/>
      <point x="818.5074615478516" y="1170" type="line"/>
      <point x="818.5074615478516" y="1321.3432846069336" type="line"/>
      <point x="690.4477615356445" y="1321.3432846069336" type="line"/>
      <point x="549.0916157731343" y="1321.3432835820895"/>
      <point x="434.32835820895525" y="1206.5800260179105"/>
      <point x="434.32835820895525" y="1065.2238805970148" type="curve"/>
      <point x="434.32836151123047" y="765.4477615356445" type="line"/>
      <point x="434.32835820895525" y="707.6202471582089"/>
      <point x="387.37975284179106" y="660.6716417910447"/>
      <point x="329.55223880597015" y="660.6716417910447" type="curve"/>
      <point x="201.49253845214844" y="660.6716384887695" type="line"/>
      <point x="201.49253845214844" y="509.32836151123047" type="line"/>
      <point x="329.55223846435547" y="509.32836151123047" type="line"/>
      <point x="387.37975284179106" y="509.32835820895525"/>
      <point x="434.32835820895525" y="462.37975284179106"/>
      <point x="434.32835820895525" y="404.55223880597015" type="curve"/>
    </contour>
  </outline>
</glyph>
<glyph name="bar" format="2">
  <advance width="1020"/>
  <unicode hex="007C"/>
  <outline>
    <contour>
      <point x="434.32836" y="-75.67164" type="line"/>
      <point x="585.67164" y="-75.67164" type="line"/>
      <point x="585.67164" y="1245.67164" type="line"/>
      <point x="434.32836" y="1245.67164" type="line"/>
    </contour>
  </outline>
</glyph>
<glyph name="braceright" format="2">
  <advance width="1020"/>
  <unicode hex="007D"/>
  <outline>
    <contour>
      <point x="286.80223846435547" y="-75.67163848876953" type="line"/>
      <point x="574.6880398598998" y="-75.67163848876953"/>
      <point x="585.6716403673295" y="125.97548403117538"/>
      <point x="585.6716397117189" y="223.19776" type="curve"/>
      <point x="585.6716386941043" y="374.1025818396395" type="line"/>
      <point x="585.6716378184466" y="503.9562455752799"/>
      <point x="670.9495859787095" y="509.32835976990236"/>
      <point x="733.19776" y="509.328360504492" type="curve"/>
      <point x="818.5074615478516" y="509.32836151123047" type="line"/>
      <point x="818.5074615478516" y="660.6716384887695" type="line"/>
      <point x="720.8974181603604" y="660.6716384887695" type="line"/>
      <point x="591.04375442472" y="660.6716384887695"/>
      <point x="585.6716401314844" y="745.9495859787095"/>
      <point x="585.6716397117189" y="808.19776" type="curve"/>
      <point x="585.6716387770507" y="946.8022384643555" type="line"/>
      <point x="585.6716368357161" y="1234.6880398598998"/>
      <point x="384.0245159688246" y="1245.6716406428266"/>
      <point x="286.80224" y="1245.6716394955079" type="curve"/>
      <point x="201.49253845214844" y="1245.6716384887695" type="line"/>
      <point x="201.49253845214844" y="1094.3283615112305" type="line"/>
      <point x="299.10258183963947" y="1094.3283615112305" type="line"/>
      <point x="428.95624557527987" y="1094.3283615112305"/>
      <point x="434.32835986851563" y="1009.0504140212905"/>
      <point x="434.32836028828115" y="946.80224" type="curve"/>
      <point x="434.3283612229493" y="808.1977615356445" type="line"/>
      <point x="434.32836171833173" y="734.7361535199643"/>
      <point x="435.75034932516917" y="658.4921912926079"/>
      <point x="508.7708511352539" y="585.0041427612305" type="curve"/>
      <point x="435.750350782742" y="511.5029440082096"/>
      <point x="434.32835979287194" y="435.26782836714926"/>
      <point x="434.3283602882812" y="361.8022399999999" type="curve"/>
      <point x="434.32836130589567" y="210.89741816036056" type="line"/>
      <point x="434.32836218155336" y="81.04375442472016"/>
      <point x="349.05041402129046" y="75.67164023009764"/>
      <point x="286.80224" y="75.67163949550793" type="curve"/>
      <point x="201.49253845214844" y="75.67163848876953" type="line"/>
      <point x="201.49253845214844" y="-75.67163848876953" type="line"/>
    </contour>
  </outline>
</glyph>
<glyph name="tilde" format="2">
  <advance width="1020"/>
  <unicode hex="007E"/>
  <outline>
    <contour>
      <point x="573.5841305663025" y="543.5035912931487" type="curve"/>
      <point x="531.4876274702702" y="567.8080204095792" type="line"/>
      <point x="470.8649868253045" y="602.8085207847583"/>
      <point x="425.6120586398397" y="624.44854"/>
      <point x="362.85231" y="624.44854" type="curve"/>
      <point x="217.57423999999997" y="624.44854"/>
      <point x="99.62687000000001" y="506.50118000000003"/>
      <point x="99.62687" y="361.2231" type="curve"/>
      <point x="250.97015380859375" y="361.2230987548828" type="line"/>
      <point x="250.9701499999994" y="422.97254965258793"/>
      <point x="301.10287" y="473.10526"/>
      <point x="362.85231" y="473.10526" type="curve"/>
      <point x="393.13308875880625" y="473.10526"/>
      <point x="414.3748935749577" y="460.6669161172137"/>
      <point x="446.4158692643567" y="442.16804841354553" type="curve"/>
      <point x="488.5123727566977" y="417.8636184723103" type="line"/>
      <point x="549.1350130267429" y="382.86311745530577"/>
      <point x="594.3879413601603" y="361.2231"/>
      <point x="657.14769" y="361.2231" type="curve"/>
      <point x="802.4257600000001" y="361.2231"/>
      <point x="920.37313" y="479.17046099999993"/>
      <point x="920.37313" y="624.44854" type="curve"/>
      <point x="769.0298461914062" y="624.4485397338867" type="line"/>
      <point x="769.0298500000007" y="562.6990889873047"/>
      <point x="718.8971300000001" y="512.56638"/>
      <point x="657.14769" y="512.56638" type="curve"/>
      <point x="626.8669112411937" y="512.56638"/>
      <point x="605.6251064521297" y="525.0047239297039"/>
    </contour>
  </outline>
</glyph>
<glyph name="invertedexclam" format="2">
  <advance width="1020"/>
  <unicode hex="00A1"/>
  <outline>
    <contour>
      <point x="376.4516129032258" y="685.1612903225806" type="curve" smooth="yes"/>
      <point x="376.4516129032258" y="611.4539295870968"/>
      <point x="436.2926392645161" y="551.6129032258065"/>
      <point x="510.0" y="551.6129032258065" type="curve" smooth="yes"/>
      <point x="583.7073607354838" y="551.6129032258065"/>
      <point x="643.5483870967741" y="611.4539295870968"/>
      <point x="643.5483870967741" y="685.1612903225806" type="curve" smooth="yes"/>
      <point x="643.5483870967741" y="758.8686510580646"/>
      <point x="583.7073607354839" y="818.7096774193549"/>
      <point x="510.00000000000006" y="818.7096774193549" type="curve" smooth="yes"/>
      <point x="436.2926392645162" y="818.7096774193549"/>
      <point x="376.4516129032258" y="758.8686510580646"/>
    </contour>
    <contour>
      <point x="585.483870967742" y="470.3225806451613" type="line"/>
      <point x="434.51612903225805" y="470.3225806451613" type="line"/>
      <point x="434.51612903225794" y="-348.38709677419354" type="line"/>
      <point x="585.4838709677418" y="-348.38709677419354" type="line"/>
    </contour>
  </outline>
</glyph>
<glyph name="cent" format="2">
  <advance width="980"/>
  <unicode hex="00A2"/>
  <outline>
    <contour>
      <point x="441.4050598144531" y="-135" type="line"/>
      <point x="561.4050598144531" y="-135" type="line"/>
      <point x="561.4050598144531" y="-10.573722839355469" type="line"/>
      <point x="711.3396497080123" y="11.728374730826568"/>
      <point x="834.5645863415707" y="116.34101028729769"/>
      <point x="883.5934906005859" y="255.78947448730472" type="curve"/>
      <point x="718.2064590454102" y="255.7894744873047" type="line"/>
      <point x="683.3737493154671" y="199.6673599121807"/>
      <point x="627.3755650468743" y="158.04749455142573"/>
      <point x="561.4050598144531" y="142.11937713623047" type="curve"/>
      <point x="561.4050598144531" y="637.8862991333008" type="line"/>
      <point x="627.3819536183247" y="621.9517322201735"/>
      <point x="683.3844599725498" y="580.3282787053204"/>
      <point x="718.216423034668" y="524.2105255126952" type="curve"/>
      <point x="883.5949401855469" y="524.2105255126953" type="line"/>
      <point x="834.5670551109679" y="663.6573730855271"/>
      <point x="711.3411589462831" y="768.2714519425778"/>
      <point x="561.4050598144531" y="790.5700607299805" type="curve"/>
      <point x="561.4050598144531" y="915" type="line"/>
      <point x="441.4050598144531" y="915" type="line"/>
      <point x="441.4050598144531" y="790.575569152832" type="line"/>
      <point x="246.2886053425201" y="761.5500495434063"/>
      <point x="96.4050598144531" y="593.1404969724463"/>
      <point x="96.40505981445307" y="390.0" type="curve" smooth="yes"/>
      <point x="96.40505981445312" y="186.85950302755384"/>
      <point x="246.28860534252001" y="18.44995045659371"/>
      <point x="441.4050598144531" y="-10.576980590820312" type="curve"/>
    </contour>
    <contour>
      <point x="246.40505981445312" y="390.0" type="curve" smooth="yes"/>
      <point x="246.40505981445312" y="510.07498773638787"/>
      <point x="329.57777539296444" y="610.8772330893433"/>
      <point x="441.4050598144531" y="637.8744354248047" type="curve"/>
      <point x="441.4050598144531" y="142.11593627929688" type="line"/>
      <point x="329.5777753929644" y="169.1227669106566"/>
      <point x="246.40505981445307" y="269.9250122636121"/>
    </contour>
  </outline>
</glyph>
<glyph name="pound" format="2">
  <advance width="980"/>
  <unicode hex="00A3"/>
  <outline>
    <contour>
      <point x="85" y="-15" type="line"/>
      <point x="895" y="-15" type="line"/>
      <point x="895" y="135" type="line"/>
      <point x="355" y="135" type="line"/>
      <point x="355" y="467.5" type="line"/>
      <point x="715" y="467.5" type="line"/>
      <point x="715" y="587.5" type="line"/>
      <point x="355" y="587.5" type="line"/>
      <point x="355" y="840" type="line"/>
      <point x="355.0" y="947.6234289"/>
      <point x="442.3765711" y="1035.0"/>
      <point x="550.0" y="1035.0" type="curve" smooth="yes"/>
      <point x="657.6234289" y="1035.0"/>
      <point x="745.0" y="947.6234289"/>
      <point x="745.0" y="840.0" type="curve"/>
      <point x="895" y="840" type="line"/>
      <point x="895.0" y="1030.4106819"/>
      <point x="740.4106819" y="1185.0"/>
      <point x="550.0" y="1185.0" type="curve" smooth="yes"/>
      <point x="359.5893181" y="1185.0"/>
      <point x="205.0" y="1030.4106819"/>
      <point x="205.0" y="840.0" type="curve"/>
      <point x="205" y="587.5" type="line"/>
      <point x="85" y="587.5" type="line"/>
      <point x="85" y="467.5" type="line"/>
      <point x="205" y="467.5" type="line"/>
      <point x="205" y="135" type="line"/>
      <point x="85" y="135" type="line"/>
    </contour>
  </outline>
</glyph>
<glyph name="currency" format="2">
  <advance width="1020"/>
  <unicode hex="00A4"/>
  <outline>
    <contour>
      <point x="839.5161290322579" y="583.5483870967743" type="curve" smooth="yes"/>
      <point x="839.516129032258" y="647.1634563930851"/>
      <point x="821.450241927831" y="706.5923068594584"/>
      <point x="790.1733932495117" y="756.9714660644531" type="curve"/>
      <point x="989.349967956543" y="956.1480407714844" type="line"/>
      <point x="882.5996551513672" y="1062.8983535766602" type="line"/>
      <point x="683.4190063476562" y="863.7177047729492" type="line"/>
      <point x="633.0340656964452" y="895.0016244476602"/>
      <point x="573.6097952141832" y="913.0645161290324"/>
      <point x="509.99999999999994" y="913.0645161290323" type="curve" smooth="yes"/>
      <point x="446.3885680017081" y="913.0645161290323"/>
      <point x="386.9628761389083" y="895.0006948601858"/>
      <point x="336.57691192626953" y="863.7217864990234" type="curve"/>
      <point x="137.4003448486328" y="1062.8983535766602" type="line"/>
      <point x="30.65003204345703" y="956.1480407714844" type="line"/>
      <point x="229.83068084716797" y="756.9673919677734" type="line"/>
      <point x="198.55141082568053" y="706.5977435610254"/>
      <point x="180.48387096774195" y="647.1663662315002"/>
      <point x="180.48387096774192" y="583.5483870967741" type="curve" smooth="yes"/>
      <point x="180.48387096774195" y="519.9333178004634"/>
      <point x="198.54975807216894" y="460.50446733409007"/>
      <point x="229.82660675048828" y="410.12530517578125" type="curve"/>
      <point x="30.65003204345703" y="210.94873046875" type="line"/>
      <point x="137.4003448486328" y="104.19841766357422" type="line"/>
      <point x="336.58099365234375" y="303.37906646728516" type="line"/>
      <point x="386.96593430355466" y="272.09514974588825"/>
      <point x="446.39020478581654" y="254.03225806451607"/>
      <point x="509.99999999999994" y="254.03225806451604" type="curve" smooth="yes"/>
      <point x="573.6114319982919" y="254.0322580645161"/>
      <point x="633.0371238610917" y="272.0960793333625"/>
      <point x="683.4230804443359" y="303.37499237060547" type="curve"/>
      <point x="882.5996551513672" y="104.19841766357422" type="line"/>
      <point x="989.349967956543" y="210.94873046875" type="line"/>
      <point x="790.169319152832" y="410.12937927246094" type="line"/>
      <point x="821.4485891743194" y="460.4990306325231"/>
      <point x="839.5161290322579" y="519.9304079620483"/>
    </contour>
    <contour>
      <point x="688.5483870967743" y="583.5483870967743" type="curve" smooth="yes"/>
      <point x="688.5483870967743" y="485.0048504612903"/>
      <point x="608.5435366354839" y="405.0"/>
      <point x="510.0" y="405.0" type="curve" smooth="yes"/>
      <point x="411.4564633645161" y="405.0"/>
      <point x="331.4516129032258" y="485.00485046129035"/>
      <point x="331.4516129032258" y="583.5483870967743" type="curve" smooth="yes"/>
      <point x="331.4516129032258" y="682.0919237322581"/>
      <point x="411.45646336451614" y="762.0967741935484"/>
      <point x="510.0" y="762.0967741935484" type="curve" smooth="yes"/>
      <point x="608.5435366354839" y="762.0967741935484"/>
      <point x="688.5483870967743" y="682.0919237322581"/>
    </contour>
  </outline>
</glyph>
<glyph name="yen" format="2">
  <advance width="1020"/>
  <unicode hex="00A5"/>
  <outline>
    <contour>
      <point x="100.6451644897461" y="241.5483856201172" type="line"/>
      <point x="434.51612854003906" y="241.5483856201172" type="line"/>
      <point x="434.51612854003906" y="0" type="line"/>
      <point x="585.4838714599609" y="0" type="line"/>
      <point x="585.4838714599609" y="241.5483856201172" type="line"/>
      <point x="919.3548355102539" y="241.5483856201172" type="line"/>
      <point x="919.3548355102539" y="362.3225784301758" type="line"/>
      <point x="585.4838714599609" y="362.3225784301758" type="line"/>
      <point x="585.4838714599609" y="464.51612854003906" type="line"/>
      <point x="919.3548355102539" y="464.51612854003906" type="line"/>
      <point x="919.3548355102539" y="585.2903213500977" type="line"/>
      <point x="649.3644332885742" y="585.2903213500977" type="line"/>
      <point x="957.0967712402344" y="1167.0967712402344" type="line"/>
      <point x="786.3121337890625" y="1167.0967712402344" type="line"/>
      <point x="510" y="644.6941452026367" type="line"/>
      <point x="233.6878662109375" y="1167.0967712402344" type="line"/>
      <point x="62.903228759765625" y="1167.0967712402344" type="line"/>
      <point x="370.6355667114258" y="585.2903213500977" type="line"/>
      <point x="100.6451644897461" y="585.2903213500977" type="line"/>
      <point x="100.6451644897461" y="464.51612854003906" type="line"/>
      <point x="434.51612854003906" y="464.51612854003906" type="line"/>
      <point x="434.51612854003906" y="362.3225784301758" type="line"/>
      <point x="100.6451644897461" y="362.3225784301758" type="line"/>
    </contour>
  </outline>
</glyph>
<glyph name="brokenbar" format="2">
  <advance width="980"/>
  <unicode hex="00A6"/>
  <outline>
    <contour>
      <point x="415.0" y="648.75" type="line"/>
      <point x="565.0" y="648.75" type="line"/>
      <point x="565.0" y="1335.0" type="line"/>
      <point x="415.0" y="1335.0" type="line"/>
    </contour>
    <contour>
      <point x="415.0" y="-165.0" type="line"/>
      <point x="565.0" y="-165.0" type="line"/>
      <point x="565.0" y="521.25" type="line"/>
      <point x="415.0" y="521.25" type="line"/>
    </contour>
  </outline>
</glyph>
<glyph name="section" format="2">
  <advance width="1020"/>
  <unicode hex="00A7"/>
  <outline>
    <contour>
      <point x="510.0" y="399.3870967741936" type="curve" smooth="yes"/>
      <point x="489.4516748215589" y="399.3870967741936"/>
      <point x="469.71870524546915" y="401.93739545271956"/>
      <point x="451.3712692260742" y="406.64476013183594" type="curve"/>
      <point x="387.99611637808994" y="426.6851679519136"/>
      <point x="339.65964103269664" y="466.36839246117626"/>
      <point x="334.0323181152344" y="517.3430709838867" type="curve"/>
      <point x="333.9822235107422" y="517.8884735107422" type="line"/>
      <point x="333.66272735595703" y="521.7796249389648" type="line"/>
      <point x="333.58433532714844" y="523.6287536621094" type="line"/>
      <point x="333.4861831665039" y="527.061897277832" type="line"/>
      <point x="333.48387145996094" y="527.3225784301758" type="line"/>
      <point x="333.48387096774195" y="597.9320957845163"/>
      <point x="412.5780971148387" y="655.2580645161291"/>
      <point x="510.0" y="655.2580645161291" type="curve" smooth="yes"/>
      <point x="533.2173930517858" y="655.2580645161291"/>
      <point x="555.3938571052803" y="652.0022092290294"/>
      <point x="575.7069244384766" y="646.0739974975586" type="curve"/>
      <point x="634.353899709571" y="627.3394522393864"/>
      <point x="678.2333687003589" y="588.7491913065761"/>
      <point x="685.4656372070312" y="541.1747589111328" type="curve"/>
      <point x="685.602897644043" y="540.2044296264648" type="line"/>
      <point x="686.0153579711914" y="536.7829666137695" type="line"/>
      <point x="686.172966003418" y="535.0670852661133" type="line"/>
      <point x="686.3640899658203" y="532.2329635620117" type="line"/>
      <point x="686.4637069702148" y="529.8831100463867" type="line"/>
      <point x="686.5161285400391" y="527.3225784301758" type="line"/>
      <point x="686.516129032258" y="456.7130655058065"/>
      <point x="607.4219028851612" y="399.3870967741936"/>
    </contour>
    <contour>
      <point x="190.25806427001953" y="120.48387145996094" type="line"/>
      <point x="190.25806451612897" y="-16.35544657161272"/>
      <point x="333.5296232825806" y="-127.45161290322575"/>
      <point x="509.99999999999994" y="-127.45161290322575" type="curve" smooth="yes"/>
      <point x="686.4703767174193" y="-127.45161290322575"/>
      <point x="829.7419354838711" y="-16.355446571612937"/>
      <point x="829.7419354838711" y="120.48387096774199" type="curve"/>
      <point x="829.7419354838711" y="196.98633496973812"/>
      <point x="784.3954098006052" y="263.55378980497426"/>
      <point x="714.1506423950195" y="309.31127166748047" type="curve"/>
      <point x="789.3023209365804" y="360.42187355976273"/>
      <point x="837.4838709677421" y="439.1180316885535"/>
      <point x="837.4838709677421" y="527.3225806451613" type="curve"/>
      <point x="837.4838709677421" y="529.08585886925"/>
      <point x="837.4646161022682" y="530.8453372407781"/>
      <point x="837.4262771606445" y="532.5513687133789" type="curve"/>
      <point x="837.4838709677421" y="529.3518699163444"/>
      <point x="837.4580767509287" y="531.3751596755179"/>
      <point x="837.4067611694336" y="533.1650619506836" type="curve"/>
      <point x="834.3695207679712" y="653.594013343617"/>
      <point x="741.909655310373" y="755.1466037316518"/>
      <point x="614.4879302978516" y="791.6963500976562" type="curve"/>
      <point x="614.4105072021484" y="791.7213668823242" type="line"/>
      <point x="442.97593688964844" y="845.9915618896484" type="line"/>
      <point x="388.12854603009646" y="863.3543269555604"/>
      <point x="348.9677419354838" y="895.0419677836754"/>
      <point x="348.9677419354839" y="934.1612903225808" type="curve"/>
      <point x="348.9677419354839" y="987.6792435522582"/>
      <point x="421.1238780696774" y="1031.1290322580646"/>
      <point x="510.0" y="1031.1290322580646" type="curve" smooth="yes"/>
      <point x="598.8761219303226" y="1031.1290322580646"/>
      <point x="671.0322580645161" y="987.6792435522582"/>
      <point x="671.0322580645161" y="934.1612903225808" type="curve"/>
      <point x="822" y="934.1612930297852" type="line"/>
      <point x="822.0000000000001" y="1071.0006078619356"/>
      <point x="682.1974862400001" y="1182.0967741935485"/>
      <point x="510.0" y="1182.0967741935485" type="curve" smooth="yes"/>
      <point x="337.80251376" y="1182.0967741935485"/>
      <point x="197.99999999999994" y="1071.0006078619356"/>
      <point x="197.99999999999994" y="934.1612903225808" type="curve"/>
      <point x="197.99999999999994" y="858.5967647612962"/>
      <point x="241.1701065506711" y="792.6600929342011"/>
      <point x="308.2856750488281" y="746.9806747436523" type="curve"/>
      <point x="231.74052710501442" y="695.9163781512722"/>
      <point x="182.51612903225805" y="616.4765752662108"/>
      <point x="182.5161290322581" y="527.3225806451613" type="curve"/>
      <point x="182.51612903225802" y="525.56007207547"/>
      <point x="182.53536709226415" y="523.8013600418632"/>
      <point x="182.57366943359375" y="522.0955581665039" type="curve"/>
      <point x="182.51612903225802" y="525.2884640451061"/>
      <point x="182.5420392569555" y="523.2603646155505"/>
      <point x="182.5935821533203" y="521.4693603515625" type="curve"/>
      <point x="185.64730665121763" y="400.65822439131"/>
      <point x="278.6888639372731" y="298.8463572850248"/>
      <point x="406.7383117675781" y="262.5920181274414" type="curve"/>
      <point x="406.7514877319336" y="262.587890625" type="line"/>
      <point x="575.0202865600586" y="209.97531127929688" type="line"/>
      <point x="634.8097966252385" y="191.28093268086388"/>
      <point x="678.7741935483871" y="160.7653358610298"/>
      <point x="678.774193548387" y="120.48387096774199" type="curve"/>
      <point x="678.7741935483871" y="66.96591773806459"/>
      <point x="603.149012407742" y="23.51612903225813"/>
      <point x="510.0" y="23.51612903225813" type="curve" smooth="yes"/>
      <point x="416.85098759225804" y="23.51612903225813"/>
      <point x="341.2258064516129" y="66.96591773806459"/>
      <point x="341.2258064516129" y="120.48387096774199" type="curve"/>
    </contour>
  </outline>
</glyph>
<glyph name="diaeresis" format="2">
  <advance width="1020"/>
  <unicode hex="00A8"/>
  <outline>
    <contour>
      <point x="477.05373" y="1146.41791" type="curve" smooth="yes"/>
      <point x="477.05373" y="1207.45806"/>
      <point x="427.49687" y="1257.01493"/>
      <point x="366.45672" y="1257.01493" type="curve" smooth="yes"/>
      <point x="305.41656" y="1257.01493"/>
      <point x="255.8597" y="1207.45806"/>
      <point x="255.8597" y="1146.41791" type="curve" smooth="yes"/>
      <point x="255.8597" y="1085.37776"/>
      <point x="305.41656" y="1035.8209"/>
      <point x="366.45672" y="1035.8209" type="curve" smooth="yes"/>
      <point x="427.49687" y="1035.8209"/>
      <point x="477.05373" y="1085.37776"/>
    </contour>
    <contour>
      <point x="764.1403" y="1146.41791" type="curve" smooth="yes"/>
      <point x="764.1403" y="1207.45806"/>
      <point x="714.58344" y="1257.01493"/>
      <point x="653.54328" y="1257.01493" type="curve" smooth="yes"/>
      <point x="592.50313" y="1257.01493"/>
      <point x="542.94627" y="1207.45806"/>
      <point x="542.94627" y="1146.41791" type="curve" smooth="yes"/>
      <point x="542.94627" y="1085.37776"/>
      <point x="592.50313" y="1035.8209"/>
      <point x="653.54328" y="1035.8209" type="curve" smooth="yes"/>
      <point x="714.58344" y="1035.8209"/>
      <point x="764.1403" y="1085.37776"/>
    </contour>
  </outline>
</glyph>
<glyph name="copyright" format="2">
  <advance width="1020"/>
  <unicode hex="00A9"/>
  <outline>
    <contour>
      <point x="920.37313" y="585.0" type="curve" smooth="yes"/>
      <point x="920.37313" y="811.4911"/>
      <point x="736.4911" y="995.37313"/>
      <point x="510.0" y="995.37313" type="curve" smooth="yes"/>
      <point x="283.5089" y="995.37313"/>
      <point x="99.62687" y="811.4911"/>
      <point x="99.62687" y="585.0" type="curve" smooth="yes"/>
      <point x="99.62687" y="358.5089"/>
      <point x="283.5089" y="174.62687"/>
      <point x="510.0" y="174.62687" type="curve" smooth="yes"/>
      <point x="736.4911" y="174.62687"/>
      <point x="920.37313" y="358.5089"/>
    </contour>
    <contour>
      <point x="834.86418" y="585.0" type="curve" smooth="yes"/>
      <point x="834.86418" y="405.70258"/>
      <point x="689.29742" y="260.13582"/>
      <point x="510.0" y="260.13582" type="curve" smooth="yes"/>
      <point x="330.70258" y="260.13582"/>
      <point x="185.13582" y="405.70258"/>
      <point x="185.13582" y="585.0" type="curve" smooth="yes"/>
      <point x="185.13582" y="764.29742"/>
      <point x="330.70258" y="909.86418"/>
      <point x="510.0" y="909.86418" type="curve" smooth="yes"/>
      <point x="689.29742" y="909.86418"/>
      <point x="834.86418" y="764.29742"/>
    </contour>
    <contour>
      <point x="510.0" y="459.37114" type="curve" smooth="yes"/>
      <point x="440.66355" y="459.37114"/>
      <point x="384.37114" y="515.66355"/>
      <point x="384.37114" y="585.0" type="curve" smooth="yes"/>
      <point x="384.37114" y="654.33645"/>
      <point x="440.66355" y="710.62886"/>
      <point x="510.0" y="710.62886" type="curve" smooth="yes"/>
      <point x="560.32301" y="710.62886"/>
      <point x="603.77498" y="680.97646"/>
      <point x="623.82167" y="638.19219" type="curve"/>
      <point x="733.86176" y="638.19219" type="line"/>
      <point x="709.82711" y="739.55922"/>
      <point x="618.66056" y="815.05572"/>
      <point x="510.0" y="815.05572" type="curve" smooth="yes"/>
      <point x="383.02879" y="815.05572"/>
      <point x="279.94428" y="711.97121"/>
      <point x="279.94428" y="585.0" type="curve" smooth="yes"/>
      <point x="279.94428" y="458.02879"/>
      <point x="383.02879" y="354.94428"/>
      <point x="510.0" y="354.94428" type="curve" smooth="yes"/>
      <point x="618.66145" y="354.94428"/>
      <point x="709.8286" y="430.44201"/>
      <point x="733.86237" y="531.80781" type="curve"/>
      <point x="623.82749" y="531.80781" type="line"/>
      <point x="603.78336" y="489.02926"/>
      <point x="560.32786" y="459.37114"/>
    </contour>
  </outline>
</glyph>
<glyph name="ordinalfeminine" format="2">
  <advance width="980"/>
  <unicode hex="00AA"/>
  <outline>
    <contour>
      <point x="571.375" y="780" type="line"/>
      <point x="692.5" y="780" type="line"/>
      <point x="692.5" y="1185" type="line"/>
      <point x="571.375" y="1185" type="line"/>
      <point x="571.375" y="1167.9423370361328" type="line"/>
      <point x="546.466335914817" y="1178.9168759262807"/>
      <point x="518.9379572765006" y="1184.9999999999998"/>
      <point x="490.0" y="1185.0" type="curve" smooth="yes"/>
      <point x="378.23720845" y="1185.0"/>
      <point x="287.5" y="1094.26279155"/>
      <point x="287.5" y="982.5" type="curve" smooth="yes"/>
      <point x="287.5" y="870.73720845"/>
      <point x="378.23720844999997" y="780.0"/>
      <point x="490.0" y="780.0" type="curve" smooth="yes"/>
      <point x="518.9379572765007" y="780.0"/>
      <point x="546.4663359148171" y="786.0831240737191"/>
      <point x="571.375" y="797.0579681396484" type="curve"/>
    </contour>
    <contour>
      <point x="571.375" y="982.5" type="curve" smooth="yes"/>
      <point x="571.375" y="937.5879152475"/>
      <point x="534.9120847525" y="901.125"/>
      <point x="490.0" y="901.125" type="curve" smooth="yes"/>
      <point x="445.0879152475" y="901.125"/>
      <point x="408.625" y="937.5879152475"/>
      <point x="408.625" y="982.5" type="curve" smooth="yes"/>
      <point x="408.625" y="1027.4120847525"/>
      <point x="445.0879152475" y="1063.875"/>
      <point x="490.0" y="1063.875" type="curve" smooth="yes"/>
      <point x="534.9120847525" y="1063.875"/>
      <point x="571.375" y="1027.4120847525"/>
    </contour>
    <contour>
      <point x="287.5" y="591.1428571428571" type="line"/>
      <point x="692.5" y="591.1428571428571" type="line"/>
      <point x="692.5" y="684.0" type="line"/>
      <point x="287.5" y="684.0" type="line"/>
    </contour>
  </outline>
</glyph>
<glyph name="angledblleft" format="2">
  <advance width="980"/>
  <unicode hex="00AB"/>
  <outline>
    <contour>
      <point x="855" y="220" type="line"/>
      <point x="630.1890258789062" y="490" type="line"/>
      <point x="855" y="760" type="line"/>
      <point x="659.8109741210938" y="760" type="line"/>
      <point x="435" y="490" type="line"/>
      <point x="659.8109741210938" y="220" type="line"/>
    </contour>
    <contour>
      <point x="545" y="220" type="line"/>
      <point x="320.18902587890625" y="490" type="line"/>
      <point x="545" y="760" type="line"/>
      <point x="349.81097412109375" y="760" type="line"/>
      <point x="125" y="490" type="line"/>
      <point x="349.81097412109375" y="220" type="line"/>
    </contour>
  </outline>
</glyph>
<glyph name="logicalnot" format="2">
  <advance width="1020"/>
  <unicode hex="00AC"/>
  <outline>
    <contour>
      <point x="100.6451644897461" y="416.12903594970703" type="line"/>
      <point x="768.3871002197266" y="416.12903594970703" type="line"/>
      <point x="768.3871002197266" y="0" type="line"/>
      <point x="919.3548355102539" y="0" type="line"/>
      <point x="919.3548355102539" y="567.0967712402344" type="line"/>
      <point x="100.6451644897461" y="567.0967712402344" type="line"/>
    </contour>
  </outline>
</glyph>
<glyph name="registered" format="2">
  <advance width="1020"/>
  <unicode hex="00AE"/>
  <outline>
    <contour>
      <point x="920.3731343283582" y="759.6268656716418" type="curve" smooth="yes"/>
      <point x="920.3731343283582" y="986.1179623119403"/>
      <point x="736.4910966402986" y="1170.0"/>
      <point x="510.00000000000006" y="1170.0" type="curve" smooth="yes"/>
      <point x="283.50890335970155" y="1170.0"/>
      <point x="99.62686567164184" y="986.1179623119403"/>
      <point x="99.62686567164184" y="759.6268656716418" type="curve" smooth="yes"/>
      <point x="99.62686567164178" y="533.1357690313433"/>
      <point x="283.50890335970143" y="349.2537313432836"/>
      <point x="510.0" y="349.2537313432836" type="curve" smooth="yes"/>
      <point x="736.4910966402986" y="349.25373134328356"/>
      <point x="920.3731343283582" y="533.1357690313431"/>
    </contour>
    <contour>
      <point x="834.8641791044777" y="759.6268656716418" type="curve" smooth="yes"/>
      <point x="834.8641791044777" y="580.3294457639104"/>
      <point x="689.2974199077314" y="434.7626865671641"/>
      <point x="510.0" y="434.76268656716417" type="curve" smooth="yes"/>
      <point x="330.7025800922687" y="434.76268656716417"/>
      <point x="185.13582089552244" y="580.3294457639105"/>
      <point x="185.13582089552244" y="759.6268656716418" type="curve" smooth="yes"/>
      <point x="185.13582089552244" y="938.9242855793732"/>
      <point x="330.7025800922687" y="1084.4910447761195"/>
      <point x="510.00000000000006" y="1084.4910447761195" type="curve" smooth="yes"/>
      <point x="689.2974199077314" y="1084.4910447761195"/>
      <point x="834.8641791044777" y="938.9242855793732"/>
    </contour>
    <contour>
      <point x="348.79844665527344" y="537.5167694091797" type="line"/>
      <point x="453.2253112792969" y="537.5167694091797" type="line"/>
      <point x="453.2253112792969" y="672.9151458740234" type="line"/>
      <point x="534.8924789428711" y="672.9151458740234" type="line"/>
      <point x="538.9159741362586" y="672.9151444124046"/>
      <point x="542.9088612585048" y="673.0333240085452"/>
      <point x="546.8671493530273" y="673.2697067260742" type="curve"/>
      <point x="603.6633071899414" y="537.5167694091797" type="line"/>
      <point x="715.1656112670898" y="537.5167694091797" type="line"/>
      <point x="644.5784378051758" y="706.232666015625" type="line"/>
      <point x="687.4874350760451" y="735.7239847140108"/>
      <point x="715.1656119402985" y="782.0907773387648"/>
      <point x="715.1656119402985" y="834.1954360121725" type="curve" smooth="yes"/>
      <point x="715.1656119402985" y="923.2084513760641"/>
      <point x="634.3879281502388" y="995.4757276119402"/>
      <point x="534.8924776119403" y="995.4757276119402" type="curve"/>
      <point x="348.79844665527344" y="995.4757308959961" type="line"/>
    </contour>
    <contour>
      <point x="534.8924789428711" y="902.0508499145508" type="line"/>
      <point x="576.7531724945374" y="902.0508509151423"/>
      <point x="610.7387462686569" y="871.6458586854534"/>
      <point x="610.7387462686569" y="834.1954360121725" type="curve" smooth="yes"/>
      <point x="610.7387462686569" y="796.7450133388917"/>
      <point x="576.7531724945374" y="766.3400211092027"/>
      <point x="534.8924776119403" y="766.3400211092027" type="curve"/>
      <point x="453.2253112792969" y="766.3400192260742" type="line"/>
      <point x="453.2253112792969" y="902.0508499145508" type="line"/>
    </contour>
  </outline>
</glyph>
<glyph name="macron" format="2">
  <advance width="1020"/>
  <unicode hex="00AF"/>
  <outline>
    <contour>
      <point x="236.41791" y="1093.44776" type="line"/>
      <point x="783.58209" y="1093.44776" type="line"/>
      <point x="783.58209" y="1199.38806" type="line"/>
      <point x="236.41791" y="1199.38806" type="line"/>
    </contour>
  </outline>
</glyph>
<glyph name="degree" format="2">
  <advance width="1020"/>
  <unicode hex="00B0"/>
  <outline>
    <contour>
      <point x="759.6774193548388" y="917.4193548387098" type="curve" smooth="yes"/>
      <point x="759.6774193548388" y="1055.2200727354839"/>
      <point x="647.8007178967741" y="1167.0967741935485"/>
      <point x="510.0" y="1167.0967741935485" type="curve" smooth="yes"/>
      <point x="372.1992821032258" y="1167.0967741935485"/>
      <point x="260.3225806451613" y="1055.2200727354839"/>
      <point x="260.3225806451613" y="917.4193548387098" type="curve" smooth="yes"/>
      <point x="260.3225806451613" y="779.6186369419355"/>
      <point x="372.19928210322576" y="667.741935483871"/>
      <point x="509.99999999999994" y="667.741935483871" type="curve" smooth="yes"/>
      <point x="647.8007178967741" y="667.741935483871"/>
      <point x="759.6774193548388" y="779.6186369419355"/>
    </contour>
    <contour>
      <point x="608.7096774193549" y="917.4193548387098" type="curve" smooth="yes"/>
      <point x="608.7096774193549" y="862.9400012516129"/>
      <point x="564.4793535870967" y="818.7096774193549"/>
      <point x="510.0" y="818.7096774193549" type="curve" smooth="yes"/>
      <point x="455.5206464129032" y="818.7096774193549"/>
      <point x="411.2903225806451" y="862.940001251613"/>
      <point x="411.2903225806451" y="917.4193548387098" type="curve" smooth="yes"/>
      <point x="411.2903225806451" y="971.8987084258065"/>
      <point x="455.5206464129032" y="1016.1290322580645"/>
      <point x="510.0" y="1016.1290322580645" type="curve" smooth="yes"/>
      <point x="564.4793535870967" y="1016.1290322580645"/>
      <point x="608.7096774193549" y="971.8987084258064"/>
    </contour>
  </outline>
</glyph>
<glyph name="plusminus" format="2">
  <advance width="1020"/>
  <unicode hex="00B1"/>
  <outline>
    <contour>
      <point x="434.51612854003906" y="262.25806427001953" type="line"/>
      <point x="585.4838714599609" y="262.25806427001953" type="line"/>
      <point x="585.4838714599609" y="514.8387069702148" type="line"/>
      <point x="838.0645141601562" y="514.8387069702148" type="line"/>
      <point x="838.0645141601562" y="665.8064498901367" type="line"/>
      <point x="585.4838714599609" y="665.8064498901367" type="line"/>
      <point x="585.4838714599609" y="918.3871002197266" type="line"/>
      <point x="434.51612854003906" y="918.3871002197266" type="line"/>
      <point x="434.51612854003906" y="665.8064498901367" type="line"/>
      <point x="181.93548583984375" y="665.8064498901367" type="line"/>
      <point x="181.93548583984375" y="514.8387069702148" type="line"/>
      <point x="434.51612854003906" y="514.8387069702148" type="line"/>
    </contour>
    <contour>
      <point x="181.93548387096774" y="64.83870967741936" type="line"/>
      <point x="838.0645161290322" y="64.83870967741936" type="line"/>
      <point x="838.0645161290322" y="215.80645161290323" type="line"/>
      <point x="181.93548387096774" y="215.80645161290323" type="line"/>
    </contour>
  </outline>
</glyph>
<glyph name="sup_two" format="2">
  <advance width="1020"/>
  <unicode hex="00B2"/>
  <outline>
    <contour>
      <point x="271.78887939453125" y="407.6279983520508" type="line"/>
      <point x="763.3893966674805" y="407.6279983520508" type="line"/>
      <point x="763.3893966674805" y="532.4105377197266" type="line"/>
      <point x="455.3050308227539" y="532.4105377197266" type="line"/>
      <point x="650.9464868571531" y="713.8306794002181" type="line"/>
      <point x="711.0532116789865" y="769.5682043305682"/>
      <point x="763.3894" y="829.6290977233722"/>
      <point x="763.3894" y="928.6977" type="curve"/>
      <point x="763.3894" y="1068.5471200000002"/>
      <point x="649.84942" y="1182.0871"/>
      <point x="510.0" y="1182.0871" type="curve" smooth="yes"/>
      <point x="370.15058" y="1182.0871"/>
      <point x="256.6106" y="1068.54712"/>
      <point x="256.6106" y="928.6977" type="curve"/>
      <point x="381.39312744140625" y="928.6977005004883" type="line"/>
      <point x="381.39313" y="999.67776"/>
      <point x="439.01994" y="1057.30457"/>
      <point x="510.0" y="1057.30457" type="curve" smooth="yes"/>
      <point x="580.98006" y="1057.30457"/>
      <point x="638.60687" y="999.67776"/>
      <point x="638.60687" y="928.6977" type="curve"/>
      <point x="638.60687" y="875.837897624936"/>
      <point x="607.9513774503303" y="844.1371384132125"/>
      <point x="570.5238783127044" y="809.4302715077496" type="curve"/>
      <point x="271.78887939453125" y="532.4105377197266" type="line"/>
    </contour>
  </outline>
</glyph>
<glyph name="sup_three" format="2">
  <advance width="980"/>
  <unicode hex="00B3"/>
  <outline>
    <contour>
      <point x="249.375" y="659.828125" type="line"/>
      <point x="249.375" y="535.7421058940625"/>
      <point x="357.19544831249993" y="435.0"/>
      <point x="489.99999999999994" y="435.0" type="curve" smooth="yes"/>
      <point x="622.8045516875" y="435.0"/>
      <point x="730.625" y="535.7421058940624"/>
      <point x="730.625" y="659.828125" type="curve"/>
      <point x="730.625" y="724.9438766440891"/>
      <point x="700.933813996263" y="783.6312700307536"/>
      <point x="653.5218505859375" y="824.6951446533203" type="curve"/>
      <point x="693.4942936671433" y="862.9354201593219"/>
      <point x="718.1250000000001" y="915.1475492523227"/>
      <point x="718.1250000000001" y="972.6718749999999" type="curve"/>
      <point x="718.125" y="1089.8589563559376"/>
      <point x="615.9056139375" y="1185.0"/>
      <point x="490.0" y="1185.0" type="curve" smooth="yes"/>
      <point x="364.0943860625" y="1185.0"/>
      <point x="261.875" y="1089.8589563559376"/>
      <point x="261.875" y="972.671875" type="curve"/>
      <point x="386.1875" y="972.671875" type="line"/>
      <point x="386.1875" y="1021.2490204321875"/>
      <point x="432.70432198625" y="1060.6875"/>
      <point x="490.0" y="1060.6875" type="curve" smooth="yes"/>
      <point x="547.29567801375" y="1060.6875"/>
      <point x="593.8125" y="1021.2490204321875"/>
      <point x="593.8125" y="972.671875" type="curve"/>
      <point x="593.8125" y="924.0947295678125"/>
      <point x="547.29567801375" y="884.65625"/>
      <point x="490.0" y="884.65625" type="curve"/>
      <point x="433.75" y="884.65625" type="line"/>
      <point x="433.75" y="760.34375" type="line"/>
      <point x="490" y="760.34375" type="line"/>
      <point x="554.19461576375" y="760.34375"/>
      <point x="606.3125" y="715.3042081821875"/>
      <point x="606.3125" y="659.828125" type="curve"/>
      <point x="606.3125" y="604.3520418178125"/>
      <point x="554.19461576375" y="559.3125"/>
      <point x="490.0" y="559.3125" type="curve" smooth="yes"/>
      <point x="425.80538423625" y="559.3125"/>
      <point x="373.6875" y="604.3520418178125"/>
      <point x="373.6875" y="659.828125" type="curve"/>
    </contour>
  </outline>
</glyph>
<glyph name="acute" format="2">
  <advance width="1020"/>
  <unicode hex="00B4"/>
  <outline>
    <contour>
      <point x="378.1128060629637" y="1031.6129032258066" type="line"/>
      <point x="499.5314626510812" y="1031.6129032258066" type="line"/>
      <point x="641.8871939370363" y="1283.225806451613" type="line"/>
      <point x="520.4685373489187" y="1283.225806451613" type="line"/>
    </contour>
  </outline>
</glyph>
<glyph name="mu" format="2">
  <advance width="1020"/>
  <unicode hex="00B5"/>
  <outline>
    <contour>
      <point x="146.35581970214844" y="-240" type="line"/>
      <point x="297.69910430908203" y="-240" type="line"/>
      <point x="297.69910430908203" y="51.437217712402344" type="line"/>
      <point x="356.4527530941915" y="9.606526515691144"/>
      <point x="428.2968134776181" y="-14.999999999999957"/>
      <point x="505.84268656716415" y="-14.999999999999957" type="curve" smooth="yes"/>
      <point x="606.830252264323" y="-14.999999999999991"/>
      <point x="698.1477088448031" y="26.7319558977809"/>
      <point x="763.4756469726562" y="93.88423156738281" type="curve"/>
      <point x="807.3005218093228" y="36.805354449531286"/>
      <point x="876.208090779295" y="0.0"/>
      <point x="953.6441791044776" y="-1.4210854715202004e-14" type="curve"/>
      <point x="953.6441802978516" y="151.3432846069336" type="line"/>
      <point x="904.9020100516179" y="151.34328358208955"/>
      <point x="865.329552238806" y="190.91574139490152"/>
      <point x="865.329552238806" y="239.6579104477612" type="curve"/>
      <point x="865.3295516967773" y="820.7462692260742" type="line"/>
      <point x="713.9862670898438" y="820.7462692260742" type="line"/>
      <point x="713.9862670898438" y="344.4868621826172" type="line"/>
      <point x="713.9862686567164" y="229.6092963998149"/>
      <point x="620.720255838991" y="136.34328358208953"/>
      <point x="505.84268656716415" y="136.34328358208955" type="curve" smooth="yes"/>
      <point x="390.9651172953373" y="136.34328358208958"/>
      <point x="297.69910447761185" y="229.60929639981498"/>
      <point x="297.6991044776119" y="344.4868656716418" type="curve"/>
      <point x="297.69910430908203" y="820.7462692260742" type="line"/>
      <point x="146.35581970214844" y="820.7462692260742" type="line"/>
    </contour>
  </outline>
</glyph>
<glyph name="pilcrow" format="2">
  <advance width="1020"/>
  <unicode hex="00B6"/>
  <outline>
    <contour>
      <point x="396.3432846069336" y="-116.41790771484375" type="line"/>
      <point x="547.6865692138672" y="-116.41790771484375" type="line"/>
      <point x="547.6865692138672" y="1018.6567153930664" type="line"/>
      <point x="664.1044769287109" y="1018.6567153930664" type="line"/>
      <point x="664.1044769287109" y="-116.41790771484375" type="line"/>
      <point x="815.4477615356445" y="-116.41790771484375" type="line"/>
      <point x="815.4477615356445" y="1018.6567153930664" type="line"/>
      <point x="949.3283615112305" y="1018.6567153930664" type="line"/>
      <point x="949.3283615112305" y="1170" type="line"/>
      <point x="396.3432846069336" y="1170" type="line"/>
      <point x="222.11936308955225" y="1170.0"/>
      <point x="80.67164179104475" y="1028.5522787014927"/>
      <point x="80.67164179104475" y="854.3283582089551" type="curve" smooth="yes"/>
      <point x="80.67164179104475" y="680.1044377164179"/>
      <point x="222.11936308955217" y="538.6567164179103"/>
      <point x="396.3432835820895" y="538.6567164179103" type="curve"/>
    </contour>
  </outline>
</glyph>
<glyph name="periodcentered" format="2">
  <advance width="1020"/>
  <unicode hex="00B7"/>
  <outline>
    <contour>
      <point x="643.5483870967741" y="358.06451612903226" type="curve" smooth="yes"/>
      <point x="643.5483870967741" y="431.7718768645162"/>
      <point x="583.7073607354839" y="491.61290322580646"/>
      <point x="510.0" y="491.61290322580646" type="curve" smooth="yes"/>
      <point x="436.29263926451614" y="491.61290322580646"/>
      <point x="376.4516129032258" y="431.7718768645162"/>
      <point x="376.4516129032258" y="358.06451612903226" type="curve" smooth="yes"/>
      <point x="376.4516129032258" y="284.3571553935484"/>
      <point x="436.2926392645161" y="224.51612903225808"/>
      <point x="510.0" y="224.51612903225808" type="curve" smooth="yes"/>
      <point x="583.7073607354838" y="224.51612903225808"/>
      <point x="643.5483870967741" y="284.3571553935484"/>
    </contour>
  </outline>
</glyph>
<glyph name="cedilla" format="2">
  <advance width="980"/>
  <unicode hex="00B8"/>
  <outline>
    <contour>
      <point x="401.75" y="-135" type="line"/>
      <point x="454.25" y="-135" type="line"/>
      <point x="484.88128360999997" y="-135.0"/>
      <point x="509.75" y="-159.86871639"/>
      <point x="509.75" y="-190.5" type="curve" smooth="yes"/>
      <point x="509.75" y="-221.13128361"/>
      <point x="484.88128360999997" y="-246.0"/>
      <point x="454.25" y="-246.0" type="curve"/>
      <point x="365.25" y="-246" type="line"/>
      <point x="365.25" y="-351" type="line"/>
      <point x="454.25" y="-351" type="line"/>
      <point x="542.83236071" y="-351.0"/>
      <point x="614.75" y="-279.08236071"/>
      <point x="614.75" y="-190.5" type="curve" smooth="yes"/>
      <point x="614.75" y="-120.29980787273564"/>
      <point x="569.5833869843626" y="-60.56560198780897"/>
      <point x="506.75" y="-38.81809997558594" type="curve"/>
      <point x="506.75" y="60" type="line"/>
      <point x="401.75" y="60" type="line"/>
    </contour>
  </outline>
</glyph>
<glyph name="sup_one" format="2">
  <advance width="1020"/>
  <unicode hex="00B9"/>
  <outline>
    <contour>
      <point x="252.06301879882812" y="407.6279983520508" type="line"/>
      <point x="767.9369812011719" y="407.6279983520508" type="line"/>
      <point x="767.9369812011719" y="532.4105377197266" type="line"/>
      <point x="587.5498504638672" y="532.4105377197266" type="line"/>
      <point x="587.5498504638672" y="1169.0709838867188" type="line"/>
      <point x="462.7673110961914" y="1169.0709838867188" type="line"/>
      <point x="252.06301879882812" y="1047.4208068847656" type="line"/>
      <point x="252.06301879882812" y="903.334342956543" type="line"/>
      <point x="462.7673110961914" y="1024.984519958496" type="line"/>
      <point x="462.7673110961914" y="532.4105377197266" type="line"/>
      <point x="252.06301879882812" y="532.4105377197266" type="line"/>
    </contour>
  </outline>
</glyph>
<glyph name="ordinalmasculine" format="2">
  <advance width="1020"/>
  <unicode hex="00BA"/>
  <outline>
    <contour>
      <point x="745.3740322580645" y="931.7227419354839" type="curve" smooth="yes"/>
      <point x="745.3740322580645" y="1061.6292056566742"/>
      <point x="639.9064637211904" y="1167.0967741935485"/>
      <point x="510.00000000000006" y="1167.0967741935485" type="curve" smooth="yes"/>
      <point x="380.0935362788097" y="1167.0967741935485"/>
      <point x="274.6259677419355" y="1061.6292056566742"/>
      <point x="274.6259677419355" y="931.7227419354839" type="curve" smooth="yes"/>
      <point x="274.6259677419355" y="801.8162782142936"/>
      <point x="380.09353627880967" y="696.3487096774194"/>
      <point x="510.0" y="696.3487096774194" type="curve" smooth="yes"/>
      <point x="639.9064637211902" y="696.3487096774194"/>
      <point x="745.3740322580645" y="801.8162782142934"/>
    </contour>
    <contour>
      <point x="624.750806451613" y="931.7227419354839" type="curve" smooth="yes"/>
      <point x="624.750806451613" y="868.3900482977258"/>
      <point x="573.332693637758" y="816.971935483871"/>
      <point x="510.0" y="816.971935483871" type="curve" smooth="yes"/>
      <point x="446.66730636224196" y="816.971935483871"/>
      <point x="395.2491935483871" y="868.3900482977258"/>
      <point x="395.2491935483871" y="931.7227419354839" type="curve" smooth="yes"/>
      <point x="395.2491935483871" y="995.0554355732421"/>
      <point x="446.66730636224196" y="1046.4735483870968"/>
      <point x="510.00000000000006" y="1046.4735483870968" type="curve" smooth="yes"/>
      <point x="573.3326936377582" y="1046.4735483870968"/>
      <point x="624.750806451613" y="995.0554355732421"/>
    </contour>
    <contour>
      <point x="274.6259677419355" y="509.989262672811" type="line"/>
      <point x="745.3740322580645" y="509.989262672811" type="line"/>
      <point x="745.3740322580645" y="603.4454838709678" type="line"/>
      <point x="274.6259677419355" y="603.4454838709678" type="line"/>
    </contour>
  </outline>
</glyph>
<glyph name="angledblright" format="2">
  <advance width="1020"/>
  <unicode hex="00BB"/>
  <outline>
    <contour>
      <point x="471.6417922973633" y="219.25373077392578" type="line"/>
      <point x="665.6109390258789" y="219.25373077392578" type="line"/>
      <point x="884.9253768920898" y="492.83582305908203" type="line"/>
      <point x="665.6109390258789" y="766.4179077148438" type="line"/>
      <point x="471.6417922973633" y="766.4179077148438" type="line"/>
      <point x="690.9562225341797" y="492.83582305908203" type="line"/>
    </contour>
    <contour>
      <point x="165.07462310791016" y="219.25373077392578" type="line"/>
      <point x="359.0437774658203" y="219.25373077392578" type="line"/>
      <point x="578.3582077026367" y="492.83582305908203" type="line"/>
      <point x="359.0437774658203" y="766.4179077148438" type="line"/>
      <point x="165.07462310791016" y="766.4179077148438" type="line"/>
      <point x="384.3890609741211" y="492.83582305908203" type="line"/>
    </contour>
  </outline>
</glyph>
<glyph name="one_over_four" format="2">
  <advance width="1020"/>
  <unicode hex="00BC"/>
  <outline>
    <contour>
      <point x="82.17926025390625" y="643.5" type="line"/>
      <point x="479.5632781982422" y="643.5" type="line"/>
      <point x="479.5632781982422" y="759.2981948852539" type="line"/>
      <point x="349.6845474243164" y="759.2981948852539" type="line"/>
      <point x="349.6845474243164" y="1217.693717956543" type="line"/>
      <point x="233.8863525390625" y="1217.693717956543" type="line"/>
      <point x="82.17926025390625" y="1130.1055908203125" type="line"/>
      <point x="82.17926025390625" y="996.3933486938477" type="line"/>
      <point x="233.8863525390625" y="1083.9814758300781" type="line"/>
      <point x="233.8863525390625" y="759.2981948852539" type="line"/>
      <point x="82.17926025390625" y="759.2981948852539" type="line"/>
    </contour>
    <contour>
      <point x="89.3782534328358" y="334.7014925373488" type="line"/>
      <point x="939.2289997014925" y="731.8829816953316" type="line"/>
      <point x="939.2289997014925" y="835.2985074626866" type="line"/>
      <point x="89.3782534328358" y="438.11701830470383" type="line"/>
    </contour>
    <contour>
      <point x="697.1791687011719" y="240.3488006591797" type="line"/>
      <point x="813.3744812011719" y="387.4092712402344" type="line"/>
      <point x="813.3744812011719" y="240.3488006591797" type="line"/>
    </contour>
    <contour>
      <point x="549.59716796875" y="124.55060577392578" type="line"/>
      <point x="813.3744812011719" y="124.55060577392578" type="line"/>
      <point x="813.3744812011719" y="0" type="line"/>
      <point x="929.1726760864258" y="0" type="line"/>
      <point x="929.1726760864258" y="124.55060577392578" type="line"/>
      <point x="992.8207397460938" y="124.55060577392578" type="line"/>
      <point x="992.8207397460938" y="240.3488006591797" type="line"/>
      <point x="929.1726760864258" y="240.3488006591797" type="line"/>
      <point x="929.1726760864258" y="574.193717956543" type="line"/>
      <point x="813.3744812011719" y="574.193717956543" type="line"/>
      <point x="549.59716796875" y="240.3488006591797" type="line"/>
    </contour>
  </outline>
</glyph>
<glyph name="one_over_two" format="2">
  <advance width="1020"/>
  <unicode hex="00BD"/>
  <outline>
    <contour>
      <point x="85.873291015625" y="643.5" type="line"/>
      <point x="463.61177825927734" y="643.5" type="line"/>
      <point x="463.61177825927734" y="759.2981872558594" type="line"/>
      <point x="341.3729782104492" y="759.2981872558594" type="line"/>
      <point x="341.3729782104492" y="1217.693717956543" type="line"/>
      <point x="225.5747833251953" y="1217.693717956543" type="line"/>
      <point x="85.873291015625" y="1137.0370178222656" type="line"/>
      <point x="85.873291015625" y="1011.4169998168945" type="line"/>
      <point x="225.5747833251953" y="1092.0736999511719" type="line"/>
      <point x="225.5747833251953" y="759.2981872558594" type="line"/>
      <point x="85.873291015625" y="759.2981872558594" type="line"/>
    </contour>
    <contour>
      <point x="93.07228" y="334.70149" type="line"/>
      <point x="942.92303" y="731.88298" type="line"/>
      <point x="942.92303" y="835.29851" type="line"/>
      <point x="93.07228" y="438.11702" type="line"/>
    </contour>
    <contour>
      <point x="568.7671966552734" y="0" type="line"/>
      <point x="944.126708984375" y="0" type="line"/>
      <point x="944.126708984375" y="115.79818725585938" type="line"/>
      <point x="740.2069931030273" y="115.79818725585938" type="line"/>
      <point x="880.7029495239258" y="244.48819732666016" type="line"/>
      <point x="921.11495" y="281.50437"/>
      <point x="944.12671" y="333.78862"/>
      <point x="944.12671" y="388.59124" type="curve"/>
      <point x="944.12671" y="496.44523"/>
      <point x="856.56295" y="584.00899"/>
      <point x="748.70896" y="584.00899" type="curve" smooth="yes"/>
      <point x="640.85496" y="584.00899"/>
      <point x="553.2912" y="496.44523"/>
      <point x="553.2912" y="388.59124" type="curve"/>
      <point x="669.0894012451172" y="388.5912399291992" type="line"/>
      <point x="669.0894" y="432.53447"/>
      <point x="704.76572" y="468.2108"/>
      <point x="748.70896" y="468.2108" type="curve" smooth="yes"/>
      <point x="792.65219" y="468.2108"/>
      <point x="828.32851" y="432.53447"/>
      <point x="828.32851" y="388.59124" type="curve"/>
      <point x="828.32851" y="366.26287"/>
      <point x="818.95278" y="344.96056"/>
      <point x="802.48761" y="329.87897" type="curve"/>
      <point x="568.7671966552734" y="115.79818725585938" type="line"/>
    </contour>
  </outline>
</glyph>
<glyph name="three_over_four" format="2">
  <advance width="1020"/>
  <unicode hex="00BE"/>
  <outline>
    <contour>
      <point x="86.54492950439453" y="813.8914184570312" type="line"/>
      <point x="86.54493" y="714.48996"/>
      <point x="176.48672" y="633.68472"/>
      <point x="287.41229" y="633.68472" type="curve" smooth="yes"/>
      <point x="398.33787" y="633.68472"/>
      <point x="488.27965" y="714.48996"/>
      <point x="488.27965" y="813.89142" type="curve"/>
      <point x="488.27965" y="861.79338599888"/>
      <point x="467.3923386464649" y="905.3767199350516"/>
      <point x="433.33509826660156" y="937.663688659668" type="curve"/>
      <point x="463.46151104609" y="968.4075669220219"/>
      <point x="481.73114" y="1008.76352382224"/>
      <point x="481.73114" y="1052.90446" type="curve"/>
      <point x="481.73114" y="1149.21644"/>
      <point x="394.75357" y="1227.50899"/>
      <point x="287.41229" y="1227.50899" type="curve" smooth="yes"/>
      <point x="180.07102" y="1227.50899"/>
      <point x="93.09344" y="1149.21644"/>
      <point x="93.09344" y="1052.90446" type="curve"/>
      <point x="208.89163208007812" y="1052.9044570922852" type="line"/>
      <point x="208.89163" y="1085.31087"/>
      <point x="244.00918" y="1111.7108"/>
      <point x="287.41229" y="1111.7108" type="curve" smooth="yes"/>
      <point x="330.81541" y="1111.7108"/>
      <point x="365.93295" y="1085.31087"/>
      <point x="365.93295" y="1052.90446" type="curve"/>
      <point x="365.93295" y="1020.49805"/>
      <point x="330.81541" y="994.09812"/>
      <point x="287.41229" y="994.09812" type="curve"/>
      <point x="238.81722259521484" y="994.0981216430664" type="line"/>
      <point x="238.81722259521484" y="878.2999267578125" type="line"/>
      <point x="287.41229248046875" y="878.2999267578125" type="line"/>
      <point x="334.43248" y="878.29993"/>
      <point x="372.48146" y="849.38705"/>
      <point x="372.48146" y="813.89142" type="curve"/>
      <point x="372.48146" y="778.3958"/>
      <point x="334.43248" y="749.48292"/>
      <point x="287.41229" y="749.48292" type="curve" smooth="yes"/>
      <point x="240.39211" y="749.48292"/>
      <point x="202.34313" y="778.3958"/>
      <point x="202.34313" y="813.89142" type="curve"/>
    </contour>
    <contour>
      <point x="93.74393" y="334.70149" type="line"/>
      <point x="943.59467" y="731.88298" type="line"/>
      <point x="943.59467" y="835.29851" type="line"/>
      <point x="93.74393" y="438.11702" type="line"/>
    </contour>
    <contour>
      <point x="688.9653167724609" y="244.71446990966797" type="line"/>
      <point x="796.0667190551758" y="390.46881103515625" type="line"/>
      <point x="796.0667190551758" y="244.71446990966797" type="line"/>
    </contour>
    <contour>
      <point x="553.9628372192383" y="128.9162826538086" type="line"/>
      <point x="796.0667190551758" y="128.9162826538086" type="line"/>
      <point x="796.0667190551758" y="0" type="line"/>
      <point x="911.8649215698242" y="0" type="line"/>
      <point x="911.8649215698242" y="128.9162826538086" type="line"/>
      <point x="988.4550704956055" y="128.9162826538086" type="line"/>
      <point x="988.4550704956055" y="244.71446990966797" type="line"/>
      <point x="911.8649215698242" y="244.71446990966797" type="line"/>
      <point x="911.8649215698242" y="574.193717956543" type="line"/>
      <point x="796.0667190551758" y="574.193717956543" type="line"/>
      <point x="553.9628372192383" y="244.71446990966797" type="line"/>
    </contour>
  </outline>
</glyph>
<glyph name="invertedquestion" format="2">
  <advance width="1020"/>
  <unicode hex="00BF"/>
  <outline>
    <contour>
      <point x="391.11940298507477" y="701.8656716417912" type="curve" smooth="yes"/>
      <point x="391.11940298507477" y="627.9749592626866"/>
      <point x="451.10928762089566" y="567.9850746268658"/>
      <point x="525.0000000000001" y="567.9850746268658" type="curve" smooth="yes"/>
      <point x="598.8907123791046" y="567.9850746268658"/>
      <point x="658.8805970149256" y="627.9749592626866"/>
      <point x="658.8805970149256" y="701.8656716417912" type="curve" smooth="yes"/>
      <point x="658.8805970149256" y="775.7563840208958"/>
      <point x="598.8907123791046" y="835.7462686567166"/>
      <point x="525.0000000000001" y="835.7462686567166" type="curve" smooth="yes"/>
      <point x="451.1092876208957" y="835.7462686567166"/>
      <point x="391.11940298507477" y="775.7563840208958"/>
    </contour>
    <contour>
      <point x="600.6716384887695" y="486.49253845214844" type="line"/>
      <point x="449.32836151123047" y="486.49253845214844" type="line"/>
      <point x="449.32836151123047" y="366.5360412597656" type="line"/>
      <point x="285.8831012918064" y="331.70824566150316"/>
      <point x="163.13432835820907" y="186.38173683386347"/>
      <point x="163.13432835820907" y="12.611940298507534" type="curve"/>
      <point x="163.13432835820896" y="-187.10715910298512"/>
      <point x="325.28090059850746" y="-349.2537313432836"/>
      <point x="525.0" y="-349.2537313432836" type="curve" smooth="yes"/>
      <point x="724.7190994014925" y="-349.2537313432836"/>
      <point x="886.8656716417911" y="-187.10715910298524"/>
      <point x="886.8656716417911" y="12.611940298507408" type="curve"/>
      <point x="735.5223846435547" y="12.6119384765625" type="line"/>
      <point x="735.5223880597016" y="-103.57852771791043"/>
      <point x="641.190468016418" y="-197.91044776119404"/>
      <point x="525.0" y="-197.91044776119404" type="curve" smooth="yes"/>
      <point x="408.80953198358213" y="-197.91044776119404"/>
      <point x="314.4776119402985" y="-103.57852771791043"/>
      <point x="314.4776119402985" y="12.611940298507463" type="curve"/>
      <point x="314.4776119402985" y="128.80240831492537"/>
      <point x="408.80953198358213" y="223.13432835820896"/>
      <point x="525.0" y="223.13432835820896" type="curve"/>
      <point x="600.6716384887695" y="223.13433074951172" type="line"/>
    </contour>
  </outline>
</glyph>
<glyph name="A_with_grave" format="2">
  <advance width="980"/>
  <unicode hex="00C0"/>
  <outline>
    <contour>
      <point x="550.3201659331994" y="1305.0" type="line"/>
      <point x="403.2192436043792" y="1565.0" type="line"/>
      <point x="282.5789117379803" y="1565.0" type="line"/>
      <point x="429.6798340668006" y="1305.0" type="line"/>
    </contour>
    <contour>
      <point x="55" y="-15" type="line"/>
      <point x="211.4885482788086" y="-15" type="line"/>
      <point x="302.801025390625" y="292.14286041259766" type="line"/>
      <point x="677.198974609375" y="292.14286041259766" type="line"/>
      <point x="768.5114517211914" y="-15" type="line"/>
      <point x="925" y="-15" type="line"/>
      <point x="568.2442779541016" y="1185" type="line"/>
      <point x="411.75572204589844" y="1185" type="line"/>
    </contour>
    <contour>
      <point x="347.39549255371094" y="442.14286041259766" type="line"/>
      <point x="490" y="921.8139419555664" type="line"/>
      <point x="632.6045074462891" y="442.14286041259766" type="line"/>
    </contour>
  </outline>
</glyph>
<glyph name="A_with_acute" format="2">
  <advance width="1020"/>
  <unicode hex="00C1"/>
  <outline>
    <contour>
      <point x="449.13965347635394" y="1286.4179104477612" type="line"/>
      <point x="570.8603465236458" y="1286.4179104477612" type="line"/>
      <point x="713.5701965441431" y="1538.6567164179105" type="line"/>
      <point x="591.8495034968512" y="1538.6567164179105" type="line"/>
    </contour>
    <contour>
      <point x="55.97014617919922" y="0" type="line"/>
      <point x="214.88027954101562" y="0" type="line"/>
      <point x="309.1229782104492" y="294.3710021972656" type="line"/>
      <point x="710.8770217895508" y="294.3710021972656" type="line"/>
      <point x="805.1197204589844" y="0" type="line"/>
      <point x="964.0298538208008" y="0" type="line"/>
      <point x="589.4550628662109" y="1170" type="line"/>
      <point x="430.54493713378906" y="1170" type="line"/>
    </contour>
    <contour>
      <point x="357.57543182373047" y="445.7142868041992" type="line"/>
      <point x="510" y="921.8187866210938" type="line"/>
      <point x="662.4245681762695" y="445.7142868041992" type="line"/>
    </contour>
  </outline>
</glyph>
<glyph name="A_with_circumflex" format="2">
  <advance width="1020"/>
  <unicode hex="00C2"/>
  <outline>
    <contour>
      <point x="237.09677124023438" y="1283.2258071899414" type="line"/>
      <point x="377.3787612915039" y="1283.2258071899414" type="line"/>
      <point x="510" y="1435.1394577026367" type="line"/>
      <point x="642.6212387084961" y="1283.2258071899414" type="line"/>
      <point x="782.9032287597656" y="1283.2258071899414" type="line"/>
      <point x="580.140998840332" y="1515.483871459961" type="line"/>
      <point x="439.85900115966797" y="1515.483871459961" type="line"/>
    </contour>
    <contour>
      <point x="57.096771240234375" y="0" type="line"/>
      <point x="215.61258697509766" y="0" type="line"/>
      <point x="309.6214294433594" y="293.6405563354492" type="line"/>
      <point x="710.3785705566406" y="293.6405563354492" type="line"/>
      <point x="804.3874130249023" y="0" type="line"/>
      <point x="962.9032287597656" y="0" type="line"/>
      <point x="589.2579040527344" y="1167.0967712402344" type="line"/>
      <point x="430.7420959472656" y="1167.0967712402344" type="line"/>
    </contour>
    <contour>
      <point x="357.9536590576172" y="444.60829162597656" type="line"/>
      <point x="510" y="919.5313949584961" type="line"/>
      <point x="662.0463409423828" y="444.60829162597656" type="line"/>
    </contour>
  </outline>
</glyph>
<glyph name="A_with_smalltilde" format="2">
  <advance width="1020"/>
  <unicode hex="00C3"/>
  <outline>
    <contour>
      <point x="560.477008156854" y="1402.320928954247" type="curve"/>
      <point x="520.1370697021484" y="1430.5672607421875" type="line"/>
      <point x="489.8997115242551" y="1451.7396840828555"/>
      <point x="453.88047245412446" y="1463.0965065380103"/>
      <point x="416.96747427994575" y="1463.0965065380103" type="curve"/>
      <point x="317.69413324434777" y="1463.0965065380103"/>
      <point x="237.09677419354838" y="1382.4991474872108"/>
      <point x="237.09677419354838" y="1283.225806451613" type="curve"/>
      <point x="342.7741928100586" y="1283.2258071899414" type="line"/>
      <point x="342.7741935483871" y="1324.1741924704368"/>
      <point x="376.01908826112196" y="1357.4190871831715"/>
      <point x="416.96747427994575" y="1357.4190871831715" type="curve"/>
      <point x="432.1933917576943" y="1357.4190871831715"/>
      <point x="447.05065041507265" y="1352.7346115224384"/>
      <point x="459.5229918431459" y="1344.0013840353763" type="curve"/>
      <point x="499.86293029785156" y="1315.7550582885742" type="line"/>
      <point x="530.1002884757451" y="1294.5826289067677"/>
      <point x="566.1195275458756" y="1283.225806451613"/>
      <point x="603.0325257200543" y="1283.225806451613" type="curve"/>
      <point x="702.3058667556522" y="1283.225806451613"/>
      <point x="782.9032258064517" y="1363.8231655024124"/>
      <point x="782.9032258064517" y="1463.0965065380103" type="curve"/>
      <point x="677.2258071899414" y="1463.0965042114258" type="line"/>
      <point x="677.2258064516129" y="1422.1481205191865"/>
      <point x="643.9809117388781" y="1388.9032258064517"/>
      <point x="603.0325257200543" y="1388.9032258064517" type="curve"/>
      <point x="587.8066082423056" y="1388.9032258064517"/>
      <point x="572.9493495849274" y="1393.5877014671846"/>
    </contour>
    <contour>
      <point x="57.096771240234375" y="0" type="line"/>
      <point x="215.61258697509766" y="0" type="line"/>
      <point x="309.6214294433594" y="293.6405563354492" type="line"/>
      <point x="710.3785705566406" y="293.6405563354492" type="line"/>
      <point x="804.3874130249023" y="0" type="line"/>
      <point x="962.9032287597656" y="0" type="line"/>
      <point x="589.2579040527344" y="1167.0967712402344" type="line"/>
      <point x="430.7420959472656" y="1167.0967712402344" type="line"/>
    </contour>
    <contour>
      <point x="357.9536590576172" y="444.60829162597656" type="line"/>
      <point x="510" y="919.5313949584961" type="line"/>
      <point x="662.0463409423828" y="444.60829162597656" type="line"/>
    </contour>
  </outline>
</glyph>
<glyph name="A_with_diaeresis" format="2">
  <advance width="1020"/>
  <unicode hex="00C4"/>
  <outline>
    <contour>
      <point x="477.05373" y="1406.41791" type="curve" smooth="yes"/>
      <point x="477.05373" y="1467.45806"/>
      <point x="427.49687" y="1517.01493"/>
      <point x="366.45672" y="1517.01493" type="curve" smooth="yes"/>
      <point x="305.41656" y="1517.01493"/>
      <point x="255.8597" y="1467.45806"/>
      <point x="255.8597" y="1406.41791" type="curve" smooth="yes"/>
      <point x="255.8597" y="1345.37776"/>
      <point x="305.41656" y="1295.8209"/>
      <point x="366.45672" y="1295.8209" type="curve" smooth="yes"/>
      <point x="427.49687" y="1295.8209"/>
      <point x="477.05373" y="1345.37776"/>
    </contour>
    <contour>
      <point x="764.1403" y="1406.41791" type="curve" smooth="yes"/>
      <point x="764.1403" y="1467.45806"/>
      <point x="714.58344" y="1517.01493"/>
      <point x="653.54328" y="1517.01493" type="curve" smooth="yes"/>
      <point x="592.50313" y="1517.01493"/>
      <point x="542.94627" y="1467.45806"/>
      <point x="542.94627" y="1406.41791" type="curve" smooth="yes"/>
      <point x="542.94627" y="1345.37776"/>
      <point x="592.50313" y="1295.8209"/>
      <point x="653.54328" y="1295.8209" type="curve" smooth="yes"/>
      <point x="714.58344" y="1295.8209"/>
      <point x="764.1403" y="1345.37776"/>
    </contour>
    <contour>
      <point x="31.231338500976562" y="0" type="line"/>
      <point x="191.12567901611328" y="0" type="line"/>
      <point x="291.4688262939453" y="294.3710021972656" type="line"/>
      <point x="728.5311737060547" y="294.3710021972656" type="line"/>
      <point x="828.8743209838867" y="0" type="line"/>
      <point x="988.7686614990234" y="0" type="line"/>
      <point x="589.9471664428711" y="1170" type="line"/>
      <point x="430.0528335571289" y="1170" type="line"/>
    </contour>
    <contour>
      <point x="343.05767822265625" y="445.7142868041992" type="line"/>
      <point x="510" y="935.4635314941406" type="line"/>
      <point x="676.9423217773438" y="445.7142868041992" type="line"/>
    </contour>
  </outline>
</glyph>
<glyph name="A_with_ring" format="2">
  <advance width="1020"/>
  <unicode hex="00C5"/>
  <outline>
    <contour>
      <point x="677.14286" y="1406.41791" type="curve" smooth="yes"/>
      <point x="677.14286" y="1498.66656"/>
      <point x="602.24865" y="1573.56077"/>
      <point x="510.0" y="1573.56077" type="curve" smooth="yes"/>
      <point x="417.75135" y="1573.56077"/>
      <point x="342.85714" y="1498.66656"/>
      <point x="342.85714" y="1406.41791" type="curve" smooth="yes"/>
      <point x="342.85714" y="1314.16926"/>
      <point x="417.75135" y="1239.27505"/>
      <point x="510.0" y="1239.27505" type="curve" smooth="yes"/>
      <point x="602.24865" y="1239.27505"/>
      <point x="677.14286" y="1314.16926"/>
    </contour>
    <contour>
      <point x="571.20256" y="1406.41791" type="curve" smooth="yes"/>
      <point x="571.20256" y="1372.6393"/>
      <point x="543.77861" y="1345.21535"/>
      <point x="510.0" y="1345.21535" type="curve" smooth="yes"/>
      <point x="476.22139" y="1345.21535"/>
      <point x="448.79744" y="1372.6393"/>
      <point x="448.79744" y="1406.41791" type="curve" smooth="yes"/>
      <point x="448.79744" y="1440.19652"/>
      <point x="476.22139" y="1467.62047"/>
      <point x="510.0" y="1467.62047" type="curve" smooth="yes"/>
      <point x="543.77861" y="1467.62047"/>
      <point x="571.20256" y="1440.19652"/>
    </contour>
    <contour>
      <point x="31.231338500976562" y="0" type="line"/>
      <point x="191.12567901611328" y="0" type="line"/>
      <point x="291.4688262939453" y="294.3710021972656" type="line"/>
      <point x="728.5311737060547" y="294.3710021972656" type="line"/>
      <point x="828.8743209838867" y="0" type="line"/>
      <point x="988.7686614990234" y="0" type="line"/>
      <point x="589.9471664428711" y="1170" type="line"/>
      <point x="430.0528335571289" y="1170" type="line"/>
    </contour>
    <contour>
      <point x="343.05767822265625" y="445.7142868041992" type="line"/>
      <point x="510" y="935.4635314941406" type="line"/>
      <point x="676.9423217773438" y="445.7142868041992" type="line"/>
    </contour>
  </outline>
</glyph>
<glyph name="AE" format="2">
  <advance width="980"/>
  <unicode hex="00C6"/>
  <outline>
    <contour>
      <point x="60" y="-15" type="line"/>
      <point x="219.77513122558594" y="-15" type="line"/>
      <point x="332.4517364501953" y="292.14286041259766" type="line"/>
      <point x="510" y="292.14286041259766" type="line"/>
      <point x="510" y="-15" type="line"/>
      <point x="870" y="-15" type="line"/>
      <point x="870" y="135" type="line"/>
      <point x="660" y="135" type="line"/>
      <point x="660" y="510" type="line"/>
      <point x="870" y="510" type="line"/>
      <point x="870" y="660" type="line"/>
      <point x="660" y="660" type="line"/>
      <point x="660" y="1035" type="line"/>
      <point x="870" y="1035" type="line"/>
      <point x="870" y="1185" type="line"/>
      <point x="500.22486877441406" y="1185" type="line"/>
    </contour>
    <contour>
      <point x="387.47984313964844" y="442.14286041259766" type="line"/>
      <point x="510" y="776.1180572509766" type="line"/>
      <point x="510" y="442.14286041259766" type="line"/>
    </contour>
  </outline>
</glyph>
<glyph name="C_with_cedilla" format="2">
  <advance width="1020"/>
  <unicode hex="00C7"/>
  <outline>
    <contour>
      <point x="82.12686929938002" y="453.12313079833984" type="line"/>
      <point x="82.12686854136537" y="121.51065552869505"/>
      <point x="299.6164204841136" y="2.8984745676342953"/>
      <point x="459.52984619140625" y="-16.760826110839844" type="curve"/>
      <point x="459.52984619140625" y="-117.58209228515625" type="line"/>
      <point x="497.02792508396965" y="-117.58209228515625" type="line"/>
      <point x="560.9079796522371" y="-117.58209228515625"/>
      <point x="565.73881" y="-157.9620186434206"/>
      <point x="565.73881" y="-170.8209" type="curve" smooth="yes"/>
      <point x="565.73881" y="-183.67978085657938"/>
      <point x="560.9079796522371" y="-224.05969999326217"/>
      <point x="497.0279253587337" y="-224.05970000215353" type="curve"/>
      <point x="424.7985076904297" y="-224.05970001220703" type="line"/>
      <point x="424.7985076904297" y="-330" type="line"/>
      <point x="469.75" y="-330.0" type="line"/>
      <point x="637.1846183844598" y="-330.0"/>
      <point x="671.6791" y="-241.53946217191452"/>
      <point x="671.6791" y="-170.8209" type="curve" smooth="yes"/>
      <point x="671.6791" y="-101.53492414229997"/>
      <point x="627.316138526493" y="-42.52871188138033"/>
      <point x="565.4701538085938" y="-20.69538116455078" type="curve"/>
      <point x="565.4701538085938" y="-16.758071899414062" type="line"/>
      <point x="778.0484760521616" y="9.372946811775218"/>
      <point x="942.87313" y="190.77649635682997"/>
      <point x="942.8731300000002" y="410.37312999999995" type="curve"/>
      <point x="791.5298461914062" y="410.37313079833984" type="line"/>
      <point x="791.52985" y="256.37236999999993"/>
      <point x="666.5007700000001" y="131.34328"/>
      <point x="512.5" y="131.34328" type="curve" smooth="yes"/>
      <point x="406.5613391912417" y="131.34328"/>
      <point x="233.47014761569457" y="191.7287613576059"/>
      <point x="233.4701504661865" y="453.12313" type="curve"/>
      <point x="233.47015334240723" y="716.8768692016602" type="line"/>
      <point x="233.47015619289914" y="978.2712378839713"/>
      <point x="406.5613391912417" y="1038.65672"/>
      <point x="512.5" y="1038.65672" type="curve" smooth="yes"/>
      <point x="666.500761718506" y="1038.65672"/>
      <point x="791.52985" y="913.627639"/>
      <point x="791.52985" y="759.62687" type="curve"/>
      <point x="942.8731307983398" y="759.6268692016602" type="line"/>
      <point x="942.87313" y="997.1562682814942"/>
      <point x="750.029391" y="1190.0"/>
      <point x="512.5" y="1190.0" type="curve" smooth="yes"/>
      <point x="330.73022128913095" y="1190.0"/>
      <point x="82.12687070745403" y="1069.1203549675113"/>
      <point x="82.12686990228013" y="716.87687" type="curve"/>
    </contour>
  </outline>
</glyph>
<glyph name="E_with_grave" format="2">
  <advance width="1020"/>
  <unicode hex="00C8"/>
  <outline>
    <contour>
      <point x="573.3603465236461" y="1286.4179104477612" type="line"/>
      <point x="430.6504965031487" y="1538.6567164179105" type="line"/>
      <point x="308.9298034558568" y="1538.6567164179105" type="line"/>
      <point x="451.639653476354" y="1286.4179104477612" type="line"/>
    </contour>
    <contour>
      <point x="131.2313461303711" y="0" type="line"/>
      <point x="893.7686538696289" y="0" type="line"/>
      <point x="893.7686538696289" y="151.3432846069336" type="line"/>
      <point x="282.57462310791016" y="151.3432846069336" type="line"/>
      <point x="282.57462310791016" y="509.32836151123047" type="line"/>
      <point x="835.559700012207" y="509.32836151123047" type="line"/>
      <point x="835.559700012207" y="660.6716384887695" type="line"/>
      <point x="282.57462310791016" y="660.6716384887695" type="line"/>
      <point x="282.57462310791016" y="1018.6567153930664" type="line"/>
      <point x="893.7686538696289" y="1018.6567153930664" type="line"/>
      <point x="893.7686538696289" y="1170" type="line"/>
      <point x="131.2313461303711" y="1170" type="line"/>
    </contour>
  </outline>
</glyph>
<glyph name="E_with_acute" format="2">
  <advance width="980"/>
  <unicode hex="00C9"/>
  <outline>
    <contour>
      <point x="444.6798340668006" y="1305.0" type="line"/>
      <point x="565.3201659331994" y="1305.0" type="line"/>
      <point x="712.4210882620197" y="1565.0" type="line"/>
      <point x="591.7807563956209" y="1565.0" type="line"/>
    </contour>
    <contour>
      <point x="100" y="-15" type="line"/>
      <point x="910" y="-15" type="line"/>
      <point x="910" y="135" type="line"/>
      <point x="250" y="135" type="line"/>
      <point x="250" y="510" type="line"/>
      <point x="850" y="510" type="line"/>
      <point x="850" y="660" type="line"/>
      <point x="250" y="660" type="line"/>
      <point x="250" y="1035" type="line"/>
      <point x="910" y="1035" type="line"/>
      <point x="910" y="1185" type="line"/>
      <point x="100" y="1185" type="line"/>
    </contour>
  </outline>
</glyph>
<glyph name="E_with_circumflex" format="2">
  <advance width="1020"/>
  <unicode hex="00CA"/>
  <outline>
    <contour>
      <point x="241.41790771484375" y="1286.4179077148438" type="line"/>
      <point x="380.47373962402344" y="1286.4179077148438" type="line"/>
      <point x="515" y="1444.6420822143555" type="line"/>
      <point x="649.5262603759766" y="1286.4179077148438" type="line"/>
      <point x="788.5820922851562" y="1286.4179077148438" type="line"/>
      <point x="584.5279083251953" y="1526.4179077148438" type="line"/>
      <point x="445.4720916748047" y="1526.4179077148438" type="line"/>
    </contour>
    <contour>
      <point x="156.62686920166016" y="0" type="line"/>
      <point x="873.3731307983398" y="0" type="line"/>
      <point x="873.3731307983398" y="151.34327697753906" type="line"/>
      <point x="307.97015380859375" y="151.34327697753906" type="line"/>
      <point x="307.97015380859375" y="509.32836151123047" type="line"/>
      <point x="815.164176940918" y="509.32836151123047" type="line"/>
      <point x="815.164176940918" y="660.6716384887695" type="line"/>
      <point x="307.97015380859375" y="660.6716384887695" type="line"/>
      <point x="307.97015380859375" y="1018.6567230224609" type="line"/>
      <point x="868.5223922729492" y="1018.6567230224609" type="line"/>
      <point x="868.5223922729492" y="1170" type="line"/>
      <point x="156.62686920166016" y="1170" type="line"/>
    </contour>
  </outline>
</glyph>
<glyph name="E_with_diaeresis" format="2">
  <advance width="1020"/>
  <unicode hex="00CB"/>
  <outline>
    <contour>
      <point x="479.5537313432835" y="1397.0149253731345" type="curve" smooth="yes"/>
      <point x="479.5537313432835" y="1458.055079077612"/>
      <point x="429.99687012238803" y="1507.6119402985075"/>
      <point x="368.9567164179104" y="1507.6119402985075" type="curve" smooth="yes"/>
      <point x="307.91656271343277" y="1507.6119402985075"/>
      <point x="258.3597014925373" y="1458.055079077612"/>
      <point x="258.3597014925373" y="1397.0149253731345" type="curve" smooth="yes"/>
      <point x="258.3597014925373" y="1335.9747716686568"/>
      <point x="307.91656271343277" y="1286.4179104477612"/>
      <point x="368.9567164179104" y="1286.4179104477612" type="curve" smooth="yes"/>
      <point x="429.99687012238803" y="1286.4179104477612"/>
      <point x="479.5537313432835" y="1335.9747716686568"/>
    </contour>
    <contour>
      <point x="766.6402985074627" y="1397.0149253731345" type="curve" smooth="yes"/>
      <point x="766.6402985074627" y="1458.055079077612"/>
      <point x="717.0834372865672" y="1507.6119402985075"/>
      <point x="656.0432835820895" y="1507.6119402985075" type="curve" smooth="yes"/>
      <point x="595.0031298776119" y="1507.6119402985075"/>
      <point x="545.4462686567164" y="1458.055079077612"/>
      <point x="545.4462686567164" y="1397.0149253731345" type="curve" smooth="yes"/>
      <point x="545.4462686567164" y="1335.9747716686568"/>
      <point x="595.0031298776119" y="1286.4179104477612"/>
      <point x="656.0432835820895" y="1286.4179104477612" type="curve" smooth="yes"/>
      <point x="717.0834372865671" y="1286.4179104477612"/>
      <point x="766.6402985074626" y="1335.9747716686568"/>
    </contour>
    <contour>
      <point x="131.2313461303711" y="0" type="line"/>
      <point x="893.7686538696289" y="0" type="line"/>
      <point x="893.7686538696289" y="151.3432846069336" type="line"/>
      <point x="282.57462310791016" y="151.3432846069336" type="line"/>
      <point x="282.57462310791016" y="509.32836151123047" type="line"/>
      <point x="835.559700012207" y="509.32836151123047" type="line"/>
      <point x="835.559700012207" y="660.6716384887695" type="line"/>
      <point x="282.57462310791016" y="660.6716384887695" type="line"/>
      <point x="282.57462310791016" y="1018.6567153930664" type="line"/>
      <point x="893.7686538696289" y="1018.6567153930664" type="line"/>
      <point x="893.7686538696289" y="1170" type="line"/>
      <point x="131.2313461303711" y="1170" type="line"/>
    </contour>
  </outline>
</glyph>
<glyph name="I_with_grave" format="2">
  <advance width="1020"/>
  <unicode hex="00CC"/>
  <outline>
    <contour>
      <point x="570.7093282940588" y="1283.225806451613" type="line"/>
      <point x="428.3535970081037" y="1534.8387096774195" type="line"/>
      <point x="306.9349404199862" y="1534.8387096774195" type="line"/>
      <point x="449.29067170594124" y="1283.225806451613" type="line"/>
    </contour>
    <contour>
      <point x="144.19355010986328" y="0" type="line"/>
      <point x="875.8064498901367" y="0" type="line"/>
      <point x="875.8064498901367" y="150.96774291992188" type="line"/>
      <point x="585.4838714599609" y="150.96774291992188" type="line"/>
      <point x="585.4838714599609" y="1016.129035949707" type="line"/>
      <point x="875.8064498901367" y="1016.129035949707" type="line"/>
      <point x="875.8064498901367" y="1167.0967712402344" type="line"/>
      <point x="144.19355010986328" y="1167.0967712402344" type="line"/>
      <point x="144.19355010986328" y="1016.129035949707" type="line"/>
      <point x="434.51612854003906" y="1016.129035949707" type="line"/>
      <point x="434.51612854003906" y="150.96774291992188" type="line"/>
      <point x="144.19355010986328" y="150.96774291992188" type="line"/>
    </contour>
  </outline>
</glyph>
<glyph name="I_with_acute" format="2">
  <advance width="980"/>
  <unicode hex="00CD"/>
  <outline>
    <contour>
      <point x="429.6798340668006" y="1305.0" type="line"/>
      <point x="550.3201659331994" y="1305.0" type="line"/>
      <point x="697.4210882620197" y="1565.0" type="line"/>
      <point x="576.7807563956209" y="1565.0" type="line"/>
    </contour>
    <contour>
      <point x="115" y="-15" type="line"/>
      <point x="865" y="-15" type="line"/>
      <point x="865" y="135" type="line"/>
      <point x="565" y="135" type="line"/>
      <point x="565" y="1035" type="line"/>
      <point x="865" y="1035" type="line"/>
      <point x="865" y="1185" type="line"/>
      <point x="115" y="1185" type="line"/>
      <point x="115" y="1035" type="line"/>
      <point x="415" y="1035" type="line"/>
      <point x="415" y="135" type="line"/>
      <point x="115" y="135" type="line"/>
    </contour>
  </outline>
</glyph>
<glyph name="I_with_circumflex" format="2">
  <advance width="980"/>
  <unicode hex="00CE"/>
  <outline>
    <contour>
      <point x="220" y="1305" type="line"/>
      <point x="357.0880355834961" y="1305" type="line"/>
      <point x="490" y="1463.3416442871094" type="line"/>
      <point x="622.9119644165039" y="1305" type="line"/>
      <point x="760" y="1305" type="line"/>
      <point x="558.5440139770508" y="1545" type="line"/>
      <point x="421.4559860229492" y="1545" type="line"/>
    </contour>
    <contour>
      <point x="115" y="-15" type="line"/>
      <point x="865" y="-15" type="line"/>
      <point x="865" y="135" type="line"/>
      <point x="565" y="135" type="line"/>
      <point x="565" y="1035" type="line"/>
      <point x="865" y="1035" type="line"/>
      <point x="865" y="1185" type="line"/>
      <point x="115" y="1185" type="line"/>
      <point x="115" y="1035" type="line"/>
      <point x="415" y="1035" type="line"/>
      <point x="415" y="135" type="line"/>
      <point x="115" y="135" type="line"/>
    </contour>
  </outline>
</glyph>
<glyph name="I_with_diaeresis" format="2">
  <advance width="1020"/>
  <unicode hex="00CF"/>
  <outline>
    <contour>
      <point x="477.13548387096773" y="1393.5483870967741" type="curve" smooth="yes"/>
      <point x="477.13548387096773" y="1454.4370764"/>
      <point x="427.7015925290322" y="1503.8709677419356"/>
      <point x="366.8129032258064" y="1503.8709677419356" type="curve" smooth="yes"/>
      <point x="305.92421392258063" y="1503.8709677419356"/>
      <point x="256.4903225806451" y="1454.4370764"/>
      <point x="256.4903225806451" y="1393.5483870967741" type="curve" smooth="yes"/>
      <point x="256.4903225806451" y="1332.6596977935485"/>
      <point x="305.92421392258063" y="1283.225806451613"/>
      <point x="366.8129032258064" y="1283.225806451613" type="curve" smooth="yes"/>
      <point x="427.7015925290322" y="1283.225806451613"/>
      <point x="477.13548387096773" y="1332.6596977935485"/>
    </contour>
    <contour>
      <point x="763.5096774193548" y="1393.5483870967741" type="curve" smooth="yes"/>
      <point x="763.5096774193548" y="1454.4370764"/>
      <point x="714.0757860774195" y="1503.8709677419356"/>
      <point x="653.1870967741936" y="1503.8709677419356" type="curve" smooth="yes"/>
      <point x="592.2984074709677" y="1503.8709677419356"/>
      <point x="542.8645161290323" y="1454.4370764"/>
      <point x="542.8645161290323" y="1393.5483870967741" type="curve" smooth="yes"/>
      <point x="542.8645161290323" y="1332.6596977935485"/>
      <point x="592.2984074709677" y="1283.225806451613"/>
      <point x="653.1870967741936" y="1283.225806451613" type="curve" smooth="yes"/>
      <point x="714.0757860774193" y="1283.225806451613"/>
      <point x="763.5096774193548" y="1332.6596977935485"/>
    </contour>
    <contour>
      <point x="144.19355010986328" y="0" type="line"/>
      <point x="875.8064498901367" y="0" type="line"/>
      <point x="875.8064498901367" y="150.96774291992188" type="line"/>
      <point x="585.4838714599609" y="150.96774291992188" type="line"/>
      <point x="585.4838714599609" y="1016.129035949707" type="line"/>
      <point x="875.8064498901367" y="1016.129035949707" type="line"/>
      <point x="875.8064498901367" y="1167.0967712402344" type="line"/>
      <point x="144.19355010986328" y="1167.0967712402344" type="line"/>
      <point x="144.19355010986328" y="1016.129035949707" type="line"/>
      <point x="434.51612854003906" y="1016.129035949707" type="line"/>
      <point x="434.51612854003906" y="150.96774291992188" type="line"/>
      <point x="144.19355010986328" y="150.96774291992188" type="line"/>
    </contour>
  </outline>
</glyph>
<glyph name="ETH" format="2">
  <advance width="980"/>
  <unicode hex="00D0"/>
  <outline>
    <contour>
      <point x="105" y="-15" type="line"/>
      <point x="510" y="-15" type="line"/>
      <point x="733.5255831000001" y="-15.0"/>
      <point x="915.0" y="166.47441690000002"/>
      <point x="915.0" y="390.0" type="curve"/>
      <point x="915" y="780" type="line"/>
      <point x="915.0" y="1003.5255831"/>
      <point x="733.5255831" y="1185.0"/>
      <point x="510.0" y="1185.0" type="curve"/>
      <point x="105" y="1185" type="line"/>
      <point x="105" y="637.5" type="line"/>
      <point x="15" y="637.5" type="line"/>
      <point x="15" y="532.5" type="line"/>
      <point x="105" y="532.5" type="line"/>
    </contour>
    <contour>
      <point x="765" y="390" type="line"/>
      <point x="765.0" y="249.26166990000002"/>
      <point x="650.7383301" y="135.0"/>
      <point x="510.0" y="135.0" type="curve"/>
      <point x="255" y="135" type="line"/>
      <point x="255" y="532.5" type="line"/>
      <point x="517.5" y="532.5" type="line"/>
      <point x="517.5" y="637.5" type="line"/>
      <point x="255" y="637.5" type="line"/>
      <point x="255" y="1035" type="line"/>
      <point x="510" y="1035" type="line"/>
      <point x="650.7383301" y="1035.0"/>
      <point x="765.0" y="920.7383301"/>
      <point x="765.0" y="780.0" type="curve"/>
    </contour>
  </outline>
</glyph>
